<?xml version="1.0" encoding="UTF-8"?>
<svg xmlns="http://www.w3.org/2000/svg" viewBox="0 0 3496.0 1059.6" width="3496.0" height="1059.6">
  <title>Caring With Grace - Full Logo</title>
  <!-- Butterfly -->
  <g transform="translate(1223.6,0) scale(1.5659259259259257)">
    <svg viewBox="0 0 300 270" width="300" height="270">
      <g transform="rotate(-20, 150, 135)">
<path d="M 140 145 C 130 120, 110 70, 80 40 C 65 25, 40 18, 25 25 C 12 32, 5 50, 8 70 C 10 85, 18 100, 28 112 C 22 118, 18 125, 25 132 C 32 140, 48 148, 65 152 C 85 155, 110 155, 130 150 C 135 148, 138 147, 140 145 Z" fill="#D4899E" />
<path d="M 155 142 C 168 115, 195 60, 220 30 C 235 15, 252 8, 265 12 C 278 18, 285 35, 282 55 C 280 68, 272 80, 264 90 C 270 96, 275 102, 268 110 C 260 120, 248 128, 232 134 C 215 140, 195 143, 175 144 C 165 144, 158 143, 155 142 Z" fill="#D4899E" />
<path d="M 135 155 C 120 165, 90 185, 65 200 C 48 210, 35 218, 30 228 C 25 240, 30 250, 42 255 C 55 260, 70 258, 85 250 C 100 242, 112 230, 125 215 C 132 205, 137 190, 140 175 C 140 165, 138 158, 135 155 Z" fill="#D4899E" />
<path d="M 160 152 C 172 162, 198 178, 220 190 C 238 198, 250 205, 258 215 C 265 225, 262 238, 252 245 C 240 252, 225 250, 210 242 C 195 232, 182 218, 172 202 C 166 192, 162 178, 160 165 C 159 158, 159 155, 160 152 Z" fill="#D4899E" />
<path d="M 140 145 C 118 115, 85 72, 55 42 M 138 148 C 108 128, 55 100, 15 80 M 135 150 C 105 145, 60 140, 30 130 M 155 142 C 178 108, 215 60, 245 32 M 158 144 C 190 125, 240 95, 275 70 M 160 145 C 192 140, 235 130, 268 115 M 138 158 C 115 175, 80 205, 48 230 M 136 160 C 118 180, 95 210, 70 235 M 158 155 C 180 172, 210 195, 240 220 M 160 157 C 178 175, 200 200, 225 228 " fill="none" stroke="#8C4A60" stroke-width="1.8" stroke-linecap="round" opacity="0.6" />
<path d="M 140 145 C 130 120, 110 70, 80 40 C 65 25, 40 18, 25 25 C 12 32, 5 50, 8 70 C 10 85, 18 100, 28 112 C 22 118, 18 125, 25 132 C 32 140, 48 148, 65 152 C 85 155, 110 155, 130 150 C 135 148, 138 147, 140 145 Z" fill="none" stroke="#8C4A60" stroke-width="1.5" opacity="0.4" />
<path d="M 155 142 C 168 115, 195 60, 220 30 C 235 15, 252 8, 265 12 C 278 18, 285 35, 282 55 C 280 68, 272 80, 264 90 C 270 96, 275 102, 268 110 C 260 120, 248 128, 232 134 C 215 140, 195 143, 175 144 C 165 144, 158 143, 155 142 Z" fill="none" stroke="#8C4A60" stroke-width="1.5" opacity="0.4" />
<path d="M 135 155 C 120 165, 90 185, 65 200 C 48 210, 35 218, 30 228 C 25 240, 30 250, 42 255 C 55 260, 70 258, 85 250 C 100 242, 112 230, 125 215 C 132 205, 137 190, 140 175 C 140 165, 138 158, 135 155 Z" fill="none" stroke="#8C4A60" stroke-width="1.5" opacity="0.4" />
<path d="M 160 152 C 172 162, 198 178, 220 190 C 238 198, 250 205, 258 215 C 265 225, 262 238, 252 245 C 240 252, 225 250, 210 242 C 195 232, 182 218, 172 202 C 166 192, 162 178, 160 165 C 159 158, 159 155, 160 152 Z" fill="none" stroke="#8C4A60" stroke-width="1.5" opacity="0.4" />
<path d="M 18 68 a 4 4 0 1 0 8 0 a 4 4 0 1 0 -8 0 M 24 108 a 3.5 3.5 0 1 0 7 0 a 3.5 3.5 0 1 0 -7 0 M 42 135 a 3.5 3.5 0 1 0 7 0 a 3.5 3.5 0 1 0 -7 0 M 72 30 a 3 3 0 1 0 6 0 a 3 3 0 1 0 -6 0 M 272 52 a 4 4 0 1 0 8 0 a 4 4 0 1 0 -8 0 M 268 88 a 3.5 3.5 0 1 0 7 0 a 3.5 3.5 0 1 0 -7 0 M 253 122 a 3.5 3.5 0 1 0 7 0 a 3.5 3.5 0 1 0 -7 0 M 240 14 a 3 3 0 1 0 6 0 a 3 3 0 1 0 -6 0 M 35 238 a 3 3 0 1 0 6 0 a 3 3 0 1 0 -6 0 M 50 252 a 3 3 0 1 0 6 0 a 3 3 0 1 0 -6 0 M 250 235 a 3 3 0 1 0 6 0 a 3 3 0 1 0 -6 0 M 238 248 a 3 3 0 1 0 6 0 a 3 3 0 1 0 -6 0 " fill="white" opacity="0.85" />
<path d="M 147 130 C 145 140, 144 155, 144 170 C 144 190, 146 210, 148 225 C 149 230, 151 230, 152 225 C 154 210, 156 190, 156 170 C 156 155, 155 140, 153 130 C 151 125, 149 125, 147 130 Z" fill="#8C4A60" />
<path d="M 147 132 C 140 110, 128 85, 118 72 M 118 72 C 115 68, 112 66, 110 68 C 108 70, 110 73, 113 74 M 153 132 C 158 108, 170 82, 182 68 M 182 68 C 185 64, 188 63, 190 65 C 192 67, 190 70, 187 71 " fill="none" stroke="#8C4A60" stroke-width="1.5" stroke-linecap="round" />
</g>
    </svg>
  </g>
  <!-- Main text -->
  <g transform="translate(0,211.39999999999998)">
    <svg viewBox="0 0 3496.000000 604.000000" width="3496.0" height="604.0">
      <path d="M25235 3829 c-66 -5 -140 -16 -165 -24 -25 -8 -70 -17 -100 -21 -30 -4 -66 -15 -80 -25 -14 -9 -44 -21 -65 -25 -22 -4 -50 -15 -62 -24 -13 -10 -40 -21 -60 -25 -21 -4 -45 -13 -53 -20 -8 -7 -34 -18 -56 -24 -23 -6 -45 -18 -48 -26 -3 -9 -17 -20 -31 -25 -14 -5 -25 -14 -25 -19 0 -5 -17 -15 -37 -22 -73 -24 -300 -222 -422 -369 -28 -33 -51 -64 -51 -68 0 -4 -18 -26 -40 -50 -22 -23 -43 -55 -46 -70 -4 -15 -16 -38 -26 -52 -37 -48 -68 -101 -68 -115 0 -7 -11 -26 -23 -42 -13 -15 -27 -45 -30 -67 -3 -21 -13 -46 -21 -55 -8 -9 -17 -38 -21 -66 -4 -27 -14 -61 -23 -75 -8 -13 -21 -64 -28 -112 -8 -48 -20 -98 -28 -110 -10 -17 -18 -88 -27 -256 -15 -282 -1 -563 32 -637 11 -24 22 -65 26 -92 3 -26 14 -59 24 -73 9 -14 20 -42 24 -63 3 -21 15 -53 26 -70 10 -18 19 -41 19 -52 0 -11 9 -26 19 -32 11 -7 22 -25 26 -41 3 -16 24 -49 46 -73 22 -24 54 -70 72 -102 17 -31 40 -60 49 -63 10 -3 18 -9 18 -14 0 -16 244 -252 280 -270 19 -10 51 -34 71 -53 19 -19 45 -37 56 -41 11 -4 28 -15 38 -26 10 -11 24 -20 30 -20 7 0 24 -9 38 -20 14 -11 40 -23 57 -26 17 -4 37 -15 43 -25 7 -11 23 -19 37 -19 14 0 42 -11 62 -25 20 -14 46 -25 58 -25 11 0 37 -7 58 -16 20 -9 79 -22 130 -30 51 -8 105 -22 119 -31 l25 -17 327 1 326 1 60 20 c33 11 94 24 135 27 41 4 85 14 97 21 13 8 44 17 70 20 27 4 57 15 68 24 11 10 39 23 62 29 23 6 43 15 45 19 4 9 107 72 118 72 6 0 33 25 62 57 77 82 81 86 113 113 17 14 43 51 59 83 16 32 36 63 46 70 9 7 20 30 23 51 3 21 15 48 25 60 11 12 23 44 27 71 4 28 13 64 21 80 24 52 36 278 23 433 -6 75 -15 141 -20 146 -5 6 -9 16 -9 23 0 23 75 63 141 74 35 6 73 19 84 29 11 10 34 21 50 24 17 4 39 16 50 26 11 10 31 21 43 25 26 8 48 25 89 70 16 17 51 53 79 80 28 28 65 78 82 111 17 34 38 64 47 67 16 7 20 32 6 41 -10 7 -71 -22 -71 -34 0 -12 -128 -70 -154 -70 -12 0 -31 -7 -42 -15 l-19 -14 -659 -1 c-676 0 -927 -9 -957 -36 -8 -8 -38 -18 -67 -24 -28 -5 -68 -18 -89 -30 -21 -11 -46 -20 -55 -20 -10 0 -18 -5 -18 -10 0 -6 -35 -36 -79 -68 -101 -76 -261 -238 -261 -266 0 -7 -7 -19 -15 -26 -8 -7 -15 -25 -15 -41 l0 -29 39 21 c22 11 42 26 45 34 3 8 22 17 43 21 21 4 44 15 51 25 6 9 27 21 44 25 18 3 44 14 57 23 l25 16 596 3 c327 2 604 0 616 -2 15 -4 28 -24 45 -68 l24 -63 0 -170 0 -170 -16 -30 c-9 -16 -19 -54 -22 -84 -4 -34 -14 -62 -27 -76 -11 -12 -20 -29 -20 -39 0 -22 -19 -59 -36 -69 -8 -4 -14 -16 -14 -26 0 -10 -9 -30 -20 -44 -11 -14 -20 -30 -20 -36 0 -6 -34 -43 -76 -83 -75 -72 -161 -128 -198 -128 -10 0 -33 -9 -51 -20 -19 -11 -62 -25 -97 -29 -34 -5 -90 -17 -123 -27 l-60 -19 -295 0 -296 0 -29 19 c-17 11 -54 23 -84 27 -32 5 -62 16 -75 28 -12 12 -28 21 -35 21 -27 0 -127 55 -170 94 -93 84 -171 163 -171 173 0 6 -7 13 -15 17 -17 6 -75 93 -75 111 0 7 -18 31 -39 54 -22 23 -44 57 -51 74 -6 18 -16 39 -21 47 -25 40 -69 144 -75 177 -3 21 -15 47 -26 59 -11 12 -21 43 -25 75 -3 30 -12 62 -21 71 -9 11 -19 54 -24 105 -5 49 -14 102 -19 119 -5 18 -14 104 -19 193 -10 167 0 454 19 515 5 17 14 70 19 119 6 53 15 94 25 105 8 9 18 43 22 74 5 36 14 63 26 74 10 9 19 29 19 44 0 15 8 38 18 51 11 13 22 42 25 63 3 21 15 49 27 61 11 12 20 25 20 31 0 5 11 22 25 38 14 16 25 35 25 42 0 6 11 22 25 35 13 13 25 28 25 33 0 11 71 100 139 174 18 20 40 47 48 59 9 13 42 37 74 55 32 18 59 36 59 40 0 11 90 68 149 94 30 13 72 27 95 30 23 4 51 15 62 26 15 13 42 21 95 25 41 3 81 12 90 20 11 9 56 15 145 19 101 5 144 2 199 -11 39 -9 103 -20 144 -25 46 -5 84 -16 100 -28 14 -10 43 -22 65 -25 21 -3 46 -13 55 -21 9 -8 29 -18 44 -21 16 -4 34 -16 40 -26 7 -11 20 -19 29 -19 10 0 31 -13 48 -30 17 -16 35 -30 40 -30 21 0 129 -120 154 -172 16 -31 34 -62 42 -69 8 -6 17 -29 20 -50 4 -21 15 -46 25 -55 11 -9 19 -21 19 -27 0 -16 52 -131 68 -149 8 -10 20 -18 27 -18 6 0 52 39 101 88 49 48 128 122 174 165 138 129 170 160 170 168 0 14 -74 83 -134 124 -31 22 -76 57 -99 78 -23 21 -59 43 -80 49 -21 6 -43 20 -48 30 -5 10 -15 18 -21 18 -6 0 -26 11 -44 25 -18 14 -39 25 -46 25 -7 0 -27 9 -44 19 -17 10 -46 22 -65 26 -19 4 -43 15 -54 25 -11 10 -42 21 -70 25 -27 4 -59 15 -70 25 -13 11 -44 20 -88 24 -38 4 -85 13 -105 21 -78 29 -540 43 -807 24z" fill="#1A1A1A" transform="translate(0.000000,604.000000) scale(0.100000,-0.100000)"/>
<path d="M1505 3736 c-55 -6 -113 -18 -130 -27 -16 -9 -48 -20 -70 -24 -21 -3 -51 -13 -65 -20 -14 -7 -43 -16 -63 -20 -21 -4 -42 -16 -47 -26 -6 -10 -27 -21 -48 -25 -20 -4 -43 -15 -50 -25 -7 -10 -28 -21 -47 -25 -19 -3 -35 -10 -35 -15 0 -5 -12 -15 -27 -21 -16 -7 -42 -23 -59 -35 -17 -13 -36 -23 -41 -23 -6 0 -13 -7 -17 -15 -3 -8 -29 -30 -58 -49 -71 -46 -333 -319 -366 -382 -7 -13 -17 -24 -21 -24 -5 0 -14 -13 -19 -30 -6 -16 -20 -37 -31 -47 -12 -9 -21 -24 -21 -31 0 -8 -10 -28 -22 -45 -30 -42 -64 -116 -73 -158 -4 -19 -15 -43 -24 -54 -10 -11 -23 -46 -30 -77 -7 -31 -18 -61 -25 -67 -8 -6 -17 -39 -20 -73 -4 -33 -13 -77 -21 -97 -14 -37 -35 -266 -35 -378 l0 -62 -20 -6 -20 -6 0 -45 0 -44 20 0 20 0 1 -72 c1 -105 25 -314 43 -378 9 -30 16 -63 16 -73 0 -10 9 -30 19 -44 11 -13 23 -44 27 -69 4 -28 13 -48 24 -54 11 -6 21 -27 25 -49 4 -22 13 -45 20 -51 8 -6 17 -25 21 -43 3 -17 17 -39 30 -50 13 -10 24 -25 24 -33 0 -8 6 -17 14 -20 8 -3 20 -18 26 -34 7 -16 23 -36 36 -45 13 -8 24 -21 24 -29 0 -7 21 -33 47 -57 75 -71 96 -93 124 -124 33 -38 66 -65 79 -65 5 0 17 -11 25 -24 9 -13 29 -29 45 -36 16 -6 31 -18 34 -26 3 -8 12 -14 20 -14 8 0 23 -11 33 -24 11 -13 33 -27 50 -30 18 -4 37 -14 43 -21 7 -8 27 -17 45 -21 19 -3 41 -14 50 -24 10 -11 30 -22 45 -25 15 -3 36 -15 46 -26 9 -10 29 -19 43 -19 14 -1 44 -8 66 -16 22 -9 67 -22 100 -29 33 -7 74 -19 90 -28 17 -8 77 -21 134 -27 58 -6 114 -18 125 -26 l20 -14 271 0 270 0 30 20 c16 10 54 22 85 26 30 4 65 15 78 25 13 10 37 21 55 25 29 6 93 34 127 55 8 5 31 17 50 27 19 9 41 25 48 34 7 9 37 31 67 48 33 19 109 85 186 163 158 160 160 162 189 212 13 22 34 51 47 65 33 35 73 98 73 115 0 8 -7 15 -15 15 -8 0 -15 -4 -15 -9 0 -5 -26 -30 -57 -55 -32 -26 -76 -61 -97 -79 -21 -18 -44 -35 -51 -39 -7 -4 -27 -21 -46 -39 -18 -17 -50 -39 -71 -50 -21 -11 -38 -24 -38 -30 0 -5 -15 -16 -34 -24 -18 -8 -36 -21 -39 -29 -3 -8 -20 -17 -37 -21 -17 -4 -61 -27 -97 -51 -39 -26 -77 -44 -94 -44 -15 0 -32 -6 -36 -14 -11 -18 -47 -36 -73 -36 -12 0 -33 -9 -46 -19 -15 -11 -49 -22 -82 -26 -31 -4 -77 -14 -102 -23 l-45 -17 -245 0 c-176 0 -251 4 -267 13 -12 7 -57 19 -99 27 -42 8 -84 21 -93 29 -9 7 -31 17 -49 21 -18 4 -38 15 -45 26 -6 10 -20 19 -30 19 -10 0 -28 10 -40 23 -12 12 -34 28 -49 35 -16 6 -28 16 -28 22 0 5 -7 10 -15 10 -8 0 -28 12 -45 27 -16 16 -55 51 -86 78 -31 28 -67 67 -80 88 -14 21 -43 55 -64 76 -22 21 -40 44 -40 50 0 6 -7 14 -15 18 -9 3 -23 20 -31 37 -25 51 -48 91 -72 121 -12 15 -22 37 -22 49 0 12 -9 27 -19 33 -11 7 -22 27 -26 45 -4 18 -16 49 -26 68 -11 19 -19 47 -19 61 0 14 -9 38 -20 52 -12 15 -23 48 -27 79 -3 29 -12 63 -19 75 -44 71 -45 715 -1 785 8 13 17 58 20 101 4 51 12 88 25 110 11 17 23 56 26 86 4 29 13 63 20 75 8 11 17 37 20 57 4 20 15 47 26 59 11 13 20 32 20 42 0 10 11 29 23 41 13 12 27 34 31 49 11 46 83 144 173 238 35 35 63 68 63 72 0 4 29 23 65 43 36 20 65 41 65 46 0 5 12 15 28 22 15 6 42 22 61 34 19 13 40 23 48 23 8 0 27 9 42 19 14 11 52 24 84 30 31 6 67 16 79 22 13 7 68 14 123 17 61 3 108 10 120 18 26 19 190 19 247 0 24 -8 90 -16 148 -19 58 -3 123 -12 145 -20 22 -9 63 -18 90 -22 28 -4 66 -15 85 -25 19 -10 54 -23 76 -29 23 -6 45 -18 48 -26 3 -9 18 -15 36 -15 20 0 39 -9 53 -24 12 -12 38 -26 58 -30 21 -3 42 -13 49 -21 7 -8 21 -15 32 -15 10 0 30 -11 44 -25 14 -14 30 -25 37 -25 7 0 38 -20 69 -45 32 -25 61 -45 65 -45 8 0 37 -26 96 -87 22 -24 46 -43 53 -43 8 0 18 -9 24 -21 7 -11 14 -18 17 -15 4 3 -1 14 -10 23 -8 10 -19 32 -23 48 -3 17 -12 37 -19 45 -7 8 -27 49 -46 90 -18 41 -43 88 -56 103 -13 16 -23 36 -23 46 0 10 -9 26 -20 36 -11 10 -20 25 -20 34 0 9 -11 37 -25 63 -14 26 -25 53 -25 61 0 8 -9 22 -19 31 -11 10 -23 31 -26 46 -3 15 -15 36 -25 45 -10 9 -22 31 -26 49 -4 17 -15 42 -25 55 -11 13 -19 34 -19 46 0 14 -9 26 -25 33 -34 16 -1137 14 -1280 -2z" fill="#1A1A1A" transform="translate(0.000000,604.000000) scale(0.100000,-0.100000)"/>
<path d="M21045 3731 c-33 -3 -71 -13 -85 -23 -14 -9 -49 -19 -79 -23 -30 -4 -72 -16 -95 -26 -23 -10 -49 -19 -60 -19 -10 0 -31 -11 -48 -25 -16 -14 -35 -25 -43 -25 -32 0 -197 -164 -229 -228 -13 -26 -27 -65 -30 -87 -4 -22 -16 -54 -27 -71 l-19 -31 0 -1282 c0 -859 3 -1281 10 -1281 6 0 84 75 175 166 l165 165 0 417 c0 229 3 427 6 438 3 12 15 27 27 33 67 35 149 91 160 108 4 7 29 24 55 37 26 13 78 49 115 80 38 31 75 56 82 56 8 0 18 6 22 14 15 27 85 67 112 64 l26 -3 6 -635 c3 -349 10 -650 14 -669 4 -19 18 -50 31 -69 13 -19 24 -38 24 -42 0 -5 28 -36 63 -70 l62 -62 112 7 112 6 76 76 c83 84 94 108 43 98 -18 -3 -43 -11 -55 -17 -28 -14 -78 7 -92 40 -6 12 -11 51 -11 86 0 39 -5 69 -15 82 l-14 19 -1 715 c-1 393 -5 734 -9 758 -5 24 -19 54 -31 68 l-23 24 -79 0 c-59 0 -87 -5 -115 -20 -21 -11 -43 -20 -50 -20 -6 0 -29 -18 -51 -39 -21 -21 -58 -51 -82 -66 -51 -32 -341 -323 -390 -391 -40 -56 -79 -93 -98 -94 -31 0 -34 56 -30 687 l3 631 23 31 c12 16 22 39 22 50 0 11 10 28 23 38 13 10 26 26 30 36 4 9 15 20 24 24 10 4 24 14 30 24 7 9 36 33 65 53 97 66 103 71 120 91 9 12 42 33 73 49 55 27 68 50 29 52 -10 0 -46 -2 -79 -5z" fill="#1A1A1A" transform="translate(0.000000,604.000000) scale(0.100000,-0.100000)"/>
<path d="M6910 3323 c0 -10 11 -40 25 -68 13 -27 25 -59 25 -69 0 -21 95 -116 116 -116 16 0 20 7 28 50 l6 35 -27 29 -26 29 -12 -17 c-7 -9 -22 -16 -34 -16 l-21 0 0 45 c0 34 -4 45 -15 45 -23 0 -31 31 -12 42 28 15 19 28 -18 28 -27 0 -35 -4 -35 -17z" fill="#1A1A1A" transform="translate(0.000000,604.000000) scale(0.100000,-0.100000)"/>
<path d="M7654 3326 c-3 -8 -23 -27 -45 -41 -21 -15 -46 -41 -54 -58 l-15 -30 15 -17 c8 -9 15 -31 15 -48 0 -36 14 -42 30 -12 7 13 21 20 40 20 41 0 54 29 54 123 l1 77 -18 0 c-10 0 -20 -6 -23 -14z" fill="#1A1A1A" transform="translate(0.000000,604.000000) scale(0.100000,-0.100000)"/>
<path d="M8447 3333 c-4 -3 -7 -17 -7 -30 0 -26 -21 -31 -40 -8 -21 25 -50 17 -91 -24 l-39 -39 0 -42 c0 -27 7 -51 20 -67 11 -14 20 -36 20 -48 0 -24 24 -40 42 -29 10 6 8 24 -8 111 -8 39 23 73 66 73 19 0 30 5 30 14 0 8 9 21 20 29 10 7 24 25 29 40 l11 27 -24 0 c-12 0 -26 -3 -29 -7z" fill="#1A1A1A" transform="translate(0.000000,604.000000) scale(0.100000,-0.100000)"/>
<path d="M7477 3163 c-12 -11 -8 -23 8 -23 8 0 15 7 15 15 0 16 -12 20 -23 8z" fill="#1A1A1A" transform="translate(0.000000,604.000000) scale(0.100000,-0.100000)"/>
<path d="M7380 3104 c0 -11 8 -14 32 -12 46 4 49 28 4 28 -26 0 -36 -4 -36 -16z" fill="#1A1A1A" transform="translate(0.000000,604.000000) scale(0.100000,-0.100000)"/>
<path d="M7260 3070 l-25 -20 40 2 c29 2 41 8 43 21 5 23 -26 22 -58 -3z" fill="#1A1A1A" transform="translate(0.000000,604.000000) scale(0.100000,-0.100000)"/>
<path d="M7110 3062 c0 -16 28 -34 47 -30 31 6 21 33 -14 36 -18 2 -33 -1 -33 -6z" fill="#1A1A1A" transform="translate(0.000000,604.000000) scale(0.100000,-0.100000)"/>
<path d="M7660 3011 c0 -17 5 -33 11 -36 15 -10 17 -4 12 33 -6 40 -23 42 -23 3z" fill="#1A1A1A" transform="translate(0.000000,604.000000) scale(0.100000,-0.100000)"/>
<path d="M8270 3015 c0 -8 7 -15 15 -15 8 0 15 7 15 15 0 8 -7 15 -15 15 -8 0 -15 -7 -15 -15z" fill="#1A1A1A" transform="translate(0.000000,604.000000) scale(0.100000,-0.100000)"/>
<path d="M8274 2925 l-19 -15 18 -14 c9 -7 17 -18 17 -23 0 -13 -45 -33 -76 -33 -14 0 -37 -9 -51 -20 -14 -11 -36 -20 -49 -20 -14 0 -30 -10 -40 -25 -9 -14 -23 -25 -30 -25 -8 0 -14 -6 -14 -14 0 -33 -45 -29 -55 4 -6 20 -36 31 -65 23 -23 -6 -42 -61 -27 -80 6 -8 35 -13 77 -13 l69 0 20 26 c12 15 21 33 21 40 0 19 36 18 44 -1 8 -22 37 -18 65 9 15 14 47 35 73 48 56 28 87 65 95 113 l6 35 -30 0 c-16 0 -38 -7 -49 -15z" fill="#1A1A1A" transform="translate(0.000000,604.000000) scale(0.100000,-0.100000)"/>
<path d="M7710 2876 c0 -17 14 -29 23 -20 8 8 -3 34 -14 34 -5 0 -9 -6 -9 -14z" fill="#1A1A1A" transform="translate(0.000000,604.000000) scale(0.100000,-0.100000)"/>
<path d="M20042 2823 c-10 -17 -78 -41 -144 -50 l-38 -5 0 -89 0 -89 -512 0 -513 0 -27 -34 c-16 -19 -28 -44 -28 -55 0 -16 6 -21 28 -21 16 0 37 9 47 20 l19 21 105 -3 105 -3 13 -25 c10 -20 13 -203 13 -837 0 -572 3 -814 11 -819 6 -3 19 -25 29 -48 10 -22 38 -62 63 -87 l45 -46 55 -7 c85 -11 172 2 202 30 15 13 31 24 37 24 14 0 25 9 129 111 47 46 98 103 112 127 15 23 32 42 37 42 6 0 10 6 10 14 0 8 10 27 23 43 31 40 62 102 53 110 -4 4 -9 -2 -12 -14 -4 -15 -17 -22 -46 -27 -22 -4 -52 -16 -66 -26 -13 -11 -35 -20 -47 -20 -12 0 -30 -9 -40 -20 -21 -23 -88 -35 -135 -23 -25 6 -40 18 -52 42 -9 18 -23 40 -32 50 l-16 18 2 686 c2 377 6 689 11 693 4 4 69 12 145 17 107 7 141 13 157 27 11 10 37 21 57 24 36 7 92 48 150 111 29 32 78 121 78 143 0 17 -17 15 -28 -5z" fill="#1A1A1A" transform="translate(0.000000,604.000000) scale(0.100000,-0.100000)"/>
<path d="M7750 2777 c0 -15 58 -77 71 -77 5 0 9 11 9 25 0 18 -5 25 -20 25 -10 0 -24 9 -30 20 -12 23 -30 27 -30 7z" fill="#1A1A1A" transform="translate(0.000000,604.000000) scale(0.100000,-0.100000)"/>
<path d="M28743 2660 c-34 -9 -70 -22 -80 -31 -10 -8 -38 -28 -63 -44 -61 -40 -133 -116 -186 -197 -24 -36 -47 -68 -51 -70 -5 -1 -20 -30 -35 -63 -31 -69 -49 -85 -72 -66 l-16 13 0 152 c0 112 -4 157 -14 171 -7 11 -17 31 -21 45 -4 14 -16 37 -27 53 l-19 27 -65 0 -64 0 -59 -45 c-62 -48 -79 -66 -120 -134 -14 -23 -33 -43 -43 -47 -10 -3 -18 -13 -18 -23 0 -10 -11 -35 -25 -55 -14 -20 -25 -40 -25 -44 0 -4 -8 -23 -19 -42 -10 -19 -22 -46 -26 -60 -4 -14 -14 -33 -23 -43 -19 -21 -42 -84 -34 -92 10 -10 20 -4 63 38 60 58 117 91 148 85 l16 -3 5 -765 5 -765 17 -3 c10 -2 33 8 51 22 19 14 38 26 44 26 5 0 18 9 27 19 10 11 32 23 50 27 17 4 42 15 55 25 13 11 28 19 34 19 5 0 26 14 46 32 l36 32 5 544 5 544 21 17 c12 9 25 28 29 42 4 13 25 53 46 88 22 34 39 67 39 71 0 5 10 17 23 27 12 10 31 36 42 58 21 43 149 177 179 188 25 10 93 -10 100 -28 3 -8 12 -15 20 -15 16 0 176 -151 176 -166 0 -6 18 -28 39 -51 22 -23 44 -56 49 -75 13 -51 36 -42 44 17 10 81 9 291 -3 367 l-11 72 -37 44 c-20 24 -47 48 -61 54 -50 20 -133 23 -197 8z" fill="#1A1A1A" transform="translate(0.000000,604.000000) scale(0.100000,-0.100000)"/>
<path d="M6809 2656 c-20 -6 -42 -16 -50 -22 -8 -7 -30 -19 -49 -27 -34 -14 -130 -100 -130 -115 0 -4 -20 -24 -44 -44 -31 -26 -46 -47 -50 -72 -4 -20 -14 -39 -22 -44 -17 -10 -57 -70 -75 -114 -12 -31 -43 -38 -53 -12 -3 9 -6 67 -6 130 l0 113 -25 76 c-16 49 -34 84 -52 100 l-28 24 -62 1 -62 0 -68 -67 c-85 -84 -141 -153 -165 -201 -49 -97 -68 -131 -77 -137 -6 -3 -11 -14 -11 -24 0 -10 -10 -31 -22 -47 -24 -29 -51 -95 -43 -103 9 -9 70 28 117 72 35 32 75 44 97 30 l16 -10 3 -757 2 -756 21 0 c12 0 34 11 51 25 16 14 37 25 46 25 10 0 22 8 29 19 6 10 24 21 38 25 15 4 39 15 54 24 35 24 59 38 104 62 l37 20 0 544 0 543 19 25 c11 13 23 37 27 52 3 15 15 33 25 39 11 7 19 17 19 23 0 6 21 42 46 79 25 38 52 80 59 94 22 41 149 169 179 181 34 12 69 4 92 -21 9 -10 23 -19 30 -19 7 0 19 -8 26 -17 7 -10 30 -30 50 -44 38 -25 83 -79 94 -111 4 -10 10 -18 15 -18 18 0 78 -76 84 -107 7 -40 22 -43 32 -5 10 37 10 344 0 413 l-8 56 -46 47 c-26 26 -62 50 -82 56 -46 13 -136 11 -182 -4z" fill="#1A1A1A" transform="translate(0.000000,604.000000) scale(0.100000,-0.100000)"/>
<path d="M15668 2609 c-27 -15 -218 -209 -218 -221 0 -6 19 -32 43 -59 75 -85 97 -113 97 -127 0 -7 10 -26 22 -43 l23 -30 -1 -75 -1 -74 -21 -23 c-12 -13 -22 -31 -22 -41 0 -22 -19 -59 -35 -68 -7 -4 -16 -23 -19 -42 -4 -19 -13 -39 -21 -46 -8 -7 -15 -21 -15 -32 0 -10 -11 -30 -24 -43 -13 -13 -27 -40 -30 -59 -4 -20 -16 -42 -26 -49 -11 -6 -20 -22 -20 -35 0 -13 -11 -34 -24 -47 -13 -13 -26 -38 -30 -57 -4 -18 -20 -49 -36 -68 l-29 -35 -18 11 c-10 6 -19 26 -21 45 -2 19 -10 39 -18 45 -16 13 -50 103 -68 182 -6 29 -17 56 -22 60 -17 11 -34 48 -34 72 0 12 -9 35 -20 50 -11 16 -23 43 -27 62 -3 18 -14 49 -25 68 -10 19 -18 44 -18 56 0 12 -9 33 -20 46 -10 14 -22 44 -26 66 -3 23 -15 49 -25 58 -11 9 -19 24 -19 32 0 25 -54 126 -77 145 -13 10 -23 24 -23 31 0 6 -8 19 -17 27 -10 9 -31 34 -48 55 -41 53 -106 113 -130 120 -11 4 -31 15 -44 25 -13 11 -33 19 -45 19 -34 0 -83 -36 -113 -82 -15 -24 -41 -54 -58 -68 -16 -14 -43 -40 -60 -59 -16 -19 -40 -45 -52 -58 -13 -13 -23 -28 -23 -32 0 -4 17 -15 38 -24 20 -9 44 -20 52 -26 8 -5 26 -14 40 -20 43 -20 176 -153 210 -211 18 -30 42 -64 52 -76 10 -12 21 -39 25 -60 3 -21 14 -48 24 -59 9 -11 21 -37 24 -58 4 -20 16 -54 26 -74 11 -21 19 -51 19 -69 0 -18 8 -38 20 -49 11 -10 23 -34 26 -54 4 -20 15 -46 25 -59 9 -12 20 -42 24 -65 4 -23 15 -51 25 -62 10 -11 21 -40 25 -65 4 -25 16 -61 26 -80 11 -19 19 -46 19 -61 0 -14 9 -34 20 -44 11 -10 22 -37 26 -64 3 -25 14 -55 24 -66 10 -11 21 -39 25 -62 3 -23 15 -59 26 -80 10 -20 19 -46 19 -58 1 -27 54 -90 68 -81 7 4 12 14 12 23 0 8 9 32 20 52 10 20 26 52 35 71 28 61 46 91 61 97 7 3 19 24 25 47 6 22 17 48 24 56 7 8 16 30 20 48 4 18 15 37 26 42 10 6 19 20 19 31 0 25 18 61 36 72 7 4 15 21 19 38 4 16 15 35 26 42 10 6 19 21 19 33 0 12 9 32 19 46 11 13 22 41 26 61 4 21 15 42 25 47 10 5 21 25 24 45 4 19 16 41 26 48 11 6 20 19 20 27 0 8 12 38 25 65 14 28 25 55 25 61 0 6 9 19 20 29 11 10 20 27 20 37 0 25 44 68 69 68 23 0 41 -27 41 -63 0 -13 9 -32 20 -42 11 -10 22 -37 26 -64 3 -25 14 -55 24 -66 10 -11 21 -36 25 -55 4 -19 13 -45 21 -57 8 -13 17 -44 20 -70 4 -27 12 -52 19 -58 16 -14 35 -50 35 -70 0 -9 9 -28 20 -43 11 -15 23 -46 27 -67 3 -22 14 -49 23 -60 10 -11 21 -36 25 -55 4 -19 13 -46 20 -60 7 -14 16 -44 20 -65 4 -22 16 -50 27 -62 11 -11 22 -41 25 -65 3 -23 14 -52 23 -63 10 -11 23 -39 29 -62 7 -24 16 -43 22 -43 22 0 49 22 49 40 0 10 10 31 23 47 31 39 44 61 67 111 11 23 26 45 34 48 7 3 16 17 19 32 3 15 15 38 26 51 12 13 21 29 21 36 0 7 9 20 19 29 11 10 23 31 26 48 4 16 15 34 26 41 10 6 19 19 19 29 0 9 11 30 25 46 14 17 25 34 25 39 0 5 11 19 25 31 14 12 25 28 25 36 0 7 8 24 18 37 11 13 22 36 26 52 3 15 27 54 51 86 25 33 45 63 45 69 0 5 9 20 19 34 11 13 23 36 26 51 4 14 15 33 26 43 10 9 19 22 19 27 0 6 11 25 25 43 14 18 25 37 25 42 0 5 9 17 19 26 11 10 23 37 26 59 4 23 16 56 26 73 l19 31 0 104 c0 74 -4 110 -14 125 -8 11 -20 49 -26 84 -14 75 -35 111 -117 198 l-59 62 -109 0 -110 0 -97 -99 c-54 -55 -98 -106 -98 -115 0 -8 16 -28 37 -43 64 -49 190 -177 197 -200 4 -13 11 -23 16 -23 5 0 16 -23 24 -51 9 -28 21 -58 28 -67 9 -10 14 -60 17 -145 l3 -129 -20 -27 c-11 -15 -23 -41 -26 -58 -4 -17 -16 -39 -27 -49 -10 -9 -19 -23 -19 -30 0 -7 -11 -26 -25 -42 -14 -17 -25 -37 -25 -46 0 -8 -11 -23 -25 -32 -15 -10 -25 -26 -25 -40 0 -13 -9 -31 -19 -41 -11 -10 -22 -35 -26 -56 -5 -27 -15 -42 -36 -52 -15 -8 -35 -15 -44 -15 -17 0 -35 38 -35 74 0 13 -7 29 -15 36 -8 7 -17 28 -21 49 -4 20 -14 45 -24 56 -10 11 -21 36 -25 55 -4 19 -16 47 -26 61 -10 14 -21 45 -25 67 -4 23 -13 47 -20 53 -7 6 -16 27 -20 48 -4 20 -15 47 -26 60 -10 13 -21 41 -24 62 -4 21 -15 46 -25 55 -11 9 -19 24 -19 33 0 9 -9 35 -20 56 -12 22 -23 59 -27 83 -3 23 -14 52 -25 64 -10 12 -21 33 -24 47 -3 14 -10 33 -15 41 -5 8 -19 34 -30 58 -11 23 -24 42 -28 42 -5 0 -21 25 -36 55 -15 31 -40 65 -56 77 -16 12 -29 25 -29 30 0 11 -80 87 -115 109 -34 21 -43 23 -67 8z" fill="#1A1A1A" transform="translate(0.000000,604.000000) scale(0.100000,-0.100000)"/>
<path d="M4490 2579 c-19 -10 -49 -19 -65 -19 -17 0 -46 -11 -65 -25 -19 -14 -44 -25 -55 -25 -12 0 -30 -9 -40 -20 -10 -11 -22 -20 -27 -20 -25 0 -145 -68 -176 -99 -20 -20 -53 -47 -73 -61 -38 -26 -114 -113 -143 -165 -35 -63 -57 -98 -71 -112 -8 -8 -15 -23 -15 -32 0 -10 -8 -29 -19 -42 -10 -13 -22 -43 -26 -66 -3 -23 -15 -53 -25 -65 -9 -13 -21 -42 -25 -65 -3 -23 -15 -53 -26 -67 -10 -13 -19 -38 -19 -56 0 -17 -9 -76 -21 -130 -16 -78 -19 -128 -17 -227 3 -124 29 -286 51 -328 6 -11 18 -34 27 -51 9 -17 26 -44 38 -59 12 -15 22 -33 22 -39 0 -7 14 -23 31 -36 17 -14 39 -33 50 -43 12 -10 44 -25 72 -34 29 -8 59 -21 68 -29 25 -22 166 -19 221 6 24 10 64 22 88 26 25 4 54 14 65 24 11 9 42 27 69 40 28 13 73 44 101 69 29 25 65 58 81 72 48 42 107 120 119 158 3 12 15 26 26 31 10 6 19 17 19 25 0 8 18 34 40 57 30 32 42 40 51 31 8 -8 14 -67 17 -160 l5 -148 17 -22 c10 -13 21 -40 25 -60 4 -21 18 -48 31 -62 13 -13 24 -27 24 -32 0 -4 20 -21 46 -38 l45 -31 58 0 c45 0 62 4 75 19 10 11 32 23 50 27 17 4 41 16 52 28 12 11 43 34 70 51 27 16 58 41 69 55 11 14 41 46 68 71 26 26 47 54 47 63 0 18 -15 22 -25 6 -3 -5 -13 -10 -21 -10 -8 0 -27 -9 -43 -21 -49 -36 -181 -36 -181 1 0 5 -11 20 -25 34 l-25 25 0 801 0 800 -337 -1 -338 0 -35 -20z m321 -249 l19 -11 0 -325 0 -325 -15 -36 c-8 -19 -15 -48 -15 -63 0 -38 -19 -87 -36 -94 -8 -3 -14 -15 -14 -26 0 -26 -18 -62 -36 -73 -7 -4 -15 -20 -19 -36 -3 -16 -13 -35 -21 -42 -8 -6 -14 -16 -14 -21 0 -15 -191 -207 -212 -214 -10 -3 -30 -16 -43 -30 -13 -13 -33 -24 -43 -24 -10 0 -27 -9 -37 -20 -25 -28 -103 -28 -138 0 -14 11 -31 20 -37 20 -21 0 -70 41 -120 102 -37 43 -50 67 -50 91 0 18 -8 52 -17 77 -12 33 -17 95 -21 236 l-5 192 21 43 c11 24 23 60 27 80 3 21 14 48 25 62 11 14 20 30 20 36 0 26 81 133 160 214 89 89 133 125 185 153 17 8 41 22 55 29 19 11 66 15 193 15 97 0 176 -4 188 -10z" fill="#1A1A1A" transform="translate(0.000000,604.000000) scale(0.100000,-0.100000)"/>
<path d="M7757 2576 c-69 -31 -142 -107 -156 -161 -6 -24 -11 -51 -11 -59 0 -22 27 -20 57 4 44 34 77 26 133 -31 28 -28 52 -61 55 -73 3 -11 6 -352 7 -756 l3 -735 25 -35 c33 -48 64 -71 130 -97 75 -31 207 -32 265 -3 22 11 45 20 51 20 6 0 19 11 28 25 9 14 21 25 26 25 20 0 110 106 116 137 3 17 15 39 25 49 24 21 27 104 5 104 -8 0 -19 -12 -24 -28 -6 -15 -21 -40 -35 -56 l-24 -29 -56 -5 c-67 -5 -96 1 -126 27 -13 11 -28 22 -34 24 -9 3 -13 195 -15 745 l-2 742 -20 33 c-11 17 -20 37 -20 44 0 13 -43 58 -88 91 l-31 22 -118 -1 -118 -1 -48 -22z" fill="#1A1A1A" transform="translate(0.000000,604.000000) scale(0.100000,-0.100000)"/>
<path d="M9170 2575 c-46 -25 -100 -73 -100 -89 0 -9 -44 -65 -80 -102 -11 -12 -20 -27 -20 -34 0 -6 -8 -24 -19 -38 -10 -15 -24 -44 -30 -64 -7 -20 -19 -42 -27 -48 -7 -7 -14 -18 -14 -25 0 -7 -11 -29 -25 -49 -27 -39 -32 -66 -14 -66 6 0 20 11 31 25 11 14 26 25 33 25 8 0 19 8 24 19 6 10 22 22 37 25 15 4 33 14 41 21 20 21 40 19 53 -4 7 -13 10 -272 10 -770 l0 -751 25 0 c14 0 34 11 47 25 12 14 28 25 36 25 8 0 27 11 44 25 16 14 35 25 43 25 7 0 18 7 25 15 7 8 28 17 48 21 19 4 46 19 58 33 l23 26 2 455 c0 250 4 466 8 480 4 16 28 37 69 60 34 20 68 43 75 51 13 17 109 84 159 111 17 9 34 21 37 26 3 5 20 17 38 26 18 9 37 25 43 36 6 11 17 20 24 20 8 0 20 7 27 17 23 26 111 64 125 52 9 -7 13 -166 16 -652 l3 -642 21 -30 c12 -16 25 -45 29 -63 4 -18 17 -43 28 -55 12 -12 33 -36 47 -54 l25 -32 78 -10 c93 -13 156 -2 199 34 16 14 33 25 38 25 15 0 100 89 100 105 l0 17 -42 -6 c-78 -11 -112 9 -148 92 -6 15 -10 308 -10 836 l0 812 -30 22 -29 22 -92 0 -91 0 -25 -20 c-14 -11 -31 -20 -37 -20 -6 0 -19 -8 -28 -17 -25 -27 -142 -123 -150 -123 -8 0 -208 -202 -208 -210 0 -4 -19 -25 -42 -48 -24 -23 -59 -62 -78 -89 -45 -61 -135 -153 -149 -153 -25 0 -31 62 -31 344 l0 293 -23 21 -23 22 -80 -1 -79 0 -45 -24z" fill="#1A1A1A" transform="translate(0.000000,604.000000) scale(0.100000,-0.100000)"/>
<path d="M11630 2586 c-14 -8 -44 -17 -68 -21 -24 -4 -46 -13 -48 -20 -3 -7 -22 -21 -42 -29 -43 -19 -124 -76 -179 -127 -52 -47 -163 -169 -163 -178 0 -4 -11 -18 -24 -31 -14 -12 -28 -35 -31 -51 -4 -15 -12 -33 -20 -39 -7 -6 -16 -27 -20 -48 -4 -20 -15 -46 -24 -57 -10 -11 -21 -42 -25 -70 -3 -27 -14 -61 -24 -75 -30 -40 -48 -326 -32 -490 7 -75 17 -131 25 -140 7 -8 19 -37 26 -65 6 -27 17 -55 24 -60 7 -6 22 -29 34 -53 12 -23 32 -54 43 -68 26 -29 94 -68 134 -78 16 -3 55 -16 87 -29 68 -26 82 -50 44 -82 -13 -12 -49 -57 -78 -99 -29 -43 -60 -81 -70 -86 -9 -5 -19 -21 -23 -34 -3 -14 -26 -45 -50 -70 l-43 -45 -6 -58 c-3 -32 -13 -78 -22 -102 -10 -30 -15 -81 -15 -162 l0 -119 94 0 94 0 5 48 c15 157 30 239 48 264 10 15 19 40 19 56 0 39 18 89 34 95 8 3 16 21 20 40 4 19 24 54 49 81 23 26 62 72 87 102 68 83 339 349 420 412 44 34 100 92 100 104 0 5 19 8 43 6 l42 -3 3 -603 2 -602 183 2 182 3 0 1295 0 1295 -405 2 -405 2 -25 -13z m448 -212 l22 -15 0 -325 c0 -255 -3 -331 -14 -352 -7 -15 -16 -55 -19 -90 -3 -35 -13 -75 -23 -90 -10 -15 -29 -47 -42 -72 -25 -48 -116 -140 -139 -140 -7 0 -16 -7 -19 -15 -12 -30 -145 -50 -237 -35 -33 5 -71 19 -88 32 -62 48 -117 104 -124 128 -4 14 -16 36 -26 49 -11 13 -19 32 -19 43 0 10 -10 32 -22 49 l-23 31 0 181 0 182 23 36 c12 20 22 45 22 55 0 22 46 114 64 129 7 6 36 37 66 70 55 61 72 74 180 143 l35 22 180 0 181 0 22 -16z" fill="#1A1A1A" transform="translate(0.000000,604.000000) scale(0.100000,-0.100000)"/>
<path d="M30305 2587 c-11 -8 -42 -18 -70 -22 -27 -4 -60 -15 -73 -25 -13 -11 -43 -22 -68 -26 -28 -4 -48 -13 -54 -24 -5 -10 -24 -22 -42 -25 -18 -4 -44 -16 -57 -26 -13 -11 -30 -19 -38 -19 -7 0 -16 -7 -20 -15 -3 -9 -18 -22 -34 -30 -15 -8 -39 -25 -52 -38 -13 -12 -43 -39 -65 -59 -23 -21 -51 -56 -62 -78 -11 -22 -25 -40 -31 -40 -5 0 -15 -14 -21 -30 -5 -17 -18 -35 -28 -40 -10 -5 -21 -25 -24 -44 -4 -19 -13 -39 -20 -45 -8 -7 -17 -27 -20 -45 -4 -18 -15 -43 -25 -55 -10 -12 -22 -40 -25 -63 -4 -24 -15 -52 -25 -63 -10 -11 -21 -41 -25 -68 -3 -26 -12 -60 -20 -75 -36 -71 -38 -550 -2 -619 8 -16 17 -50 21 -76 4 -26 11 -47 16 -47 4 0 24 -25 44 -55 20 -30 49 -65 65 -77 59 -48 74 -58 87 -58 7 0 38 -11 69 -25 73 -32 180 -35 238 -5 21 10 58 22 82 26 23 3 51 15 60 25 9 10 22 19 28 19 28 0 146 68 167 98 13 17 43 47 67 66 45 36 72 70 121 153 17 29 40 57 51 63 11 6 20 20 20 31 0 29 18 59 36 59 18 0 34 -40 34 -83 0 -17 4 -56 10 -86 5 -31 15 -96 22 -145 7 -54 18 -95 28 -105 9 -9 27 -33 40 -53 14 -21 28 -38 31 -38 4 0 17 -11 30 -25 l24 -25 63 0 c47 0 71 5 90 19 15 10 38 22 52 26 14 4 38 18 53 31 16 13 32 24 36 24 4 0 51 43 105 96 99 98 116 132 59 118 -16 -4 -36 -15 -45 -24 -21 -22 -84 -34 -132 -25 -36 7 -66 36 -66 64 0 8 -8 23 -17 34 l-18 19 -5 782 -5 781 -320 3 -320 2 -20 -13z m295 -261 c9 -11 11 -106 8 -378 -4 -357 -5 -377 -37 -428 -6 -8 -12 -28 -16 -43 -3 -15 -14 -35 -25 -45 -11 -9 -20 -23 -20 -32 0 -9 -8 -27 -17 -40 -10 -14 -25 -40 -33 -57 -35 -75 -267 -293 -312 -293 -6 0 -20 -7 -30 -16 -10 -10 -40 -19 -67 -22 -40 -3 -56 0 -79 17 -17 11 -36 21 -44 21 -7 0 -50 38 -94 85 l-81 85 -7 46 c-3 26 -6 112 -6 191 l0 144 -16 25 -17 24 16 43 c8 23 17 71 20 106 4 41 12 73 25 90 10 14 22 39 26 55 4 16 26 53 49 82 23 29 53 69 67 90 31 46 53 67 125 124 31 25 68 55 81 68 14 12 46 33 72 47 l47 24 176 1 177 0 12 -14z" fill="#1A1A1A" transform="translate(0.000000,604.000000) scale(0.100000,-0.100000)"/>
<path d="M32170 2585 c-14 -8 -44 -17 -67 -21 -23 -3 -49 -14 -58 -24 -10 -11 -30 -22 -47 -25 -16 -4 -32 -13 -35 -20 -2 -8 -23 -24 -46 -35 -59 -31 -227 -216 -227 -250 0 -5 -11 -21 -24 -37 -13 -15 -28 -45 -35 -65 -7 -20 -18 -41 -25 -48 -8 -6 -17 -26 -20 -44 -4 -18 -15 -41 -25 -50 -12 -11 -20 -38 -25 -83 -4 -36 -13 -81 -21 -101 -21 -50 -22 -508 -1 -538 8 -11 17 -42 21 -69 5 -29 18 -62 31 -78 13 -16 24 -36 24 -45 0 -10 9 -23 20 -30 11 -7 20 -19 20 -27 0 -15 83 -119 135 -170 38 -37 87 -71 114 -80 12 -4 29 -14 39 -24 10 -10 47 -23 89 -30 40 -7 77 -19 84 -27 9 -11 43 -14 156 -14 l144 0 38 19 c21 11 61 23 89 27 30 4 58 14 68 25 9 11 22 19 28 19 60 0 266 190 278 256 l3 19 -35 -3 c-19 -1 -42 -11 -52 -21 -9 -11 -32 -22 -50 -26 -18 -4 -59 -16 -90 -26 -70 -23 -170 -25 -229 -3 -24 8 -69 20 -99 25 -30 5 -67 18 -82 29 -15 11 -34 20 -42 20 -8 0 -21 8 -28 19 -7 10 -27 25 -43 34 -38 19 -128 105 -150 143 -9 16 -27 47 -41 69 -36 60 -54 102 -54 126 0 13 -7 30 -15 40 -27 29 -38 143 -33 341 l4 188 21 22 c11 13 24 40 27 61 4 21 16 43 26 50 11 6 20 18 20 25 0 19 88 110 114 118 11 3 31 16 44 28 l24 21 143 0 143 0 31 -22 c16 -13 35 -23 41 -23 16 0 126 -78 172 -122 44 -42 98 -144 98 -184 0 -31 12 -30 47 4 16 15 42 39 58 54 17 15 68 68 115 119 47 51 95 103 108 116 12 13 22 28 22 32 0 16 -170 181 -207 201 -38 20 -48 26 -115 67 -21 13 -45 23 -53 23 -9 0 -41 9 -72 20 l-57 20 -206 0 c-158 -1 -211 -4 -230 -15z" fill="#1A1A1A" transform="translate(0.000000,604.000000) scale(0.100000,-0.100000)"/>
<path d="M34000 2585 c-14 -8 -44 -17 -67 -21 -23 -3 -49 -14 -58 -24 -10 -11 -30 -22 -46 -25 -16 -4 -29 -11 -29 -16 0 -4 -26 -25 -59 -46 -62 -40 -203 -195 -225 -248 -7 -16 -20 -36 -29 -44 -10 -7 -17 -21 -17 -31 0 -9 -11 -33 -23 -52 -13 -19 -27 -49 -31 -68 -3 -19 -15 -43 -25 -55 -11 -12 -21 -42 -24 -80 -4 -33 -13 -80 -22 -104 -21 -60 -22 -488 -1 -529 7 -15 17 -47 21 -72 4 -25 16 -55 26 -68 10 -13 23 -39 29 -58 6 -19 15 -34 20 -34 4 0 15 -17 23 -38 20 -51 183 -216 223 -226 16 -4 38 -16 49 -26 11 -9 36 -20 55 -24 20 -3 52 -15 73 -26 l37 -20 148 0 c107 0 153 4 167 13 24 17 103 37 143 37 16 0 37 9 47 20 10 11 23 20 29 20 17 0 108 50 135 74 78 70 153 154 158 178 3 16 10 31 14 34 5 3 9 11 9 17 -1 7 -6 5 -13 -4 -7 -9 -28 -20 -47 -24 -19 -4 -43 -16 -52 -26 -10 -10 -35 -21 -55 -25 -21 -4 -46 -13 -55 -21 -41 -36 -315 -36 -356 0 -9 8 -34 17 -55 20 -20 3 -50 15 -66 26 -16 12 -36 21 -44 21 -9 0 -24 10 -34 23 -10 12 -31 28 -48 35 -54 23 -108 82 -75 82 6 0 13 8 17 18 3 9 56 65 117 124 61 60 122 120 136 135 14 16 45 46 69 68 24 22 55 53 70 70 14 16 91 96 171 177 80 82 163 167 185 191 23 23 56 56 74 72 18 17 79 78 136 138 57 59 111 107 120 107 8 0 15 9 15 20 0 13 -7 20 -19 20 -11 0 -32 17 -48 39 -30 41 -118 117 -168 145 -63 35 -98 57 -112 71 -8 8 -25 15 -39 15 -13 0 -50 9 -81 20 l-57 20 -206 0 c-158 -1 -211 -4 -230 -15z m275 -274 c21 -12 45 -21 52 -21 7 0 18 -9 25 -20 7 -11 18 -20 24 -20 7 0 26 -25 43 -55 l31 -55 0 -73 0 -73 -23 -31 c-12 -17 -167 -175 -345 -353 l-323 -322 -27 7 c-34 8 -39 17 -47 79 -4 27 -15 65 -23 85 l-16 36 -1 190 0 190 17 30 c9 17 19 51 23 77 4 26 16 54 26 64 10 9 19 22 19 28 0 11 87 130 113 155 40 38 60 52 99 72 72 35 89 39 193 35 77 -3 109 -9 140 -25z" fill="#1A1A1A" transform="translate(0.000000,604.000000) scale(0.100000,-0.100000)"/>
<path d="M17693 2571 c-24 -9 -55 -33 -73 -56 -17 -22 -37 -45 -44 -50 -7 -6 -18 -32 -23 -57 -8 -37 -8 -50 3 -59 10 -8 22 -6 47 10 43 26 72 27 94 1 10 -11 22 -20 28 -20 5 0 24 -17 40 -38 l30 -37 5 -758 5 -757 43 -50 c24 -28 51 -50 60 -50 10 0 34 -9 55 -20 l37 -20 96 0 96 0 25 20 c14 11 34 20 43 20 10 0 25 11 34 25 9 14 20 25 25 25 20 0 109 98 120 132 7 20 19 42 27 48 19 17 19 90 0 90 -8 0 -17 -9 -21 -19 -3 -11 -22 -34 -41 -50 l-35 -31 -63 0 -63 0 -39 31 c-22 17 -42 38 -46 47 -4 9 -7 342 -7 739 l-1 722 -25 37 c-14 20 -25 42 -25 49 0 7 -19 31 -41 54 l-41 41 -142 -1 c-106 -1 -151 -5 -183 -18z" fill="#1A1A1A" transform="translate(0.000000,604.000000) scale(0.100000,-0.100000)"/>
<path d="M18740 2450 c0 -5 5 -10 10 -10 6 0 10 5 10 10 0 6 -4 10 -10 10 -5 0 -10 -4 -10 -10z" fill="#1A1A1A" transform="translate(0.000000,604.000000) scale(0.100000,-0.100000)"/>
<path d="M32905 1040 c-3 -5 -1 -10 4 -10 6 0 11 5 11 10 0 6 -2 10 -4 10 -3 0 -8 -4 -11 -10z" fill="#1A1A1A" transform="translate(0.000000,604.000000) scale(0.100000,-0.100000)"/>
<path d="M21876 861 c-4 -7 -5 -15 -2 -18 9 -9 19 4 14 18 l-4 13 -8 -13z" fill="#1A1A1A" transform="translate(0.000000,604.000000) scale(0.100000,-0.100000)"/>
    </svg>
  </g>
  <!-- Tagline -->
  <g transform="translate(262.2,839.0) scale(0.85)">
    <svg viewBox="0 0 3496.000000 236.000000" width="3496.0" height="236.0">
      <path d="M11030 2301 c0 -33 5 -72 11 -88 5 -15 17 -59 25 -97 8 -39 21 -77 28 -86 8 -8 17 -30 21 -47 3 -18 19 -47 33 -63 15 -17 42 -48 59 -68 18 -20 33 -40 33 -44 0 -13 105 -66 145 -74 22 -4 60 -14 85 -24 91 -35 488 -33 527 2 10 9 35 20 57 24 69 12 162 81 235 173 28 35 51 69 51 76 0 6 11 22 25 35 14 13 28 39 31 59 4 20 14 46 22 59 8 13 21 56 28 95 7 40 15 84 19 100 l7 27 -195 0 -195 0 -6 -72 c-10 -135 -23 -209 -40 -226 -9 -9 -30 -34 -48 -54 -17 -21 -37 -38 -43 -38 -7 0 -25 -10 -41 -22 -27 -22 -38 -23 -182 -23 -127 0 -156 3 -165 15 -7 9 -28 22 -47 30 -41 16 -49 22 -110 82 -59 58 -90 97 -90 112 0 7 -11 27 -24 45 -16 21 -27 53 -31 92 l-7 59 -109 0 -109 0 0 -59z" fill="#3A3A3A" transform="translate(0.000000,236.000000) scale(0.100000,-0.100000)"/>
<path d="M3605 1760 c-16 -11 -38 -20 -47 -20 -10 0 -25 -11 -34 -25 -9 -14 -22 -25 -28 -25 -7 0 -29 -22 -50 -50 -21 -27 -42 -50 -46 -50 -5 0 -11 -13 -15 -30 -3 -16 -16 -42 -28 -57 -20 -25 -22 -42 -25 -171 -4 -140 -3 -144 22 -181 14 -20 26 -42 26 -49 0 -11 84 -99 134 -140 16 -13 38 -22 50 -20 32 5 31 34 -3 54 -16 9 -35 29 -43 43 -7 14 -18 31 -25 36 -54 44 -80 184 -64 346 7 81 44 199 64 208 5 2 22 16 38 32 16 16 36 29 43 29 7 0 25 9 39 20 15 12 48 23 75 27 45 5 51 3 80 -25 l32 -31 0 -480 0 -480 -35 -38 c-21 -22 -34 -46 -33 -58 3 -19 12 -20 176 -23 196 -3 203 0 159 66 -14 20 -30 60 -37 88 -15 61 -6 158 18 183 9 9 23 29 31 44 8 15 31 35 52 44 21 10 39 23 39 28 0 11 54 64 81 80 9 5 38 25 64 43 26 18 61 39 78 47 18 9 44 23 59 33 22 13 32 14 45 6 16 -10 18 -33 21 -215 3 -258 -5 -316 -53 -375 -59 -72 -55 -74 170 -74 190 0 195 1 195 20 0 12 -20 40 -45 64 l-45 44 0 270 c0 149 3 277 6 286 8 20 33 20 116 -1 47 -12 68 -23 71 -35 7 -24 27 -23 27 1 0 12 -23 38 -56 65 -44 36 -64 46 -93 46 -70 0 -73 8 -69 165 3 150 0 141 66 210 13 13 21 29 17 34 -4 7 -71 11 -185 11 -190 0 -214 -6 -170 -42 29 -24 42 -102 44 -258 l1 -105 -50 -24 c-27 -13 -70 -30 -95 -37 -96 -28 -166 -57 -183 -75 -10 -10 -24 -19 -32 -19 -8 0 -23 -9 -33 -20 -10 -11 -32 -22 -48 -26 -53 -10 -56 2 -50 223 6 255 9 272 57 324 21 23 39 46 39 51 0 4 -109 8 -242 8 -226 0 -245 -2 -273 -20z" fill="#3A3A3A" transform="translate(0.000000,236.000000) scale(0.100000,-0.100000)"/>
<path d="M6045 1760 c-16 -11 -37 -20 -46 -20 -23 0 -79 -56 -106 -107 l-23 -44 0 -462 c0 -254 3 -471 6 -482 4 -11 22 -33 42 -50 48 -40 105 -41 146 -2 16 15 32 27 35 27 12 0 53 69 47 79 -4 6 -27 8 -56 4 -85 -10 -80 -41 -80 474 0 374 3 459 14 482 15 28 83 81 104 81 7 0 12 9 12 20 0 27 -54 27 -95 0z" fill="#3A3A3A" transform="translate(0.000000,236.000000) scale(0.100000,-0.100000)"/>
<path d="M10515 1760 c-22 -11 -46 -19 -54 -20 -19 0 -87 -71 -96 -100 -4 -14 -15 -33 -24 -44 -14 -16 -16 -71 -19 -495 -3 -565 -6 -548 81 -455 l56 59 1 153 c0 174 9 204 67 223 18 6 33 14 33 19 0 16 92 71 114 68 21 -3 21 -8 26 -245 4 -213 7 -244 23 -260 9 -10 26 -29 36 -43 16 -21 27 -25 65 -24 54 1 93 28 75 51 -6 7 -17 13 -25 13 -30 0 -34 41 -34 344 0 293 -1 307 -20 326 -22 22 -65 27 -77 7 -4 -7 -25 -21 -46 -32 -40 -21 -127 -100 -127 -115 0 -6 -4 -10 -9 -10 -5 0 -22 -14 -39 -32 -27 -26 -34 -29 -47 -18 -14 12 -16 44 -13 257 3 219 5 246 21 257 9 7 17 18 17 25 0 6 4 11 9 11 5 0 19 12 32 26 13 14 34 29 47 35 13 5 22 15 20 22 -7 19 -50 18 -93 -3z" fill="#3A3A3A" transform="translate(0.000000,236.000000) scale(0.100000,-0.100000)"/>
<path d="M17005 1767 c-11 -8 -36 -19 -56 -26 -41 -13 -93 -64 -104 -101 -4 -14 -15 -33 -24 -44 -14 -16 -16 -67 -16 -475 0 -443 1 -457 20 -476 11 -11 30 -33 42 -49 35 -43 87 -46 137 -7 21 17 42 31 46 31 4 0 15 18 25 40 10 23 25 45 33 49 8 5 12 13 8 20 -11 17 -23 13 -29 -9 -4 -17 -14 -20 -54 -20 -94 0 -88 -34 -88 480 0 419 1 453 18 464 9 7 17 17 17 22 0 13 61 69 83 77 10 4 17 13 15 20 -6 17 -50 20 -73 4z" fill="#3A3A3A" transform="translate(0.000000,236.000000) scale(0.100000,-0.100000)"/>
<path d="M20310 1759 c-19 -10 -40 -19 -45 -19 -15 0 -85 -65 -85 -78 0 -6 -10 -21 -22 -32 l-23 -21 -3 -462 c-2 -254 0 -477 3 -494 3 -18 12 -33 19 -33 7 0 23 -11 36 -24 48 -52 104 -43 176 29 60 61 57 81 -14 77 -32 -3 -59 1 -67 8 -13 11 -15 81 -15 473 l0 461 52 48 c29 26 57 48 64 48 13 0 26 25 17 34 -12 12 -59 4 -93 -15z" fill="#3A3A3A" transform="translate(0.000000,236.000000) scale(0.100000,-0.100000)"/>
<path d="M25610 1759 c-19 -10 -40 -19 -46 -19 -17 0 -84 -61 -84 -76 0 -7 -10 -23 -22 -34 l-23 -21 -3 -495 c-2 -438 -1 -495 13 -500 10 -4 35 12 70 47 l55 53 0 156 c0 172 7 197 55 213 17 6 36 18 43 29 7 10 18 18 23 18 5 0 23 9 38 21 16 11 39 19 52 17 l24 -3 5 -250 5 -250 35 -38 c32 -35 37 -38 75 -31 75 12 101 45 50 64 l-25 10 0 309 0 309 -26 31 c-28 33 -55 39 -73 17 -6 -8 -26 -20 -44 -27 -18 -7 -70 -50 -116 -96 -49 -49 -90 -83 -100 -81 -14 3 -16 33 -19 254 -3 286 -6 274 88 335 28 18 50 38 50 46 0 20 -59 15 -100 -8z" fill="#3A3A3A" transform="translate(0.000000,236.000000) scale(0.100000,-0.100000)"/>
<path d="M27311 1751 c-36 -15 -77 -42 -96 -62 -42 -46 -75 -148 -75 -232 0 -35 -5 -70 -12 -79 -7 -9 -38 -21 -68 -26 -69 -13 -153 -43 -210 -76 -35 -20 -52 -40 -81 -94 -20 -38 -44 -80 -53 -94 -37 -56 -33 -361 5 -399 11 -11 24 -31 29 -45 21 -56 144 -59 206 -5 19 17 39 31 44 31 9 0 20 8 60 45 6 6 16 18 23 28 7 10 26 19 42 20 29 2 30 1 37 -61 4 -35 12 -70 18 -78 15 -17 72 -28 105 -20 26 7 95 62 95 77 0 4 -18 13 -40 19 -22 6 -40 17 -40 24 0 8 -7 19 -15 26 -13 11 -15 68 -15 404 0 378 0 393 22 460 16 49 29 71 45 79 13 6 23 16 23 22 0 6 12 17 26 24 26 12 28 35 3 38 -8 0 -43 -11 -78 -26z m-185 -498 c15 -15 16 -35 12 -164 -4 -135 -7 -152 -32 -203 -36 -74 -120 -136 -184 -136 -38 0 -48 5 -82 43 -46 49 -54 79 -48 190 3 57 10 91 23 112 28 44 100 112 127 120 13 4 34 14 48 23 22 14 68 27 107 31 6 0 19 -7 29 -16z" fill="#3A3A3A" transform="translate(0.000000,236.000000) scale(0.100000,-0.100000)"/>
<path d="M7192 1604 c-23 -19 -42 -43 -42 -53 0 -24 72 -91 98 -91 12 0 22 6 22 14 0 7 11 21 24 29 13 9 27 28 30 43 6 24 2 33 -31 61 -21 18 -43 32 -49 33 -6 0 -29 -16 -52 -36z" fill="#3A3A3A" transform="translate(0.000000,236.000000) scale(0.100000,-0.100000)"/>
<path d="M20656 1600 c-20 -22 -36 -44 -36 -49 0 -11 58 -84 75 -94 17 -9 91 59 100 93 5 22 -1 31 -34 58 -22 18 -46 32 -54 32 -8 0 -31 -18 -51 -40z" fill="#3A3A3A" transform="translate(0.000000,236.000000) scale(0.100000,-0.100000)"/>
<path d="M24433 1606 c-19 -19 -33 -42 -33 -56 0 -29 76 -104 94 -93 27 17 86 92 86 109 -1 24 -66 74 -94 73 -12 -1 -36 -16 -53 -33z" fill="#3A3A3A" transform="translate(0.000000,236.000000) scale(0.100000,-0.100000)"/>
<path d="M27650 1602 c-22 -22 -40 -44 -40 -50 0 -23 72 -92 96 -92 14 0 24 6 24 14 0 7 11 21 24 29 13 9 27 28 30 43 6 24 2 33 -31 61 -21 18 -43 32 -50 33 -7 0 -30 -17 -53 -38z" fill="#3A3A3A" transform="translate(0.000000,236.000000) scale(0.100000,-0.100000)"/>
<path d="M29783 1606 c-44 -42 -42 -69 7 -118 44 -45 48 -44 103 18 34 38 49 84 28 84 -4 0 -20 11 -35 25 -35 32 -63 30 -103 -9z" fill="#3A3A3A" transform="translate(0.000000,236.000000) scale(0.100000,-0.100000)"/>
<path d="M25017 1569 c-51 -53 -57 -65 -57 -102 0 -39 -4 -45 -55 -85 -30 -24 -55 -47 -55 -52 0 -10 26 -18 75 -22 l30 -3 5 -335 c3 -184 7 -336 8 -337 1 -1 15 -9 32 -18 34 -17 93 -20 121 -4 34 18 119 106 119 123 0 18 -9 19 -65 6 -67 -15 -66 -20 -63 289 l3 276 25 3 c41 4 100 22 100 31 0 4 11 13 25 19 14 7 25 20 25 31 0 18 -8 20 -87 23 l-88 3 -3 85 c-3 102 -8 130 -25 130 -8 0 -39 -27 -70 -61z" fill="#3A3A3A" transform="translate(0.000000,236.000000) scale(0.100000,-0.100000)"/>
<path d="M30367 1569 c-51 -53 -57 -65 -57 -102 0 -39 -4 -45 -55 -85 -30 -24 -55 -47 -55 -52 0 -10 26 -18 75 -22 l30 -3 5 -335 c3 -184 7 -336 8 -337 1 -1 15 -9 32 -18 33 -17 93 -20 121 -5 32 18 119 108 119 125 0 17 -10 18 -65 5 -67 -15 -66 -20 -63 289 l3 276 25 3 c41 4 100 22 100 31 0 4 11 13 25 19 14 7 25 20 25 31 0 18 -8 20 -87 23 l-88 3 -3 85 c-3 102 -8 130 -25 130 -8 0 -39 -27 -70 -61z" fill="#3A3A3A" transform="translate(0.000000,236.000000) scale(0.100000,-0.100000)"/>
<path d="M9912 1556 c-52 -54 -62 -70 -62 -99 0 -29 -8 -42 -46 -76 -54 -47 -53 -68 3 -73 l38 -3 5 -320 5 -320 30 -33 c25 -27 37 -32 73 -32 53 0 68 8 131 69 69 65 68 90 -2 69 -30 -9 -40 -8 -62 6 l-25 17 2 272 3 272 56 6 c62 7 129 49 129 82 0 15 -10 17 -79 17 -103 0 -111 7 -111 105 0 74 -6 105 -19 105 -5 0 -36 -29 -69 -64z" fill="#3A3A3A" transform="translate(0.000000,236.000000) scale(0.100000,-0.100000)"/>
<path d="M18473 1327 c-49 -50 -56 -86 -20 -106 12 -7 37 -31 55 -53 29 -36 32 -46 32 -107 0 -56 -4 -73 -25 -101 -14 -19 -25 -42 -25 -51 0 -10 -8 -24 -18 -31 -11 -7 -23 -26 -29 -43 -5 -16 -15 -30 -20 -30 -16 0 -73 74 -73 94 0 10 -11 32 -25 51 -14 19 -25 39 -25 45 0 6 -11 26 -25 45 -14 19 -25 43 -25 54 0 12 -9 35 -20 51 -11 17 -20 37 -20 45 -1 43 -107 160 -145 160 -24 0 -77 -45 -88 -75 -8 -20 2 -45 17 -45 23 0 96 -95 114 -148 6 -18 20 -45 32 -59 11 -14 20 -31 20 -37 0 -7 11 -27 25 -46 14 -19 25 -45 25 -58 0 -13 9 -35 20 -49 11 -14 20 -33 20 -43 0 -10 9 -28 19 -41 10 -14 25 -40 34 -60 23 -55 87 -87 87 -44 0 7 11 26 24 42 13 15 26 45 30 66 4 20 11 37 16 37 5 0 17 15 26 33 9 17 22 35 30 40 7 4 15 21 19 37 4 16 11 32 15 35 5 3 18 26 29 50 11 25 24 45 30 45 6 0 15 19 22 43 6 23 18 55 26 71 13 26 13 33 -7 86 -25 67 -73 126 -110 135 -20 4 -33 -3 -67 -38z" fill="#3A3A3A" transform="translate(0.000000,236.000000) scale(0.100000,-0.100000)"/>
<path d="M21573 1360 c-12 -5 -27 -18 -33 -29 -6 -12 -17 -21 -24 -21 -8 0 -17 -7 -20 -16 -9 -24 -7 -64 4 -64 18 0 82 -73 91 -104 19 -66 0 -186 -30 -186 -5 0 -15 -17 -22 -37 -13 -39 -58 -103 -72 -103 -5 0 -16 18 -24 40 -9 22 -20 40 -24 40 -5 0 -13 18 -19 40 -6 21 -17 45 -25 53 -7 8 -20 31 -29 51 -8 20 -22 44 -31 52 -8 9 -15 24 -15 35 0 10 -9 36 -20 56 -11 21 -20 45 -20 55 0 22 -106 128 -129 128 -23 0 -91 -68 -91 -91 0 -10 14 -26 30 -36 35 -21 79 -87 135 -203 10 -19 26 -45 36 -59 10 -13 19 -32 19 -43 0 -23 56 -146 76 -165 8 -8 14 -23 14 -33 0 -10 10 -31 23 -47 13 -15 26 -36 30 -45 12 -34 32 -17 66 55 19 39 37 74 41 77 4 3 15 20 24 38 9 18 24 36 32 39 8 3 19 25 25 49 6 24 17 49 25 55 8 6 14 20 14 30 0 9 8 25 17 35 10 9 32 47 51 83 29 56 33 73 29 112 -6 45 -19 67 -83 136 -34 35 -37 36 -71 23z" fill="#3A3A3A" transform="translate(0.000000,236.000000) scale(0.100000,-0.100000)"/>
<path d="M31265 1319 c-30 -29 -55 -59 -55 -67 0 -8 10 -25 23 -38 52 -53 66 -71 86 -104 29 -49 27 -96 -10 -163 -17 -31 -34 -57 -39 -57 -4 0 -13 -13 -19 -30 -5 -16 -17 -30 -25 -30 -19 0 -55 51 -67 94 -5 18 -18 43 -29 56 -11 13 -20 30 -20 39 0 9 -7 29 -15 44 -8 16 -19 46 -25 68 -6 21 -15 39 -20 39 -5 0 -19 17 -30 38 -39 74 -86 112 -137 112 -53 -1 -142 -104 -110 -127 7 -5 30 -15 52 -21 42 -12 70 -41 100 -103 9 -19 29 -56 45 -84 16 -27 34 -61 40 -75 7 -14 18 -36 26 -50 7 -14 19 -36 25 -50 6 -14 20 -41 30 -61 25 -49 25 -111 -1 -134 -11 -10 -20 -26 -20 -36 0 -10 -11 -30 -25 -45 -14 -15 -25 -35 -25 -44 0 -10 -9 -29 -21 -44 -25 -32 -43 -136 -37 -223 4 -57 7 -67 38 -94 42 -39 135 -69 211 -69 60 0 169 33 169 51 0 6 11 20 24 32 22 21 30 43 27 75 -2 20 -13 14 -66 -34 l-50 -46 -73 4 c-56 3 -77 8 -87 21 -7 9 -16 17 -21 17 -5 0 -21 20 -36 44 -34 53 -37 133 -8 216 11 30 19 63 20 72 0 9 11 29 25 44 14 15 25 32 25 37 0 11 42 78 71 112 9 11 20 31 24 45 8 25 12 32 58 81 13 15 30 42 37 60 7 19 19 41 25 49 7 8 16 25 19 38 4 12 11 22 16 22 5 0 23 28 40 62 l31 62 -21 47 c-11 26 -20 54 -20 63 0 16 -81 115 -105 129 -11 6 -31 -7 -70 -44z" fill="#3A3A3A" transform="translate(0.000000,236.000000) scale(0.100000,-0.100000)"/>
<path d="M5352 1340 c-75 -27 -136 -64 -164 -100 -13 -17 -35 -45 -49 -63 -53 -67 -87 -287 -54 -359 8 -18 19 -52 25 -75 6 -24 14 -43 18 -43 4 0 27 -19 52 -41 25 -23 61 -46 80 -50 85 -20 230 -4 270 31 12 10 26 20 30 22 5 2 10 10 12 18 2 12 -16 16 -103 20 -96 5 -109 7 -142 33 -21 16 -37 37 -37 48 0 11 26 46 58 78 31 32 73 76 92 97 19 22 51 53 70 70 19 17 65 63 103 102 82 86 85 107 25 151 -23 17 -47 31 -52 31 -6 0 -33 12 -61 25 -60 30 -102 31 -173 5z m63 -90 c4 -6 21 -16 38 -24 19 -8 40 -28 51 -50 19 -36 19 -38 2 -71 -10 -19 -62 -75 -115 -126 -141 -136 -149 -141 -163 -137 -19 7 -36 150 -25 212 11 60 19 79 53 126 40 55 141 100 159 70z" fill="#3A3A3A" transform="translate(0.000000,236.000000) scale(0.100000,-0.100000)"/>
<path d="M6400 1351 c-16 -6 -75 -56 -94 -79 -6 -8 -21 -25 -34 -39 -31 -34 -25 -55 20 -66 24 -6 38 -15 42 -30 10 -37 7 -924 -3 -949 -5 -13 -26 -40 -45 -61 -36 -38 -44 -61 -27 -71 4 -3 18 3 31 14 12 10 34 22 50 25 16 3 34 13 41 21 17 20 79 17 114 -6 36 -24 65 -26 65 -5 0 8 -18 34 -40 56 l-40 41 0 224 c0 215 1 224 19 224 11 0 22 -9 26 -20 8 -24 58 -35 123 -25 43 6 55 15 145 106 105 106 113 122 147 271 11 50 11 64 -4 115 -10 32 -24 79 -31 106 -10 35 -28 62 -70 103 l-57 56 -63 -4 c-53 -3 -68 -8 -88 -30 -13 -14 -28 -27 -34 -29 -11 -4 -78 -90 -86 -111 -10 -24 -27 14 -27 59 0 71 -38 121 -80 104z m310 -156 c7 -8 18 -15 25 -15 6 0 22 -23 36 -52 21 -46 24 -65 23 -172 0 -136 -11 -168 -76 -225 -44 -39 -115 -44 -148 -11 -11 11 -24 20 -30 20 -5 0 -15 10 -21 22 -7 13 -18 29 -26 36 -9 10 -13 48 -13 145 0 132 0 133 30 168 16 20 49 46 74 57 24 12 47 26 51 32 9 15 61 12 75 -5z" fill="#3A3A3A" transform="translate(0.000000,236.000000) scale(0.100000,-0.100000)"/>
<path d="M8710 1351 c-42 -10 -146 -65 -178 -95 -34 -30 -78 -98 -86 -132 -4 -16 -15 -37 -24 -48 -21 -23 -30 -226 -12 -266 31 -70 59 -106 90 -122 72 -35 72 -41 1 -133 l-46 -60 -3 -119 c-4 -113 -2 -122 24 -175 51 -103 84 -120 234 -120 104 0 147 12 185 52 93 98 94 107 95 707 1 276 -1 505 -5 508 -10 10 -234 12 -275 3z m131 -91 c17 -10 19 -22 19 -143 0 -93 -4 -138 -13 -152 -7 -11 -21 -41 -31 -68 -14 -37 -26 -52 -57 -67 -21 -11 -52 -20 -70 -20 -36 0 -99 35 -99 55 0 8 -10 24 -22 35 -21 19 -23 30 -23 118 0 89 2 100 27 135 15 21 28 41 30 46 2 4 23 22 47 39 38 28 52 32 108 32 35 0 73 -5 84 -10z m10 -470 c5 0 9 -108 9 -257 -1 -249 -1 -259 -23 -294 -56 -91 -121 -111 -205 -62 -66 38 -81 54 -108 113 -28 60 -29 78 -10 106 8 11 17 41 21 68 4 27 18 60 31 76 13 15 24 32 24 37 0 5 25 34 57 64 31 30 81 78 111 107 33 33 60 51 69 48 8 -3 19 -6 24 -6z" fill="#3A3A3A" transform="translate(0.000000,236.000000) scale(0.100000,-0.100000)"/>
<path d="M11980 1345 c-14 -8 -41 -22 -62 -31 -30 -14 -40 -26 -57 -74 -26 -70 -27 -130 -3 -168 21 -36 75 -82 94 -82 9 0 27 -11 42 -25 15 -14 37 -25 50 -25 37 0 147 -94 164 -140 12 -34 -8 -94 -34 -98 -10 -1 -41 -7 -69 -13 -64 -14 -143 6 -207 51 -25 18 -51 29 -57 26 -6 -4 -11 -30 -11 -57 0 -39 4 -51 18 -55 9 -3 35 -14 57 -24 69 -32 181 -55 207 -43 13 6 37 14 53 18 47 10 103 54 141 110 45 68 48 139 8 182 -14 15 -36 40 -48 54 -20 24 -124 79 -150 79 -22 1 -141 85 -156 111 -14 24 7 85 37 109 36 28 159 29 194 1 42 -32 91 -53 101 -43 5 5 8 29 6 52 -3 38 -7 45 -33 53 -16 6 -41 18 -54 28 -31 25 -192 27 -231 4z" fill="#3A3A3A" transform="translate(0.000000,236.000000) scale(0.100000,-0.100000)"/>
<path d="M12725 1335 c-27 -13 -57 -25 -65 -25 -17 -1 -80 -55 -80 -69 0 -6 -8 -16 -19 -23 -10 -7 -22 -24 -26 -38 -4 -14 -16 -35 -27 -47 -26 -28 -42 -151 -34 -267 5 -76 10 -96 36 -135 33 -51 32 -50 78 -87 51 -41 154 -55 259 -35 44 8 127 66 117 82 -3 5 -48 9 -101 9 -90 0 -98 2 -144 32 -27 17 -49 36 -49 41 0 6 42 52 93 104 50 51 106 108 124 125 18 18 48 48 67 66 20 18 36 36 36 40 0 4 18 26 40 47 51 50 53 84 7 119 -18 14 -53 33 -77 41 -24 8 -49 20 -55 25 -7 6 -39 12 -71 15 -50 5 -67 2 -109 -20z m85 -90 c7 -8 19 -15 27 -15 8 0 25 -11 38 -25 33 -32 36 -108 5 -127 -11 -7 -20 -18 -20 -24 0 -5 -20 -25 -44 -43 -24 -18 -59 -53 -77 -77 -18 -24 -40 -46 -50 -49 -9 -3 -20 -12 -23 -20 -9 -23 -54 -18 -67 7 -19 36 -17 186 4 239 36 94 169 180 207 134z" fill="#3A3A3A" transform="translate(0.000000,236.000000) scale(0.100000,-0.100000)"/>
<path d="M14191 1315 c-25 -25 -49 -45 -53 -45 -23 0 -1 -36 58 -94 64 -63 66 -67 71 -125 5 -55 3 -64 -25 -108 -17 -26 -35 -53 -40 -58 -5 -6 -17 -23 -26 -38 -23 -35 -44 -34 -53 1 -3 15 -15 41 -25 57 -10 17 -18 37 -18 46 0 8 -11 30 -25 49 -14 19 -25 41 -25 51 0 9 -8 27 -19 40 -10 13 -31 53 -46 89 -29 67 -68 111 -119 135 -36 15 -61 6 -112 -40 -52 -47 -44 -84 20 -99 31 -8 74 -46 94 -86 7 -14 26 -47 42 -75 35 -60 40 -71 75 -155 15 -36 33 -72 41 -80 7 -8 19 -35 27 -58 14 -39 14 -48 0 -79 -8 -20 -23 -49 -34 -64 -10 -16 -27 -42 -38 -57 -10 -15 -22 -43 -26 -62 -4 -19 -16 -49 -26 -66 -15 -25 -19 -51 -19 -129 l0 -97 38 -38 c56 -56 192 -84 292 -60 65 16 140 82 140 123 0 39 -25 34 -70 -13 -38 -39 -40 -40 -109 -40 -61 0 -73 3 -97 25 -15 14 -30 25 -35 25 -4 0 -19 20 -33 44 -30 51 -35 122 -11 164 8 15 19 53 25 85 6 31 16 57 21 57 6 0 16 15 24 33 8 19 21 39 29 47 9 7 16 20 16 30 0 9 10 25 21 36 12 10 25 28 30 39 11 23 52 83 72 105 8 8 29 44 48 80 18 35 39 71 47 80 36 40 72 108 72 135 0 17 -8 44 -18 60 -10 17 -22 42 -25 57 -4 15 -20 41 -35 57 -15 17 -33 37 -40 45 -22 27 -55 18 -101 -29z" fill="#3A3A3A" transform="translate(0.000000,236.000000) scale(0.100000,-0.100000)"/>
<path d="M15420 1334 c-33 -28 -63 -78 -53 -88 4 -3 19 -6 34 -6 19 0 28 -6 33 -22 3 -13 6 -141 6 -284 0 -290 -1 -283 71 -335 35 -25 113 -32 144 -14 11 7 35 16 53 20 18 4 45 18 59 31 14 13 38 24 53 24 22 0 29 -6 33 -29 7 -31 31 -61 51 -61 21 0 74 45 124 105 27 33 26 68 -3 73 -47 9 -47 9 -44 309 1 156 0 285 -3 288 -8 8 -100 -42 -115 -62 -10 -12 -13 -77 -13 -239 l0 -221 -32 -35 c-53 -57 -113 -91 -162 -92 -78 -2 -76 -8 -76 292 l0 265 -36 53 c-41 64 -73 71 -124 28z" fill="#3A3A3A" transform="translate(0.000000,236.000000) scale(0.100000,-0.100000)"/>
<path d="M17515 1343 c-27 -8 -69 -19 -92 -25 -45 -12 -153 -106 -153 -133 0 -8 -9 -23 -20 -33 -25 -23 -40 -105 -40 -213 0 -75 23 -179 40 -179 4 0 14 -16 20 -35 6 -19 15 -35 18 -35 4 0 26 -18 49 -39 37 -35 50 -40 108 -46 98 -11 209 2 242 28 15 12 41 29 58 38 33 18 84 84 85 111 0 10 10 27 23 38 21 20 22 29 22 160 0 114 -3 141 -17 156 -9 11 -23 35 -31 55 -16 39 -93 119 -114 119 -8 0 -40 11 -73 25 -68 28 -59 28 -125 8z m113 -117 c29 -21 52 -41 52 -46 0 -4 12 -25 27 -46 25 -36 27 -48 31 -169 4 -125 3 -131 -19 -158 -13 -15 -37 -43 -54 -63 -34 -40 -92 -74 -128 -74 -33 0 -113 54 -131 89 -9 16 -21 31 -27 33 -14 5 -33 105 -33 173 1 155 20 199 120 284 40 33 94 25 162 -23z" fill="#3A3A3A" transform="translate(0.000000,236.000000) scale(0.100000,-0.100000)"/>
<path d="M19055 1335 c-33 -14 -64 -25 -70 -25 -5 0 -32 -20 -59 -44 -55 -51 -102 -135 -112 -204 -3 -26 -11 -56 -17 -67 -13 -24 -10 -144 3 -160 5 -6 14 -34 20 -63 16 -74 87 -145 159 -161 109 -23 219 -9 275 35 59 47 50 54 -69 54 l-105 0 -37 33 c-29 27 -35 39 -30 58 4 13 75 94 158 179 218 223 219 224 219 252 0 29 -61 83 -106 94 -16 4 -47 15 -69 25 -54 25 -89 23 -160 -6z m97 -97 c61 -42 81 -69 80 -105 -1 -30 -17 -50 -127 -159 -104 -103 -130 -124 -155 -124 -38 0 -43 18 -38 155 2 83 6 109 19 118 9 7 23 27 33 44 9 19 34 42 56 53 22 11 40 25 40 30 0 18 59 10 92 -12z" fill="#3A3A3A" transform="translate(0.000000,236.000000) scale(0.100000,-0.100000)"/>
<path d="M22115 1336 c-27 -14 -57 -26 -66 -26 -21 0 -125 -101 -134 -131 -4 -13 -14 -32 -22 -41 -21 -24 -36 -157 -30 -266 7 -122 36 -182 110 -229 89 -56 256 -58 332 -4 71 51 62 61 -57 61 -102 0 -105 1 -146 32 -23 18 -42 37 -42 43 0 6 12 23 28 38 99 102 215 218 233 234 8 7 23 24 34 39 11 15 39 48 63 73 23 25 42 53 42 62 0 42 -154 127 -245 135 -40 4 -60 0 -100 -20z m102 -100 c64 -41 73 -53 73 -95 0 -36 -8 -47 -124 -165 -80 -81 -132 -126 -145 -126 -36 0 -54 42 -54 133 -1 114 33 178 136 255 39 28 67 28 114 -2z" fill="#3A3A3A" transform="translate(0.000000,236.000000) scale(0.100000,-0.100000)"/>
<path d="M24013 1350 c-13 -5 -23 -13 -23 -18 0 -5 -11 -15 -25 -22 -40 -21 -43 -56 -9 -90 58 -58 66 -69 75 -112 14 -60 2 -134 -26 -164 -13 -14 -26 -40 -29 -59 -4 -19 -13 -35 -20 -35 -8 0 -19 -7 -26 -15 -18 -22 -36 -3 -44 47 -4 24 -13 49 -20 58 -8 8 -19 33 -26 55 -7 22 -19 45 -26 50 -7 6 -17 29 -23 51 -6 23 -18 47 -26 54 -8 7 -15 18 -15 25 0 24 -62 135 -75 135 -8 0 -19 9 -25 20 -15 29 -36 25 -70 -12 -36 -40 -37 -61 -5 -113 14 -22 25 -54 25 -71 0 -31 -45 -143 -61 -154 -5 -3 -15 -23 -22 -45 -10 -28 -22 -42 -42 -48 -35 -12 -55 10 -55 60 0 20 -8 41 -20 53 -11 11 -25 43 -30 70 -5 27 -19 59 -30 70 -11 11 -20 29 -20 40 0 29 -45 90 -98 132 -44 36 -82 49 -82 29 0 -5 -18 -27 -40 -50 -45 -46 -48 -57 -22 -65 50 -16 144 -132 157 -193 3 -17 12 -37 20 -43 8 -6 17 -26 20 -43 4 -18 15 -54 24 -82 10 -27 21 -66 25 -87 4 -20 13 -38 20 -41 8 -3 20 -31 26 -61 7 -34 17 -56 25 -56 15 0 65 80 65 104 0 8 7 21 15 30 9 8 23 32 31 52 9 20 22 44 30 52 8 8 18 27 21 43 3 15 14 36 24 45 11 9 19 27 19 38 0 28 9 39 43 54 42 18 45 16 53 -35 3 -27 14 -61 24 -78 10 -16 20 -47 23 -69 4 -21 13 -47 22 -57 9 -9 21 -37 26 -60 5 -23 19 -53 29 -67 11 -13 20 -30 20 -37 0 -18 25 -26 39 -12 6 6 11 18 11 27 0 9 4 20 9 26 5 5 26 41 46 79 20 39 48 78 61 88 13 10 24 26 24 35 0 10 7 28 15 42 7 14 21 39 29 55 9 17 31 55 50 85 31 50 34 60 29 110 -7 65 -34 124 -75 163 -32 30 -33 30 -65 17z" fill="#3A3A3A" transform="translate(0.000000,236.000000) scale(0.100000,-0.100000)"/>
<path d="M24413 1332 c-50 -26 -72 -62 -37 -62 8 0 29 -13 45 -29 l29 -29 0 -294 0 -294 43 -29 c53 -35 81 -35 135 0 51 34 56 63 12 72 -17 3 -34 11 -38 17 -4 6 -9 140 -12 297 l-5 286 -47 47 c-26 25 -53 46 -60 45 -7 0 -36 -12 -65 -27z" fill="#3A3A3A" transform="translate(0.000000,236.000000) scale(0.100000,-0.100000)"/>
<path d="M28360 1353 c-13 -3 -35 -14 -49 -24 -13 -10 -31 -19 -40 -19 -27 0 -95 -49 -116 -83 -71 -112 -94 -167 -101 -240 -10 -118 2 -199 38 -244 16 -21 45 -46 64 -56 19 -10 38 -25 41 -34 7 -18 -19 -70 -59 -120 -21 -27 -28 -49 -34 -111 -8 -89 7 -217 28 -235 8 -7 25 -29 38 -49 14 -20 34 -39 45 -42 49 -12 158 -18 219 -11 56 6 72 12 101 40 20 18 48 55 63 81 l27 49 3 546 3 546 -23 7 c-26 6 -210 6 -248 -1z m130 -102 c13 -26 13 -198 -1 -280 -7 -36 -21 -78 -32 -94 -25 -33 -80 -67 -110 -67 -26 0 -107 41 -107 54 0 5 -7 14 -15 20 -41 30 -40 226 1 276 13 15 24 33 24 39 0 7 8 15 18 18 9 4 30 17 45 30 24 19 40 23 97 23 58 0 71 -3 80 -19z m-2 -463 c16 -16 17 -435 1 -524 -10 -60 -13 -65 -54 -89 -44 -25 -109 -34 -120 -15 -3 5 -27 19 -53 30 -42 18 -51 28 -76 82 -23 53 -27 70 -21 112 3 27 13 62 21 77 7 15 14 37 14 49 0 11 11 30 25 42 14 12 25 25 25 30 0 11 203 216 216 217 5 1 15 -4 22 -11z" fill="#3A3A3A" transform="translate(0.000000,236.000000) scale(0.100000,-0.100000)"/>
<path d="M29763 1332 c-50 -26 -72 -62 -37 -62 8 0 29 -13 45 -29 l29 -29 0 -294 0 -294 43 -29 c54 -36 82 -35 134 1 51 35 56 62 13 71 -17 3 -34 11 -38 17 -4 6 -9 140 -12 297 l-5 286 -47 47 c-26 25 -53 46 -60 45 -7 0 -36 -12 -65 -27z" fill="#3A3A3A" transform="translate(0.000000,236.000000) scale(0.100000,-0.100000)"/>
<path d="M7183 1339 c-6 -6 -22 -17 -35 -23 -32 -16 -35 -44 -6 -48 15 -2 29 -16 40 -38 16 -31 18 -68 18 -315 l0 -281 34 -32 c49 -46 104 -45 149 2 46 49 57 64 57 76 0 15 -17 12 -24 -5 -8 -21 -20 -19 -55 11 l-31 26 0 268 c0 162 -4 280 -10 296 -23 60 -103 97 -137 63z" fill="#3A3A3A" transform="translate(0.000000,236.000000) scale(0.100000,-0.100000)"/>
<path d="M7703 1322 c-42 -27 -89 -86 -95 -118 -2 -10 9 -24 27 -34 l30 -17 1 -260 c1 -143 4 -266 8 -272 11 -17 44 -13 65 8 11 11 29 24 40 31 20 10 21 19 21 180 0 137 3 173 15 188 54 62 100 100 131 108 13 3 24 10 24 14 0 15 41 22 56 9 12 -10 15 -48 13 -231 0 -128 3 -224 9 -231 5 -7 15 -28 21 -48 9 -27 21 -39 52 -53 40 -18 41 -18 85 5 40 22 59 49 34 49 -6 0 -22 11 -35 25 l-25 24 0 303 c0 167 -3 313 -6 326 -8 29 -61 30 -94 2 -13 -11 -28 -20 -35 -20 -12 0 -165 -156 -165 -169 0 -10 -61 -31 -71 -25 -5 3 -9 43 -9 90 0 81 -10 120 -34 136 -16 11 -17 11 -63 -20z" fill="#3A3A3A" transform="translate(0.000000,236.000000) scale(0.100000,-0.100000)"/>
<path d="M11280 1322 c-122 -52 -149 -67 -154 -88 -3 -11 -16 -34 -28 -49 -39 -50 -62 -140 -62 -245 0 -70 5 -103 17 -125 9 -16 17 -37 17 -44 0 -28 54 -93 105 -127 62 -41 112 -49 230 -39 71 6 90 11 112 31 14 13 30 24 35 24 22 0 81 59 100 100 35 76 66 220 55 255 -5 17 -13 51 -17 78 -10 53 -60 166 -74 166 -6 1 -19 10 -30 20 -36 33 -141 71 -193 70 -28 0 -75 -11 -113 -27z m162 -82 c10 -11 25 -20 34 -20 8 0 18 -8 21 -17 4 -10 14 -28 24 -40 9 -13 20 -44 24 -70 4 -26 13 -60 21 -75 20 -39 17 -110 -7 -165 -60 -135 -65 -141 -141 -167 -55 -18 -57 -18 -103 0 -29 12 -50 28 -56 42 -5 12 -13 22 -18 22 -5 0 -22 26 -37 57 -27 53 -29 64 -29 174 1 93 4 122 17 136 9 10 25 36 36 58 11 22 37 53 59 68 33 25 44 28 87 23 31 -3 56 -13 68 -26z" fill="#3A3A3A" transform="translate(0.000000,236.000000) scale(0.100000,-0.100000)"/>
<path d="M14795 1323 c-38 -14 -80 -34 -94 -44 -13 -10 -29 -19 -36 -19 -7 0 -15 -11 -19 -23 -3 -13 -16 -37 -28 -52 -39 -50 -62 -140 -62 -246 -1 -58 4 -101 11 -110 6 -8 16 -33 23 -57 10 -41 45 -83 113 -139 34 -28 112 -37 223 -28 70 6 90 11 111 31 14 13 30 24 35 24 22 0 81 59 100 100 11 25 31 87 44 139 20 83 21 97 9 130 -7 20 -16 54 -19 77 -8 56 -55 137 -100 173 -21 17 -44 31 -50 31 -6 1 -29 9 -51 20 -54 26 -124 24 -210 -7z m167 -83 c10 -11 25 -20 34 -20 8 0 18 -8 21 -17 4 -10 14 -28 24 -40 9 -13 20 -44 24 -70 4 -26 13 -60 21 -75 20 -39 17 -110 -7 -165 -60 -135 -65 -141 -142 -167 -55 -19 -58 -19 -99 -1 -48 21 -87 60 -121 120 -20 36 -22 54 -22 165 1 116 3 129 28 177 16 31 46 67 74 88 44 34 52 37 97 31 31 -3 56 -13 68 -26z" fill="#3A3A3A" transform="translate(0.000000,236.000000) scale(0.100000,-0.100000)"/>
<path d="M20620 1319 c-42 -31 -43 -44 -5 -51 45 -8 50 -44 52 -350 l1 -287 34 -30 c26 -24 42 -30 76 -31 36 0 48 5 75 34 46 49 57 64 57 76 0 15 -17 12 -24 -5 -8 -21 -20 -19 -55 11 l-31 26 0 268 c0 162 -4 280 -10 296 -30 77 -99 94 -170 43z" fill="#3A3A3A" transform="translate(0.000000,236.000000) scale(0.100000,-0.100000)"/>
<path d="M27643 1339 c-6 -6 -22 -17 -35 -23 -32 -16 -35 -44 -6 -48 15 -2 29 -16 40 -38 16 -31 18 -68 18 -315 l0 -281 34 -32 c46 -43 102 -45 143 -5 36 35 67 83 58 91 -4 4 -11 -1 -16 -11 -13 -23 -22 -22 -58 9 l-31 26 0 268 c0 162 -4 280 -10 296 -23 60 -103 97 -137 63z" fill="#3A3A3A" transform="translate(0.000000,236.000000) scale(0.100000,-0.100000)"/>
<path d="M28970 1331 c-36 -19 -96 -94 -102 -127 -2 -12 7 -23 25 -32 15 -7 27 -16 28 -20 0 -4 1 -122 2 -262 1 -140 6 -261 10 -267 12 -19 44 -16 66 6 11 11 29 24 40 31 20 10 21 19 21 180 0 154 2 172 21 204 12 20 27 36 34 36 6 0 24 11 39 25 15 14 38 28 51 31 14 3 25 10 25 14 0 15 41 22 56 9 12 -10 14 -49 14 -231 -1 -123 3 -225 8 -231 5 -7 15 -28 21 -48 9 -27 21 -41 50 -53 36 -17 39 -17 84 5 50 24 60 44 27 54 -11 3 -29 18 -40 32 -19 24 -20 40 -20 322 0 163 -3 306 -6 319 -8 29 -52 30 -84 2 -13 -11 -28 -20 -35 -20 -7 0 -50 -40 -97 -90 -61 -65 -93 -91 -116 -96 l-32 -6 0 86 c0 83 -10 122 -34 138 -15 11 -17 10 -56 -11z" fill="#3A3A3A" transform="translate(0.000000,236.000000) scale(0.100000,-0.100000)"/>
    </svg>
  </g>
</svg>