<?xml version="1.0" encoding="UTF-8"?>
<svg xmlns="http://www.w3.org/2000/svg" viewBox="0 0 400 400" width="400" height="400">
  <title>Caring With Grace - CwG Icon</title>
  <defs>
    <style>
      @import url('https://fonts.googleapis.com/css2?family=Playfair+Display:ital,wght@0,400;0,700;1,400&amp;display=swap');
      .cwg-text { font-family: 'Playfair Display', 'Georgia', serif; }
    </style>
  </defs>
  <g transform="translate(100.0,24.0) scale(0.6666666666666666)">
    <svg viewBox="0 0 300 270" width="300" height="270">
      <g transform="rotate(-20, 150, 135)">
<path d="M 140 145 C 130 120, 110 70, 80 40 C 65 25, 40 18, 25 25 C 12 32, 5 50, 8 70 C 10 85, 18 100, 28 112 C 22 118, 18 125, 25 132 C 32 140, 48 148, 65 152 C 85 155, 110 155, 130 150 C 135 148, 138 147, 140 145 Z" fill="#D4899E" />
<path d="M 155 142 C 168 115, 195 60, 220 30 C 235 15, 252 8, 265 12 C 278 18, 285 35, 282 55 C 280 68, 272 80, 264 90 C 270 96, 275 102, 268 110 C 260 120, 248 128, 232 134 C 215 140, 195 143, 175 144 C 165 144, 158 143, 155 142 Z" fill="#D4899E" />
<path d="M 135 155 C 120 165, 90 185, 65 200 C 48 210, 35 218, 30 228 C 25 240, 30 250, 42 255 C 55 260, 70 258, 85 250 C 100 242, 112 230, 125 215 C 132 205, 137 190, 140 175 C 140 165, 138 158, 135 155 Z" fill="#D4899E" />
<path d="M 160 152 C 172 162, 198 178, 220 190 C 238 198, 250 205, 258 215 C 265 225, 262 238, 252 245 C 240 252, 225 250, 210 242 C 195 232, 182 218, 172 202 C 166 192, 162 178, 160 165 C 159 158, 159 155, 160 152 Z" fill="#D4899E" />
<path d="M 140 145 C 118 115, 85 72, 55 42 M 138 148 C 108 128, 55 100, 15 80 M 135 150 C 105 145, 60 140, 30 130 M 155 142 C 178 108, 215 60, 245 32 M 158 144 C 190 125, 240 95, 275 70 M 160 145 C 192 140, 235 130, 268 115 M 138 158 C 115 175, 80 205, 48 230 M 136 160 C 118 180, 95 210, 70 235 M 158 155 C 180 172, 210 195, 240 220 M 160 157 C 178 175, 200 200, 225 228 " fill="none" stroke="#8C4A60" stroke-width="1.8" stroke-linecap="round" opacity="0.6" />
<path d="M 140 145 C 130 120, 110 70, 80 40 C 65 25, 40 18, 25 25 C 12 32, 5 50, 8 70 C 10 85, 18 100, 28 112 C 22 118, 18 125, 25 132 C 32 140, 48 148, 65 152 C 85 155, 110 155, 130 150 C 135 148, 138 147, 140 145 Z" fill="none" stroke="#8C4A60" stroke-width="1.5" opacity="0.4" />
<path d="M 155 142 C 168 115, 195 60, 220 30 C 235 15, 252 8, 265 12 C 278 18, 285 35, 282 55 C 280 68, 272 80, 264 90 C 270 96, 275 102, 268 110 C 260 120, 248 128, 232 134 C 215 140, 195 143, 175 144 C 165 144, 158 143, 155 142 Z" fill="none" stroke="#8C4A60" stroke-width="1.5" opacity="0.4" />
<path d="M 135 155 C 120 165, 90 185, 65 200 C 48 210, 35 218, 30 228 C 25 240, 30 250, 42 255 C 55 260, 70 258, 85 250 C 100 242, 112 230, 125 215 C 132 205, 137 190, 140 175 C 140 165, 138 158, 135 155 Z" fill="none" stroke="#8C4A60" stroke-width="1.5" opacity="0.4" />
<path d="M 160 152 C 172 162, 198 178, 220 190 C 238 198, 250 205, 258 215 C 265 225, 262 238, 252 245 C 240 252, 225 250, 210 242 C 195 232, 182 218, 172 202 C 166 192, 162 178, 160 165 C 159 158, 159 155, 160 152 Z" fill="none" stroke="#8C4A60" stroke-width="1.5" opacity="0.4" />
<path d="M 18 68 a 4 4 0 1 0 8 0 a 4 4 0 1 0 -8 0 M 24 108 a 3.5 3.5 0 1 0 7 0 a 3.5 3.5 0 1 0 -7 0 M 42 135 a 3.5 3.5 0 1 0 7 0 a 3.5 3.5 0 1 0 -7 0 M 72 30 a 3 3 0 1 0 6 0 a 3 3 0 1 0 -6 0 M 272 52 a 4 4 0 1 0 8 0 a 4 4 0 1 0 -8 0 M 268 88 a 3.5 3.5 0 1 0 7 0 a 3.5 3.5 0 1 0 -7 0 M 253 122 a 3.5 3.5 0 1 0 7 0 a 3.5 3.5 0 1 0 -7 0 M 240 14 a 3 3 0 1 0 6 0 a 3 3 0 1 0 -6 0 M 35 238 a 3 3 0 1 0 6 0 a 3 3 0 1 0 -6 0 M 50 252 a 3 3 0 1 0 6 0 a 3 3 0 1 0 -6 0 M 250 235 a 3 3 0 1 0 6 0 a 3 3 0 1 0 -6 0 M 238 248 a 3 3 0 1 0 6 0 a 3 3 0 1 0 -6 0 " fill="white" opacity="0.85" />
<path d="M 147 130 C 145 140, 144 155, 144 170 C 144 190, 146 210, 148 225 C 149 230, 151 230, 152 225 C 154 210, 156 190, 156 170 C 156 155, 155 140, 153 130 C 151 125, 149 125, 147 130 Z" fill="#8C4A60" />
<path d="M 147 132 C 140 110, 128 85, 118 72 M 118 72 C 115 68, 112 66, 110 68 C 108 70, 110 73, 113 74 M 153 132 C 158 108, 170 82, 182 68 M 182 68 C 185 64, 188 63, 190 65 C 192 67, 190 70, 187 71 " fill="none" stroke="#8C4A60" stroke-width="1.5" stroke-linecap="round" />
</g>
    </svg>
  </g>
  <text x="200.0" y="236.0" text-anchor="middle" dominant-baseline="hanging"
        class="cwg-text" font-size="104.0" font-weight="700"
        fill="#1A1A1A" letter-spacing="2">CwG</text>
</svg>