<?xml version="1.0" encoding="UTF-8"?>
<svg xmlns="http://www.w3.org/2000/svg" viewBox="0 0 3496.0 1657.8799999999999" width="3496.0" height="1657.8799999999999">
  <title>Caring With Grace - Stacked</title>
  <g transform="translate(1223.6,30) scale(2.7967999999999997)">
    <svg viewBox="0 0 375.000000 350.000000" width="375.0" height="350.0">
      <defs><clipPath id="bf-clip-dustyrose"><path d="M2640 3284 c-14 -9 -40 -36 -59 -60 -18 -24 -40 -44 -47 -44 -8 0 -14 -4 -14 -9 0 -5 -11 -22 -24 -38 -13 -15 -27 -48 -30 -73 -11 -70 -15 -79 -39 -82 -16 -2 -32 -23 -59 -77 -20 -40 -46 -83 -57 -95 -22 -24 -27 -51 -11 -61 6 -3 10 -13 10 -21 0 -11 -4 -12 -19 -2 -32 20 -51 -5 -51 -66 0 -44 -4 -57 -26 -77 -22 -20 -25 -30 -21 -62 6 -44 -5 -90 -26 -112 -19 -18 -37 -100 -37 -166 0 -27 -6 -60 -14 -72 -8 -12 -17 -62 -21 -112 -31 -366 -23 -572 25 -604 14 -9 20 -24 20 -50 0 -37 22 -76 71 -125 13 -13 29 -30 36 -38 7 -7 24 -22 39 -33 14 -11 31 -26 37 -33 7 -7 20 -21 30 -30 9 -9 17 -23 17 -30 0 -17 91 -112 107 -112 7 0 26 -14 43 -30 17 -17 39 -30 49 -30 10 0 28 -9 41 -20 12 -11 38 -22 56 -26 19 -3 38 -12 42 -19 4 -6 24 -15 46 -18 21 -3 47 -14 57 -23 11 -10 31 -18 47 -19 36 -2 134 -26 147 -35 25 -19 68 -20 94 -4 49 32 111 103 111 129 0 18 11 32 39 49 32 20 40 33 46 66 5 29 14 44 28 50 50 21 66 45 64 94 -2 39 2 51 20 66 17 13 24 33 29 75 5 36 14 65 26 77 10 10 18 26 18 36 0 29 26 93 34 85 5 -5 -7 14 -25 41 -49 69 -47 66 -54 119 -5 37 -12 50 -29 58 -33 15 -62 67 -46 82 10 9 14 9 17 0 8 -22 32 -15 28 8 -5 26 -4 25 -37 33 -17 4 -28 2 -28 -4 0 -16 -46 -12 -60 5 -7 8 -22 15 -34 15 -13 0 -33 11 -46 24 -14 16 -36 26 -59 28 -31 3 -36 7 -39 31 -2 15 -8 25 -13 21 -6 -3 -20 5 -33 19 -12 13 -28 26 -34 28 -17 6 -24 130 -12 204 6 33 12 70 13 82 4 33 17 41 24 15 9 -36 33 -27 33 13 0 35 -20 49 -36 23 -9 -14 -34 18 -34 44 0 10 -11 24 -25 30 -20 9 -25 19 -25 46 0 20 -7 43 -16 53 -9 10 -18 37 -21 61 -4 23 -12 49 -20 56 -7 8 -11 18 -8 23 4 5 2 9 -3 9 -5 0 -13 8 -16 18 -4 9 -18 37 -31 62 -14 25 -25 59 -25 77 0 17 -7 38 -15 47 -8 8 -15 26 -15 40 0 25 15 32 55 27 6 -1 -2 9 -17 22 -21 17 -28 32 -28 59 0 20 5 40 10 43 6 3 10 44 10 90 0 75 -2 85 -22 99 -12 9 -32 16 -45 16 -12 0 -28 7 -37 15 -19 19 -44 19 -76 -1z m-400 -1655 c0 -24 -23 -21 -28 4 -2 10 3 17 12 17 10 0 16 -9 16 -21z m510 -15 c0 -8 -9 -14 -20 -14 -22 0 -26 10 -8 28 13 13 28 7 28 -14z m-560 -159 c0 -8 -9 -15 -20 -15 -20 0 -26 11 -13 23 12 13 33 7 33 -8z m244 -91 c4 -9 4 -19 2 -21 -8 -8 -60 13 -64 25 -6 19 55 15 62 -4z m265 3 c6 -8 8 -17 5 -20 -10 -9 -45 13 -39 24 9 13 21 11 34 -4z" transform="translate(0.000000,350.000000) scale(0.100000,-0.100000)"/><path d="M2862 2913 c5 -26 38 -29 38 -4 0 15 -6 21 -21 21 -14 0 -19 -5 -17 -17z" transform="translate(0.000000,350.000000) scale(0.100000,-0.100000)"/><path d="M365 2225 c-75 -26 -93 -42 -99 -87 -3 -24 -8 -60 -12 -80 -6 -36 -5 -38 20 -38 14 0 26 -5 26 -10 0 -6 12 -16 28 -22 15 -7 34 -21 43 -30 9 -10 24 -18 33 -18 22 0 165 -145 199 -202 15 -26 27 -60 27 -77 0 -20 7 -34 19 -41 11 -5 22 -23 26 -39 3 -16 17 -41 30 -55 13 -14 27 -42 31 -61 3 -19 10 -35 15 -35 5 0 21 -27 36 -60 14 -33 30 -60 34 -60 5 0 9 -5 9 -11 0 -18 27 -39 51 -39 12 0 27 -7 33 -15 6 -8 31 -19 56 -23 40 -7 45 -10 48 -37 2 -17 11 -38 20 -49 27 -29 29 -163 4 -234 -11 -31 -23 -82 -26 -113 -5 -48 -3 -59 14 -74 18 -16 19 -20 5 -35 -13 -15 -12 -25 11 -93 14 -42 31 -78 37 -78 7 -1 21 -1 32 0 11 0 14 -2 8 -5 -33 -14 12 -94 53 -94 7 0 14 -4 14 -10 0 -5 6 -10 14 -10 8 0 28 -11 44 -25 17 -14 38 -25 49 -25 10 0 30 -8 43 -17 13 -9 51 -20 84 -24 43 -5 65 -13 77 -28 29 -35 99 -32 99 4 0 21 13 19 27 -4 9 -14 30 -20 100 -25 111 -9 124 -9 190 -1 50 6 56 9 69 41 8 19 18 34 24 34 5 0 12 21 15 47 3 27 9 53 13 59 4 7 24 36 44 66 22 32 42 77 49 109 6 30 15 59 19 64 16 19 32 172 26 246 -3 41 -8 130 -12 199 -4 81 -11 132 -20 145 -8 11 -14 32 -14 48 0 18 -12 39 -35 62 -29 30 -34 40 -28 66 5 25 1 35 -21 55 -14 14 -26 29 -26 34 0 12 -45 56 -70 70 -11 6 -20 15 -20 20 0 19 -64 70 -125 99 -38 18 -65 37 -65 46 0 8 -5 15 -12 15 -6 0 -26 11 -43 24 -18 14 -44 28 -59 32 -14 3 -26 10 -26 15 0 4 -16 16 -36 25 -20 9 -38 23 -41 31 -3 7 -13 13 -23 13 -10 0 -32 11 -48 25 -17 14 -39 25 -50 25 -12 0 -27 9 -35 20 -8 11 -29 23 -48 26 -19 4 -45 15 -58 26 -26 20 -51 24 -51 8 0 -22 -18 -8 -23 19 -6 29 -33 41 -96 41 -17 0 -36 10 -49 25 -26 30 -43 32 -60 5 -18 -29 -30 -25 -50 18 -18 39 -19 39 -117 33 -49 -3 -106 12 -116 30 -12 23 -32 24 -49 4 -14 -16 -33 -14 -84 11 -34 16 -154 16 -201 -1z m1205 -1150 c0 -26 -14 -33 -25 -15 -9 14 1 40 15 40 5 0 10 -11 10 -25z m230 -125 c0 -15 -7 -20 -25 -20 -29 0 -33 15 -7 29 25 15 32 13 32 -9z m-174 -141 c9 -16 -12 -33 -31 -25 -14 5 -15 9 -5 21 15 18 26 19 36 4z" transform="translate(0.000000,350.000000) scale(0.100000,-0.100000)"/><path d="M570 1590 c0 -5 7 -10 15 -10 8 0 15 5 15 10 0 6 -7 10 -15 10 -8 0 -15 -4 -15 -10z" transform="translate(0.000000,350.000000) scale(0.100000,-0.100000)"/><path d="M944 746 c-8 -21 -1 -59 12 -63 13 -4 25 43 17 64 -7 17 -22 17 -29 -1z" transform="translate(0.000000,350.000000) scale(0.100000,-0.100000)"/></clipPath></defs>
<path d="M2640 3284 c-14 -9 -40 -36 -59 -60 -18 -24 -40 -44 -47 -44 -8 0 -14 -4 -14 -9 0 -5 -11 -22 -24 -38 -13 -15 -27 -48 -30 -73 -11 -70 -15 -79 -39 -82 -16 -2 -32 -23 -59 -77 -20 -40 -46 -83 -57 -95 -22 -24 -27 -51 -11 -61 6 -3 10 -13 10 -21 0 -11 -4 -12 -19 -2 -32 20 -51 -5 -51 -66 0 -44 -4 -57 -26 -77 -22 -20 -25 -30 -21 -62 6 -44 -5 -90 -26 -112 -19 -18 -37 -100 -37 -166 0 -27 -6 -60 -14 -72 -8 -12 -17 -62 -21 -112 -31 -366 -23 -572 25 -604 14 -9 20 -24 20 -50 0 -37 22 -76 71 -125 13 -13 29 -30 36 -38 7 -7 24 -22 39 -33 14 -11 31 -26 37 -33 7 -7 20 -21 30 -30 9 -9 17 -23 17 -30 0 -17 91 -112 107 -112 7 0 26 -14 43 -30 17 -17 39 -30 49 -30 10 0 28 -9 41 -20 12 -11 38 -22 56 -26 19 -3 38 -12 42 -19 4 -6 24 -15 46 -18 21 -3 47 -14 57 -23 11 -10 31 -18 47 -19 36 -2 134 -26 147 -35 25 -19 68 -20 94 -4 49 32 111 103 111 129 0 18 11 32 39 49 32 20 40 33 46 66 5 29 14 44 28 50 50 21 66 45 64 94 -2 39 2 51 20 66 17 13 24 33 29 75 5 36 14 65 26 77 10 10 18 26 18 36 0 29 26 93 34 85 5 -5 -7 14 -25 41 -49 69 -47 66 -54 119 -5 37 -12 50 -29 58 -33 15 -62 67 -46 82 10 9 14 9 17 0 8 -22 32 -15 28 8 -5 26 -4 25 -37 33 -17 4 -28 2 -28 -4 0 -16 -46 -12 -60 5 -7 8 -22 15 -34 15 -13 0 -33 11 -46 24 -14 16 -36 26 -59 28 -31 3 -36 7 -39 31 -2 15 -8 25 -13 21 -6 -3 -20 5 -33 19 -12 13 -28 26 -34 28 -17 6 -24 130 -12 204 6 33 12 70 13 82 4 33 17 41 24 15 9 -36 33 -27 33 13 0 35 -20 49 -36 23 -9 -14 -34 18 -34 44 0 10 -11 24 -25 30 -20 9 -25 19 -25 46 0 20 -7 43 -16 53 -9 10 -18 37 -21 61 -4 23 -12 49 -20 56 -7 8 -11 18 -8 23 4 5 2 9 -3 9 -5 0 -13 8 -16 18 -4 9 -18 37 -31 62 -14 25 -25 59 -25 77 0 17 -7 38 -15 47 -8 8 -15 26 -15 40 0 25 15 32 55 27 6 -1 -2 9 -17 22 -21 17 -28 32 -28 59 0 20 5 40 10 43 6 3 10 44 10 90 0 75 -2 85 -22 99 -12 9 -32 16 -45 16 -12 0 -28 7 -37 15 -19 19 -44 19 -76 -1z m-400 -1655 c0 -24 -23 -21 -28 4 -2 10 3 17 12 17 10 0 16 -9 16 -21z m510 -15 c0 -8 -9 -14 -20 -14 -22 0 -26 10 -8 28 13 13 28 7 28 -14z m-560 -159 c0 -8 -9 -15 -20 -15 -20 0 -26 11 -13 23 12 13 33 7 33 -8z m244 -91 c4 -9 4 -19 2 -21 -8 -8 -60 13 -64 25 -6 19 55 15 62 -4z m265 3 c6 -8 8 -17 5 -20 -10 -9 -45 13 -39 24 9 13 21 11 34 -4z" fill="#D4899E" transform="translate(0.000000,350.000000) scale(0.100000,-0.100000)"/>
<path d="M2862 2913 c5 -26 38 -29 38 -4 0 15 -6 21 -21 21 -14 0 -19 -5 -17 -17z" fill="#D4899E" transform="translate(0.000000,350.000000) scale(0.100000,-0.100000)"/>
<path d="M365 2225 c-75 -26 -93 -42 -99 -87 -3 -24 -8 -60 -12 -80 -6 -36 -5 -38 20 -38 14 0 26 -5 26 -10 0 -6 12 -16 28 -22 15 -7 34 -21 43 -30 9 -10 24 -18 33 -18 22 0 165 -145 199 -202 15 -26 27 -60 27 -77 0 -20 7 -34 19 -41 11 -5 22 -23 26 -39 3 -16 17 -41 30 -55 13 -14 27 -42 31 -61 3 -19 10 -35 15 -35 5 0 21 -27 36 -60 14 -33 30 -60 34 -60 5 0 9 -5 9 -11 0 -18 27 -39 51 -39 12 0 27 -7 33 -15 6 -8 31 -19 56 -23 40 -7 45 -10 48 -37 2 -17 11 -38 20 -49 27 -29 29 -163 4 -234 -11 -31 -23 -82 -26 -113 -5 -48 -3 -59 14 -74 18 -16 19 -20 5 -35 -13 -15 -12 -25 11 -93 14 -42 31 -78 37 -78 7 -1 21 -1 32 0 11 0 14 -2 8 -5 -33 -14 12 -94 53 -94 7 0 14 -4 14 -10 0 -5 6 -10 14 -10 8 0 28 -11 44 -25 17 -14 38 -25 49 -25 10 0 30 -8 43 -17 13 -9 51 -20 84 -24 43 -5 65 -13 77 -28 29 -35 99 -32 99 4 0 21 13 19 27 -4 9 -14 30 -20 100 -25 111 -9 124 -9 190 -1 50 6 56 9 69 41 8 19 18 34 24 34 5 0 12 21 15 47 3 27 9 53 13 59 4 7 24 36 44 66 22 32 42 77 49 109 6 30 15 59 19 64 16 19 32 172 26 246 -3 41 -8 130 -12 199 -4 81 -11 132 -20 145 -8 11 -14 32 -14 48 0 18 -12 39 -35 62 -29 30 -34 40 -28 66 5 25 1 35 -21 55 -14 14 -26 29 -26 34 0 12 -45 56 -70 70 -11 6 -20 15 -20 20 0 19 -64 70 -125 99 -38 18 -65 37 -65 46 0 8 -5 15 -12 15 -6 0 -26 11 -43 24 -18 14 -44 28 -59 32 -14 3 -26 10 -26 15 0 4 -16 16 -36 25 -20 9 -38 23 -41 31 -3 7 -13 13 -23 13 -10 0 -32 11 -48 25 -17 14 -39 25 -50 25 -12 0 -27 9 -35 20 -8 11 -29 23 -48 26 -19 4 -45 15 -58 26 -26 20 -51 24 -51 8 0 -22 -18 -8 -23 19 -6 29 -33 41 -96 41 -17 0 -36 10 -49 25 -26 30 -43 32 -60 5 -18 -29 -30 -25 -50 18 -18 39 -19 39 -117 33 -49 -3 -106 12 -116 30 -12 23 -32 24 -49 4 -14 -16 -33 -14 -84 11 -34 16 -154 16 -201 -1z m1205 -1150 c0 -26 -14 -33 -25 -15 -9 14 1 40 15 40 5 0 10 -11 10 -25z m230 -125 c0 -15 -7 -20 -25 -20 -29 0 -33 15 -7 29 25 15 32 13 32 -9z m-174 -141 c9 -16 -12 -33 -31 -25 -14 5 -15 9 -5 21 15 18 26 19 36 4z" fill="#D4899E" transform="translate(0.000000,350.000000) scale(0.100000,-0.100000)"/>
<path d="M570 1590 c0 -5 7 -10 15 -10 8 0 15 5 15 10 0 6 -7 10 -15 10 -8 0 -15 -4 -15 -10z" fill="#D4899E" transform="translate(0.000000,350.000000) scale(0.100000,-0.100000)"/>
<path d="M944 746 c-8 -21 -1 -59 12 -63 13 -4 25 43 17 64 -7 17 -22 17 -29 -1z" fill="#D4899E" transform="translate(0.000000,350.000000) scale(0.100000,-0.100000)"/>
<g clip-path="url(#bf-clip-dustyrose)">
<path d="M2670 3305 c-7 -8 -19 -15 -26 -15 -8 0 -11 -6 -8 -15 4 -10 0 -15 -10 -15 -14 0 -44 -27 -140 -130 -8 -8 -17 -33 -21 -55 -13 -83 -13 -83 -40 -77 -21 4 -27 -1 -40 -31 -8 -20 -19 -38 -25 -42 -5 -3 -10 -15 -10 -25 0 -25 -39 -90 -54 -90 -7 0 -13 -7 -13 -15 0 -11 11 -15 39 -15 37 0 40 3 59 48 22 50 75 110 87 98 4 -4 -1 -13 -11 -20 -12 -10 -17 -27 -17 -64 0 -79 35 -84 47 -6 3 21 14 47 24 57 24 23 24 43 -1 64 -24 21 -26 69 -6 116 17 41 104 133 134 142 27 8 29 -6 2 -30 -11 -10 -20 -23 -20 -30 0 -7 -9 -20 -20 -30 -24 -22 -27 -75 -5 -75 9 0 20 11 25 24 5 13 20 35 34 49 14 15 26 32 26 39 1 7 11 26 24 42 29 34 48 30 72 -15 15 -30 15 -36 0 -83 -9 -28 -18 -86 -22 -129 -5 -62 -9 -79 -25 -87 -10 -6 -19 -17 -19 -25 0 -8 -5 -15 -11 -15 -14 0 -179 -165 -179 -179 0 -6 -15 -11 -34 -11 -30 0 -36 -4 -45 -33 -12 -34 -6 -67 10 -67 5 0 27 18 50 40 22 21 49 42 60 45 10 4 19 12 19 19 0 7 9 21 20 31 11 10 20 24 20 32 0 7 11 18 25 23 14 5 25 14 25 19 0 5 11 12 24 15 14 3 28 15 31 27 5 15 14 19 33 17 24 -3 29 -10 43 -67 17 -64 31 -83 59 -78 24 4 22 31 -4 62 -17 19 -27 47 -32 82 -3 29 -12 57 -19 63 -20 17 -6 50 21 50 30 0 30 11 0 39 -22 21 -26 46 -13 69 3 4 8 36 12 72 4 36 9 68 11 72 3 4 -4 15 -16 25 -11 10 -20 25 -20 34 0 18 -19 29 -50 29 -11 0 -24 9 -30 20 -13 24 -33 26 -50 5z" fill="#8C4A60" transform="translate(0.000000,350.000000) scale(0.100000,-0.100000)"/>
<path d="M2941 3053 c-16 -17 -11 -25 8 -14 7 5 12 13 10 19 -2 6 -10 4 -18 -5z" fill="#8C4A60" transform="translate(0.000000,350.000000) scale(0.100000,-0.100000)"/>
<path d="M2537 3033 c-4 -3 -7 -19 -7 -35 0 -25 4 -29 23 -26 17 2 23 11 25 36 3 26 0 32 -16 32 -10 0 -22 -3 -25 -7z" fill="#8C4A60" transform="translate(0.000000,350.000000) scale(0.100000,-0.100000)"/>
<path d="M2840 2923 c0 -15 34 -43 53 -43 9 0 17 4 17 9 0 5 3 18 6 28 5 17 5 17 -9 1 -18 -22 -26 -22 -49 -1 -10 9 -18 12 -18 6z" fill="#8C4A60" transform="translate(0.000000,350.000000) scale(0.100000,-0.100000)"/>
<path d="M2202 2731 c-9 -26 -9 -37 -1 -45 9 -8 10 -8 5 2 -4 6 -2 12 4 12 7 0 10 7 7 14 -4 10 -1 13 9 9 9 -3 14 -20 14 -53 0 -38 -6 -55 -27 -81 -24 -28 -28 -43 -29 -98 -1 -48 -6 -68 -18 -77 -9 -6 -20 -29 -24 -50 l-6 -39 -7 35 c-4 19 -5 -10 -2 -65 5 -85 3 -103 -11 -114 -11 -9 -16 -31 -17 -65 -1 -28 -4 -76 -9 -106 -7 -51 -7 -46 -10 50 l-4 105 -6 -120 c-3 -66 -2 -142 3 -168 6 -31 5 -58 -2 -75 -5 -15 -13 -67 -17 -115 -5 -72 -4 -91 9 -105 8 -9 21 -45 27 -79 7 -35 21 -69 31 -79 11 -9 19 -27 19 -40 0 -25 55 -114 71 -114 5 0 15 -11 21 -25 6 -14 17 -25 25 -25 7 0 16 -7 19 -15 4 -8 12 -15 19 -15 17 0 61 -58 81 -109 9 -22 20 -41 26 -41 5 0 6 -4 3 -10 -3 -5 3 -10 15 -10 12 0 19 -4 16 -9 -7 -10 16 -21 43 -21 23 0 67 -46 50 -52 -6 -2 5 -4 26 -5 21 -1 40 -5 44 -11 3 -5 16 -12 29 -16 12 -4 22 -12 22 -17 0 -5 11 -9 25 -9 14 0 25 -4 25 -9 0 -5 19 -12 43 -16 23 -4 50 -16 60 -26 11 -12 31 -19 54 -19 37 0 114 -19 123 -30 3 -4 27 -10 54 -14 42 -5 55 -3 83 16 18 13 33 28 33 33 0 6 14 19 30 30 20 13 30 28 30 45 0 31 8 41 45 60 22 12 33 27 43 63 9 31 19 47 29 47 30 0 -16 39 -54 46 -19 4 -45 17 -58 30 -15 15 -36 24 -55 24 -17 0 -33 6 -36 14 -9 24 -59 39 -83 26 -12 -6 -21 -15 -21 -20 0 -13 42 -40 62 -40 9 0 21 -6 25 -14 11 -18 47 -36 72 -36 25 0 90 -41 91 -57 0 -6 -13 -21 -30 -33 l-29 -21 -21 21 c-11 11 -29 20 -40 20 -10 0 -23 6 -27 14 -11 19 -47 36 -76 36 -14 0 -30 7 -37 15 -14 16 -75 21 -85 6 -8 -14 23 -41 48 -41 12 0 28 -9 34 -19 7 -11 27 -22 45 -26 18 -4 39 -16 46 -26 7 -11 22 -19 32 -19 56 0 67 -39 23 -82 -16 -15 -39 -38 -53 -52 -29 -31 -35 -31 -120 -3 -56 19 -65 26 -68 48 -3 28 -69 89 -96 89 -25 0 -46 11 -46 25 0 7 -13 18 -29 25 -16 6 -32 18 -35 25 -3 8 -21 17 -41 21 -19 3 -40 15 -46 25 -7 13 -21 19 -45 19 -24 0 -37 5 -41 18 -8 21 -23 32 -46 32 -28 0 -18 -44 10 -48 13 -2 29 -12 36 -23 8 -10 28 -22 46 -25 17 -4 36 -15 41 -25 6 -9 24 -20 40 -24 17 -4 42 -17 57 -30 51 -46 62 -53 79 -57 11 -2 20 -11 22 -21 5 -26 -29 -22 -106 14 -37 17 -91 42 -119 55 -29 14 -53 29 -53 33 0 5 -11 13 -24 18 -32 11 -116 90 -116 109 0 18 -51 69 -103 104 -20 14 -37 31 -37 37 0 7 -11 20 -25 29 -14 9 -25 24 -25 33 0 9 -7 25 -15 35 -25 33 -19 48 14 41 16 -3 38 -1 48 4 10 6 30 15 46 21 58 21 20 54 -50 43 -32 -5 -40 -2 -60 23 -23 28 -24 29 -39 9 -12 -16 -16 -17 -23 -6 -18 28 -21 140 -11 330 9 172 13 198 32 230 20 32 22 47 19 134 -3 109 9 145 37 106 10 -15 17 -18 25 -10 8 8 8 14 -1 23 -14 14 -16 72 -2 97 6 13 5 24 -5 37 -19 25 -19 78 1 95 13 11 19 8 40 -17 l25 -29 -5 48 c-6 49 13 107 34 107 21 0 9 31 -16 40 -14 6 -28 20 -31 31 -4 16 -11 19 -29 15 -16 -4 -24 -1 -26 11 -3 13 -8 7 -16 -16z" fill="#8C4A60" transform="translate(0.000000,350.000000) scale(0.100000,-0.100000)"/>
<path d="M2911 2619 c-39 -35 -42 -41 -30 -57 24 -28 45 -85 41 -109 -2 -15 -13 -24 -33 -28 -16 -4 -35 -14 -41 -24 -7 -10 -26 -21 -42 -25 -29 -7 -77 -51 -97 -88 -6 -11 -21 -18 -39 -18 -20 0 -30 -5 -30 -15 0 -10 10 -15 30 -15 18 0 33 6 36 15 4 8 13 15 21 15 8 0 28 11 45 25 16 14 38 25 49 25 10 0 24 9 31 20 7 11 18 20 25 20 7 0 23 10 35 22 20 20 22 20 35 3 7 -11 13 -34 13 -53 l0 -33 26 20 c35 27 69 27 88 -1 16 -22 16 -22 16 15 0 36 -20 52 -35 27 -12 -19 -23 -10 -39 30 -9 22 -22 40 -30 40 -9 0 -16 16 -20 45 -4 25 -12 45 -18 45 -5 0 -7 7 -4 16 3 8 2 12 -4 9 -16 -10 -12 39 6 74 9 18 14 34 13 36 -2 1 -24 -15 -48 -36z" fill="#8C4A60" transform="translate(0.000000,350.000000) scale(0.100000,-0.100000)"/>
<path d="M2750 2593 c-17 -16 -47 -43 -66 -60 -19 -18 -39 -33 -44 -33 -6 0 -10 -9 -10 -20 0 -13 -7 -20 -20 -20 -11 0 -23 -7 -27 -16 -3 -8 -17 -20 -30 -25 -14 -5 -27 -18 -30 -28 -3 -11 -13 -21 -24 -24 -25 -7 -25 -37 1 -37 11 0 20 6 20 14 0 8 14 19 30 25 17 5 30 15 30 21 0 20 54 67 93 79 20 7 37 17 37 22 0 5 6 9 14 9 8 0 22 10 30 21 8 12 25 27 38 33 14 7 24 22 26 39 4 37 -27 36 -68 0z" fill="#8C4A60" transform="translate(0.000000,350.000000) scale(0.100000,-0.100000)"/>
<path d="M2150 2590 c0 -11 4 -20 9 -20 5 0 7 9 4 20 -3 11 -7 20 -9 20 -2 0 -4 -9 -4 -20z" fill="#8C4A60" transform="translate(0.000000,350.000000) scale(0.100000,-0.100000)"/>
<path d="M3140 2416 c0 -10 28 -13 41 -5 10 6 7 9 -13 9 -16 0 -28 -2 -28 -4z" fill="#8C4A60" transform="translate(0.000000,350.000000) scale(0.100000,-0.100000)"/>
<path d="M560 2309 c0 -5 9 -9 20 -9 11 0 20 2 20 4 0 2 -9 6 -20 9 -11 3 -20 1 -20 -4z" fill="#8C4A60" transform="translate(0.000000,350.000000) scale(0.100000,-0.100000)"/>
<path d="M668 2283 c6 -2 18 -2 25 0 6 3 1 5 -13 5 -14 0 -19 -2 -12 -5z" fill="#8C4A60" transform="translate(0.000000,350.000000) scale(0.100000,-0.100000)"/>
<path d="M2966 2264 c-3 -9 -6 -33 -6 -54 0 -23 -6 -44 -16 -52 -8 -7 -29 -25 -45 -40 -16 -16 -39 -28 -50 -28 -12 0 -23 -8 -26 -20 -3 -11 -16 -23 -29 -26 -13 -3 -24 -10 -24 -15 0 -5 -11 -19 -25 -31 -30 -26 -32 -38 -5 -38 13 0 20 7 20 20 0 14 7 20 21 20 11 0 32 9 46 20 14 11 39 20 54 20 22 0 29 5 29 20 0 15 7 20 26 20 19 0 25 -5 22 -17 -2 -10 -12 -19 -23 -22 -11 -2 -26 -12 -33 -22 -7 -11 -20 -19 -28 -19 -8 0 -19 -11 -24 -25 -5 -14 -14 -25 -19 -25 -15 0 -71 -60 -71 -76 0 -21 38 -17 45 5 3 10 17 22 30 25 14 4 25 11 25 16 0 5 14 16 30 25 17 9 30 22 30 29 0 14 21 26 46 26 17 0 82 -66 94 -95 10 -26 -14 -73 -45 -87 -14 -6 -27 -19 -30 -29 -3 -10 -18 -19 -33 -21 -17 -2 -31 -12 -39 -29 -10 -20 -23 -28 -53 -33 -43 -7 -55 -25 -17 -27 37 -2 51 2 62 16 6 7 27 16 47 20 20 4 39 13 42 21 3 8 12 14 19 14 8 0 34 25 57 55 30 39 49 55 66 55 26 0 118 -39 149 -64 17 -13 18 -17 5 -26 -8 -5 -30 -10 -47 -10 -20 0 -41 -8 -53 -20 -13 -13 -33 -20 -60 -20 -27 0 -47 -7 -60 -20 -11 -11 -39 -24 -61 -29 -42 -10 -63 -27 -52 -44 8 -13 97 3 106 19 4 8 21 14 38 14 16 0 51 11 77 25 37 20 61 25 118 25 66 0 71 -2 92 -30 25 -33 27 -41 11 -57 -8 -8 -22 -8 -47 -1 -50 14 -140 1 -160 -23 -9 -10 -29 -19 -43 -19 -36 0 -59 -9 -59 -24 -1 -18 -47 -65 -75 -76 -16 -6 -25 -17 -25 -31 0 -21 3 -21 57 -15 59 7 83 18 64 30 -15 10 -14 56 2 56 7 0 31 9 52 21 31 16 62 22 135 24 93 3 96 3 116 -23 l22 -27 31 34 c17 19 30 35 29 36 -2 1 -12 7 -23 13 -12 6 -23 29 -31 62 -11 48 -10 53 6 57 20 5 33 29 25 43 -3 4 -15 6 -28 3 -18 -4 -19 -3 -7 6 12 8 12 11 1 11 -7 0 -11 6 -7 15 3 8 1 15 -5 15 -6 0 -8 4 -4 9 3 5 1 12 -5 16 -6 4 -8 11 -5 16 4 5 -5 9 -19 9 -18 0 -24 4 -20 14 4 11 0 13 -16 9 -11 -3 -19 -8 -16 -10 2 -3 -5 -14 -16 -25 -17 -17 -22 -18 -36 -5 -9 8 -32 18 -50 22 -21 4 -37 16 -44 31 -6 13 -15 25 -20 25 -4 1 -12 3 -18 4 -5 1 -15 3 -21 4 -5 0 -7 6 -4 11 3 6 0 10 -7 10 -10 0 -10 2 1 9 8 5 11 16 8 24 -7 19 -44 18 -52 -1 -3 -10 -14 -6 -40 15 l-35 28 0 92 c0 50 5 95 10 98 20 12 11 52 -12 59 -33 8 -35 8 -42 -10z m444 -453 c0 -9 6 -23 13 -30 10 -11 9 -12 -3 -6 -13 8 -13 6 -2 -8 8 -9 11 -21 7 -27 -10 -16 -45 7 -45 31 0 11 -4 17 -10 14 -12 -8 -13 -3 0 29 10 28 40 26 40 -3z" fill="#8C4A60" transform="translate(0.000000,350.000000) scale(0.100000,-0.100000)"/>
<path d="M668 2263 c6 -2 18 -2 25 0 6 3 1 5 -13 5 -14 0 -19 -2 -12 -5z" fill="#8C4A60" transform="translate(0.000000,350.000000) scale(0.100000,-0.100000)"/>
<path d="M391 2233 c-20 -6 -55 -16 -78 -23 -36 -9 -43 -15 -43 -35 0 -14 -6 -46 -12 -72 -10 -37 -10 -47 0 -50 20 -7 14 -26 -7 -20 -10 2 -25 1 -32 -4 -10 -6 -10 -9 -2 -9 7 0 10 -7 7 -15 -9 -21 25 -19 42 3 13 15 15 16 27 1 6 -9 22 -19 35 -23 12 -4 26 -16 32 -26 5 -10 21 -21 36 -24 30 -8 127 -99 117 -110 -4 -4 -1 -5 7 -2 13 5 63 -58 79 -98 2 -6 11 -17 19 -25 8 -8 12 -26 9 -44 l-4 -29 18 23 c24 31 24 53 -1 89 -11 17 -29 43 -40 60 -11 16 -20 34 -20 40 0 6 43 10 119 10 133 0 181 7 181 25 0 18 -48 25 -179 25 -84 -1 -121 -5 -135 -15 -16 -12 -26 -7 -104 56 -47 38 -93 69 -101 69 -9 0 -29 13 -44 30 -23 24 -26 33 -18 49 6 11 11 28 11 39 0 52 240 81 307 36 35 -22 18 -36 -41 -33 -116 5 -196 -1 -196 -15 0 -17 40 -24 154 -25 78 -2 92 1 112 20 30 28 54 19 54 -21 0 -35 26 -50 90 -50 29 0 42 -5 50 -20 6 -11 18 -20 28 -20 9 0 22 -10 27 -22 11 -26 40 -31 40 -8 0 8 -10 19 -23 25 -12 5 -25 18 -28 27 -3 10 -14 18 -24 18 -12 0 -20 8 -22 22 -2 15 -14 26 -33 33 -42 14 -49 29 -18 37 27 7 63 -5 63 -22 0 -6 14 -10 30 -10 25 0 30 4 30 24 0 13 7 29 15 36 9 7 14 19 11 27 -3 8 2 13 12 13 13 0 14 2 3 9 -11 7 -11 10 0 15 8 3 -1 5 -18 3 -18 -2 -33 0 -33 5 0 4 -5 8 -11 8 -5 0 -8 -4 -5 -9 4 -5 0 -12 -6 -14 -7 -3 -3 -6 10 -6 12 -1 22 -5 22 -11 0 -6 -37 -10 -90 -10 -84 0 -92 2 -112 25 -25 29 -35 31 -60 8 -16 -14 -22 -14 -46 -3 -39 20 -168 28 -211 13z" fill="#8C4A60" transform="translate(0.000000,350.000000) scale(0.100000,-0.100000)"/>
<path d="M2583 2200 c-3 -11 -14 -20 -24 -20 -22 0 -35 -18 -22 -31 6 -6 20 0 37 16 15 14 31 25 37 25 5 0 9 7 9 15 0 22 -31 18 -37 -5z" fill="#8C4A60" transform="translate(0.000000,350.000000) scale(0.100000,-0.100000)"/>
<path d="M3160 2160 c-12 -8 -10 -10 8 -10 13 0 20 4 17 10 -7 12 -6 12 -25 0z" fill="#8C4A60" transform="translate(0.000000,350.000000) scale(0.100000,-0.100000)"/>
<path d="M990 2146 c0 -8 5 -18 11 -21 5 -4 9 -21 7 -38 -3 -31 -1 -32 36 -35 22 -2 50 -12 63 -22 23 -18 53 -17 53 1 0 13 44 11 58 -3 7 -7 12 -22 12 -34 0 -19 6 -23 38 -26 32 -3 37 -7 40 -30 4 -33 29 -44 53 -22 23 21 42 9 34 -23 -5 -23 -4 -24 41 -21 31 2 48 -1 51 -9 3 -7 -2 -13 -11 -13 -9 0 -16 -4 -16 -9 0 -17 19 -22 37 -11 20 13 73 -2 73 -20 0 -5 13 -10 30 -10 19 0 33 -7 40 -20 6 -11 22 -23 36 -26 13 -3 29 -15 35 -25 5 -11 24 -26 42 -34 63 -31 88 -47 100 -66 6 -10 15 -19 20 -19 18 0 101 -78 127 -119 l28 -45 -23 -30 c-12 -17 -26 -41 -30 -53 -4 -14 -14 -23 -26 -23 -11 0 -24 -11 -31 -25 -6 -14 -19 -25 -29 -25 -10 0 -26 -11 -35 -24 -10 -16 -27 -26 -47 -28 -21 -2 -33 -9 -35 -20 -5 -27 54 -25 70 2 7 11 22 20 34 20 11 0 30 11 42 25 12 14 29 25 37 25 8 0 17 11 21 25 7 27 22 33 30 11 7 -19 -43 -116 -60 -116 -12 0 -31 -24 -72 -92 -6 -10 -18 -26 -27 -36 -10 -10 -17 -24 -17 -30 0 -6 -9 -16 -20 -22 -12 -6 -55 -47 -98 -91 -42 -45 -96 -92 -119 -106 -24 -14 -47 -32 -52 -41 -6 -11 -30 -16 -90 -20 -51 -3 -85 -10 -92 -18 -6 -8 -26 -14 -45 -14 -18 0 -39 -7 -46 -16 -7 -8 -23 -25 -35 -36 -13 -12 -23 -28 -23 -35 0 -7 -5 -13 -12 -13 -7 0 -31 -21 -54 -47 -23 -27 -45 -45 -49 -41 -4 4 -11 28 -16 54 -8 41 -6 52 13 80 13 18 34 35 49 38 15 3 30 14 34 25 3 10 18 22 33 26 15 4 34 12 42 19 8 8 27 16 41 20 15 3 29 15 32 26 5 20 11 24 59 34 15 3 30 15 33 26 4 14 15 20 36 20 33 0 89 47 89 74 0 26 -39 19 -50 -9 -5 -14 -16 -25 -23 -25 -8 0 -22 -8 -31 -19 -10 -11 -37 -21 -65 -25 -29 -4 -51 -12 -55 -21 -3 -8 -17 -15 -30 -15 -16 0 -32 -9 -42 -25 -9 -14 -23 -25 -32 -25 -14 0 -44 -17 -124 -71 -43 -30 -46 -8 -16 111 6 25 20 57 30 71 19 25 18 57 -8 163 -8 33 6 46 52 46 34 0 73 24 61 37 -5 4 -40 8 -78 8 -60 0 -70 3 -75 20 -9 26 -23 35 -60 35 -19 0 -39 9 -54 25 -29 31 -46 32 -71 3 -25 -31 -24 -41 3 -27 17 9 24 9 33 -4 6 -9 23 -18 38 -21 15 -3 37 -8 50 -11 17 -3 22 -12 23 -35 1 -17 9 -36 18 -43 13 -9 17 -29 18 -77 2 -71 -10 -169 -22 -185 -4 -5 -11 -36 -14 -67 -6 -48 -10 -56 -27 -55 -10 1 -22 9 -25 19 -3 10 -12 18 -20 18 -8 0 -13 -4 -10 -9 4 -5 1 -11 -6 -13 -16 -6 -15 -82 1 -102 17 -20 41 -21 41 -2 0 8 8 17 17 21 26 9 51 -27 47 -69 -1 -20 1 -36 6 -36 4 0 12 -17 17 -37 6 -28 15 -39 30 -41 14 -2 20 -8 17 -17 -4 -9 4 -17 21 -21 31 -8 40 2 50 55 4 22 21 49 49 75 24 23 45 47 47 55 3 7 20 19 39 25 20 6 39 21 45 33 13 31 69 42 94 19 16 -15 20 -15 51 0 18 9 35 25 37 35 7 25 29 24 50 -1 24 -28 30 -26 53 20 11 22 25 40 30 40 6 0 15 12 20 26 7 16 16 24 28 22 13 -2 18 -16 22 -62 4 -50 7 -57 18 -44 7 9 16 32 19 51 4 27 1 39 -15 55 -23 23 -14 38 28 44 20 2 28 12 39 48 18 57 43 113 55 122 6 4 19 2 29 -4 18 -9 19 -18 14 -82 -7 -74 -1 -116 14 -116 22 0 29 54 20 142 -8 87 -8 91 17 129 23 35 26 37 38 21 12 -15 15 -15 24 -2 5 8 10 31 10 50 1 112 31 144 56 60 16 -51 19 -180 5 -180 -23 0 -39 -34 -46 -94 -8 -75 0 -126 20 -126 18 0 25 33 25 115 0 86 16 77 32 -19 18 -110 -24 -364 -71 -421 -16 -20 -32 -47 -58 -95 -7 -14 -13 -41 -13 -61 0 -20 -8 -47 -17 -60 -10 -13 -23 -33 -29 -44 -10 -17 -22 -20 -90 -20 l-79 0 3 68 c2 51 7 72 22 87 16 16 20 34 20 89 0 69 -6 86 -27 73 -14 -9 -33 -77 -33 -117 0 -18 -8 -38 -20 -48 -15 -13 -20 -29 -20 -70 0 -58 -12 -77 -46 -77 -27 0 -30 4 -39 56 -5 36 -3 45 20 70 23 25 26 34 23 98 -2 45 -7 71 -16 74 -18 6 -42 -60 -42 -118 0 -37 -4 -50 -15 -50 -8 0 -17 -12 -21 -27 -3 -16 -10 -41 -15 -57 -5 -16 -6 -44 -3 -63 5 -26 9 -31 23 -24 9 5 52 6 96 4 209 -13 295 -1 295 42 0 8 7 18 16 23 8 5 18 27 21 50 3 23 10 39 14 36 5 -3 7 -9 5 -13 -3 -4 -1 -13 5 -21 6 -11 9 -4 9 23 0 23 -4 36 -10 32 -5 -3 -10 -1 -10 5 0 6 7 13 15 16 8 4 15 11 15 18 0 18 48 58 55 46 12 -19 27 -10 23 15 -3 13 -1 22 3 19 5 -3 9 0 9 5 0 6 -4 11 -9 11 -17 0 -22 51 -7 78 36 65 57 306 32 367 -12 27 -16 71 -16 156 0 66 -4 119 -9 119 -5 0 -14 20 -20 45 -6 25 -23 55 -36 67 -18 15 -25 32 -25 56 0 22 -8 43 -22 58 -41 42 -58 64 -58 73 0 5 -9 13 -21 16 -21 7 -43 50 -33 66 3 5 -2 9 -10 9 -9 0 -16 5 -16 10 0 6 -9 10 -20 10 -11 0 -20 5 -20 10 0 6 -10 10 -22 11 -38 1 -102 42 -108 69 -3 15 -15 27 -30 31 -16 5 -19 7 -7 8 9 1 17 6 17 11 0 6 -23 10 -51 10 -40 0 -57 6 -85 28 -18 15 -34 33 -34 40 0 7 -13 12 -29 12 -17 0 -42 11 -59 25 -17 14 -39 25 -49 25 -11 0 -30 11 -43 25 -14 15 -35 25 -51 25 -17 0 -42 12 -62 30 -19 17 -38 30 -42 30 -3 0 -13 7 -21 15 -9 9 -34 15 -59 15 -35 0 -52 6 -78 30 -37 32 -67 39 -67 16z m620 -1352 c0 -8 -5 -12 -10 -9 -6 4 -8 11 -5 16 9 14 15 11 15 -7z m-640 -85 c0 -10 -7 -19 -15 -19 -15 0 -21 31 -9 43 11 10 24 -3 24 -24z" fill="#8C4A60" transform="translate(0.000000,350.000000) scale(0.100000,-0.100000)"/>
<path d="M150 2128 c0 -16 5 -28 11 -28 5 0 7 5 3 12 -5 7 -3 8 5 4 7 -5 10 -14 7 -22 -3 -8 -1 -14 4 -14 6 0 10 9 10 20 0 11 7 20 16 20 8 0 13 4 10 8 -3 5 -15 8 -28 7 -13 -1 -26 3 -30 9 -4 6 -8 -1 -8 -16z" fill="#8C4A60" transform="translate(0.000000,350.000000) scale(0.100000,-0.100000)"/>
<path d="M3129 2135 c0 0 -2 -11 -5 -23 -3 -16 0 -22 8 -20 7 3 13 10 13 17 0 6 7 16 15 21 11 7 10 9 -8 7 -12 0 -22 -1 -23 -2z" fill="#8C4A60" transform="translate(0.000000,350.000000) scale(0.100000,-0.100000)"/>
<path d="M2420 2103 c-11 -15 -19 -33 -18 -42 4 -20 28 -26 28 -6 0 9 15 29 32 46 l32 29 -26 0 c-17 0 -34 -10 -48 -27z" fill="#8C4A60" transform="translate(0.000000,350.000000) scale(0.100000,-0.100000)"/>
<path d="M1260 2089 c0 -5 9 -9 20 -9 11 0 20 2 20 4 0 2 -9 6 -20 9 -11 3 -20 1 -20 -4z" fill="#8C4A60" transform="translate(0.000000,350.000000) scale(0.100000,-0.100000)"/>
<path d="M2356 1943 c-12 -12 -6 -33 9 -33 8 0 15 6 15 14 0 17 -14 28 -24 19z" fill="#8C4A60" transform="translate(0.000000,350.000000) scale(0.100000,-0.100000)"/>
<path d="M2686 1934 c-9 -8 -14 -20 -11 -24 9 -15 35 1 35 21 0 23 -4 24 -24 3z" fill="#8C4A60" transform="translate(0.000000,350.000000) scale(0.100000,-0.100000)"/>
<path d="M960 1906 c0 -16 32 -46 48 -46 26 0 11 38 -18 49 -23 8 -30 7 -30 -3z" fill="#8C4A60" transform="translate(0.000000,350.000000) scale(0.100000,-0.100000)"/>
<path d="M2636 1885 c-17 -18 -13 -35 9 -35 16 0 29 30 17 42 -6 6 -16 3 -26 -7z" fill="#8C4A60" transform="translate(0.000000,350.000000) scale(0.100000,-0.100000)"/>
<path d="M460 1860 c0 -5 5 -10 10 -10 6 0 10 5 10 10 0 6 -4 10 -10 10 -5 0 -10 -4 -10 -10z" fill="#8C4A60" transform="translate(0.000000,350.000000) scale(0.100000,-0.100000)"/>
<path d="M370 1835 c0 -8 -6 -15 -12 -15 -9 0 -8 -3 2 -9 8 -6 18 -7 22 -5 7 5 12 -10 9 -28 0 -5 5 -8 13 -8 8 0 16 -7 20 -15 8 -21 32 -19 56 7 24 26 25 34 4 42 -11 4 -18 -1 -21 -14 -8 -28 -40 -26 -45 4 -3 13 -1 30 3 38 6 10 0 14 -22 16 -20 2 -29 -2 -29 -13z" fill="#8C4A60" transform="translate(0.000000,350.000000) scale(0.100000,-0.100000)"/>
<path d="M2737 1843 c-4 -3 -7 -11 -7 -17 0 -6 5 -5 12 2 6 6 9 14 7 17 -3 3 -9 2 -12 -2z" fill="#8C4A60" transform="translate(0.000000,350.000000) scale(0.100000,-0.100000)"/>
<path d="M2160 1830 c0 -5 5 -10 10 -10 6 0 10 5 10 10 0 6 -4 10 -10 10 -5 0 -10 -4 -10 -10z" fill="#8C4A60" transform="translate(0.000000,350.000000) scale(0.100000,-0.100000)"/>
<path d="M2310 1815 c0 -8 5 -15 10 -15 6 0 10 7 10 15 0 8 -4 15 -10 15 -5 0 -10 -7 -10 -15z" fill="#8C4A60" transform="translate(0.000000,350.000000) scale(0.100000,-0.100000)"/>
<path d="M2687 1803 c-4 -3 -7 -15 -7 -25 0 -22 26 -24 34 -2 10 25 -10 45 -27 27z" fill="#8C4A60" transform="translate(0.000000,350.000000) scale(0.100000,-0.100000)"/>
<path d="M1089 1795 c-4 -3 3 -24 14 -46 16 -33 24 -40 46 -37 35 4 33 29 -4 47 -16 8 -35 21 -40 28 -6 8 -13 11 -16 8z" fill="#8C4A60" transform="translate(0.000000,350.000000) scale(0.100000,-0.100000)"/>
<path d="M1605 1740 c-3 -5 1 -10 9 -10 9 0 16 5 16 10 0 6 -4 10 -9 10 -6 0 -13 -4 -16 -10z" fill="#8C4A60" transform="translate(0.000000,350.000000) scale(0.100000,-0.100000)"/>
<path d="M2540 1731 c0 -12 -9 -23 -22 -27 -13 -4 -27 -13 -33 -20 -5 -7 -19 -14 -30 -16 -12 -2 -21 -13 -23 -26 -3 -20 0 -23 20 -20 13 2 27 12 32 23 5 12 26 34 47 50 40 30 51 55 24 55 -8 0 -15 -9 -15 -19z" fill="#8C4A60" transform="translate(0.000000,350.000000) scale(0.100000,-0.100000)"/>
<path d="M2261 1706 c-6 -14 -19 -26 -33 -28 -21 -3 -23 -9 -26 -66 -2 -49 0 -64 13 -68 29 -12 45 15 45 78 0 43 4 60 15 64 17 7 20 30 5 39 -6 3 -14 -5 -19 -19z" fill="#8C4A60" transform="translate(0.000000,350.000000) scale(0.100000,-0.100000)"/>
<path d="M864 1700 c-12 -5 -25 -13 -29 -19 -3 -6 -33 -11 -65 -11 -62 0 -75 -10 -58 -43 8 -15 17 -17 51 -12 23 4 55 16 71 27 18 13 59 25 107 32 94 13 112 26 38 26 -30 0 -63 2 -74 5 -11 2 -30 0 -41 -5z" fill="#8C4A60" transform="translate(0.000000,350.000000) scale(0.100000,-0.100000)"/>
<path d="M2621 1677 c-29 -47 -27 -57 13 -57 26 0 36 -5 41 -20 3 -11 14 -20 23 -21 62 -4 201 -5 220 -1 25 5 30 27 6 36 -8 3 -39 3 -68 0 -49 -6 -54 -4 -74 21 -19 23 -27 27 -57 22 -30 -5 -38 -2 -58 25 l-24 30 -22 -35z" fill="#8C4A60" transform="translate(0.000000,350.000000) scale(0.100000,-0.100000)"/>
<path d="M1650 1696 c0 -2 7 -6 15 -10 8 -3 15 -1 15 4 0 6 -7 10 -15 10 -8 0 -15 -2 -15 -4z" fill="#8C4A60" transform="translate(0.000000,350.000000) scale(0.100000,-0.100000)"/>
<path d="M1309 1649 c-12 -7 -11 -13 3 -36 19 -32 59 -46 95 -32 30 11 23 24 -22 39 -19 6 -35 15 -35 20 0 13 -26 19 -41 9z" fill="#8C4A60" transform="translate(0.000000,350.000000) scale(0.100000,-0.100000)"/>
<path d="M552 1596 c-2 -25 21 -41 40 -29 7 3 8 1 4 -5 -4 -7 -1 -12 7 -12 7 0 14 7 14 15 0 8 -7 15 -15 15 -9 0 -13 7 -9 20 4 16 0 20 -17 20 -16 0 -22 -7 -24 -24z" fill="#8C4A60" transform="translate(0.000000,350.000000) scale(0.100000,-0.100000)"/>
<path d="M2328 1613 c-25 -6 -23 -30 3 -38 32 -10 71 3 67 23 -3 17 -37 25 -70 15z" fill="#8C4A60" transform="translate(0.000000,350.000000) scale(0.100000,-0.100000)"/>
<path d="M670 1565 c0 -8 5 -15 10 -15 6 0 10 -6 10 -14 0 -8 7 -16 14 -19 8 -3 20 -25 26 -49 7 -23 18 -47 25 -53 7 -5 18 -27 25 -47 14 -44 26 -54 45 -38 20 17 19 33 -5 60 -25 29 -18 40 26 40 42 0 74 15 74 35 0 19 -110 21 -128 3 -10 -10 -15 -10 -22 2 -5 8 -10 23 -10 32 0 24 -49 78 -71 78 -10 0 -19 -7 -19 -15z" fill="#8C4A60" transform="translate(0.000000,350.000000) scale(0.100000,-0.100000)"/>
<path d="M2482 1558 c-17 -17 -15 -28 7 -28 30 0 51 11 51 26 0 17 -41 19 -58 2z" fill="#8C4A60" transform="translate(0.000000,350.000000) scale(0.100000,-0.100000)"/>
<path d="M1130 1550 c0 -5 25 -10 55 -10 30 0 55 5 55 10 0 6 -25 10 -55 10 -30 0 -55 -4 -55 -10z" fill="#8C4A60" transform="translate(0.000000,350.000000) scale(0.100000,-0.100000)"/>
<path d="M2057 1533 c-4 -3 -7 -11 -7 -17 0 -6 5 -5 12 2 6 6 9 14 7 17 -3 3 -9 2 -12 -2z" fill="#8C4A60" transform="translate(0.000000,350.000000) scale(0.100000,-0.100000)"/>
<path d="M3526 1521 c-18 -20 -12 -31 16 -31 11 0 18 7 18 19 0 28 -15 33 -34 12z" fill="#8C4A60" transform="translate(0.000000,350.000000) scale(0.100000,-0.100000)"/>
<path d="M553 1515 c0 -8 7 -15 15 -15 12 0 12 3 2 15 -7 8 -13 15 -15 15 -1 0 -2 -7 -2 -15z" fill="#8C4A60" transform="translate(0.000000,350.000000) scale(0.100000,-0.100000)"/>
<path d="M930 1510 c-17 -32 -4 -39 60 -35 66 4 80 10 80 29 0 17 -31 26 -87 26 -32 0 -45 -5 -53 -20z" fill="#8C4A60" transform="translate(0.000000,350.000000) scale(0.100000,-0.100000)"/>
<path d="M2384 1515 c-16 -13 -17 -16 -4 -25 8 -5 25 -10 37 -10 24 0 56 27 48 41 -9 14 -59 11 -81 -6z" fill="#8C4A60" transform="translate(0.000000,350.000000) scale(0.100000,-0.100000)"/>
<path d="M1837 1514 c-13 -13 -7 -61 8 -74 26 -21 18 -47 -16 -54 -19 -4 -33 -13 -36 -26 -4 -14 -14 -20 -32 -20 -15 0 -36 -7 -47 -15 -16 -13 -17 -16 -4 -25 8 -5 23 -10 32 -10 18 0 48 25 48 41 0 5 13 9 30 9 20 0 35 8 46 25 9 14 22 25 30 25 7 0 18 9 24 20 8 15 6 23 -9 37 -39 35 -42 38 -54 56 -7 10 -16 15 -20 11z" fill="#8C4A60" transform="translate(0.000000,350.000000) scale(0.100000,-0.100000)"/>
<path d="M3473 1499 c-15 -5 -23 -17 -23 -32 0 -14 -10 -37 -22 -52 -19 -25 -26 -27 -70 -23 -26 3 -56 12 -66 22 -21 19 -117 23 -128 5 -11 -18 17 -29 75 -29 44 0 56 -4 72 -24 13 -17 32 -26 57 -28 26 -2 38 -8 40 -21 6 -28 -16 -49 -38 -37 -10 6 -37 10 -59 10 -29 0 -47 7 -67 25 -23 21 -37 25 -90 25 -106 0 -97 -44 12 -53 47 -3 69 -10 78 -23 9 -11 32 -20 62 -23 l49 -6 -3 -56 c-4 -61 5 -75 39 -64 14 5 18 12 13 23 -17 42 -16 64 5 85 11 13 23 38 27 57 8 48 25 90 35 90 5 0 9 12 9 26 0 14 7 42 16 61 19 39 10 55 -23 42z" fill="#8C4A60" transform="translate(0.000000,350.000000) scale(0.100000,-0.100000)"/>
<path d="M2837 1418 l-39 -10 68 -29 c74 -31 180 -41 172 -16 -3 6 -14 13 -25 15 -11 2 -31 14 -44 28 -25 26 -64 30 -132 12z" fill="#8C4A60" transform="translate(0.000000,350.000000) scale(0.100000,-0.100000)"/>
<path d="M2250 1380 c0 -12 10 -24 24 -30 14 -5 26 -19 28 -32 4 -29 38 -38 38 -9 0 11 5 23 11 27 16 10 124 -47 135 -71 6 -14 21 -21 45 -23 27 -2 38 -9 42 -23 7 -26 60 -28 55 -1 -2 10 -14 18 -30 20 -16 2 -30 11 -33 23 -4 13 -19 21 -46 25 -36 6 -40 9 -37 33 2 19 10 27 33 31 38 8 171 -23 195 -45 10 -9 29 -15 42 -13 32 4 35 35 6 49 -13 5 -28 20 -33 32 -9 19 -17 22 -65 20 -30 -1 -86 -6 -123 -10 -52 -7 -71 -5 -79 4 -17 21 -95 16 -119 -8 l-21 -21 -19 21 c-25 27 -49 27 -49 1z m170 -14 c0 -11 -19 -15 -25 -6 -3 5 1 10 9 10 9 0 16 -2 16 -4z" fill="#8C4A60" transform="translate(0.000000,350.000000) scale(0.100000,-0.100000)"/>
<path d="M620 1323 c0 -14 15 -28 30 -31 12 -2 11 1 -2 11 -10 8 -15 17 -11 20 3 4 1 7 -5 7 -7 0 -12 -3 -12 -7z" fill="#8C4A60" transform="translate(0.000000,350.000000) scale(0.100000,-0.100000)"/>
<path d="M1327 1324 c-11 -12 3 -24 28 -24 32 0 56 10 49 21 -6 10 -67 12 -77 3z" fill="#8C4A60" transform="translate(0.000000,350.000000) scale(0.100000,-0.100000)"/>
<path d="M757 1293 c-4 -3 -7 -17 -7 -30 0 -20 5 -23 38 -22 33 0 34 1 14 10 -18 7 -22 14 -17 29 6 20 -13 29 -28 13z" fill="#8C4A60" transform="translate(0.000000,350.000000) scale(0.100000,-0.100000)"/>
<path d="M1070 1275 c-21 -25 -1 -35 76 -35 66 0 74 2 74 19 0 13 -10 20 -31 25 -53 10 -106 7 -119 -9z" fill="#8C4A60" transform="translate(0.000000,350.000000) scale(0.100000,-0.100000)"/>
<path d="M2807 1284 c-3 -4 -2 -15 4 -25 13 -25 99 -28 99 -4 0 25 -84 48 -103 29z" fill="#8C4A60" transform="translate(0.000000,350.000000) scale(0.100000,-0.100000)"/>
<path d="M1535 1270 c-3 -5 0 -13 8 -16 23 -8 92 0 92 11 0 14 -92 19 -100 5z" fill="#8C4A60" transform="translate(0.000000,350.000000) scale(0.100000,-0.100000)"/>
<path d="M2340 1266 c0 -7 7 -19 15 -26 20 -16 38 -1 29 23 -7 20 -44 23 -44 3z" fill="#8C4A60" transform="translate(0.000000,350.000000) scale(0.100000,-0.100000)"/>
<path d="M3473 1233 c-3 -10 -8 -21 -10 -25 -2 -5 1 -8 6 -8 6 0 11 7 11 15 0 8 7 15 15 15 8 0 15 -7 15 -15 0 -8 -4 -15 -10 -15 -5 0 -10 -4 -10 -9 0 -6 9 -9 19 -8 11 0 18 4 15 8 -2 4 1 9 7 11 19 6 -9 48 -32 48 -11 0 -22 -8 -26 -17z" fill="#8C4A60" transform="translate(0.000000,350.000000) scale(0.100000,-0.100000)"/>
<path d="M1274 1229 c-8 -14 23 -22 42 -11 14 8 13 10 -10 14 -15 3 -29 1 -32 -3z" fill="#8C4A60" transform="translate(0.000000,350.000000) scale(0.100000,-0.100000)"/>
<path d="M2920 1226 c0 -17 22 -26 61 -26 31 0 36 9 17 28 -17 17 -78 16 -78 -2z" fill="#8C4A60" transform="translate(0.000000,350.000000) scale(0.100000,-0.100000)"/>
<path d="M1380 1220 c-24 -8 -23 -8 8 -9 20 -1 31 3 27 9 -3 6 -7 10 -8 9 -1 -1 -13 -5 -27 -9z" fill="#8C4A60" transform="translate(0.000000,350.000000) scale(0.100000,-0.100000)"/>
<path d="M2655 1190 c-11 -19 16 -40 51 -40 40 0 54 18 29 37 -22 16 -71 17 -80 3z" fill="#8C4A60" transform="translate(0.000000,350.000000) scale(0.100000,-0.100000)"/>
<path d="M1540 1150 c0 -33 -4 -42 -25 -52 -14 -6 -25 -17 -25 -24 0 -6 11 -15 25 -18 14 -4 25 -13 25 -21 0 -20 36 -19 44 1 3 9 6 34 6 57 0 23 4 47 8 54 4 6 32 13 61 15 32 2 56 8 59 16 3 9 -19 12 -87 12 l-91 0 0 -40z" fill="#8C4A60" transform="translate(0.000000,350.000000) scale(0.100000,-0.100000)"/>
<path d="M3548 1145 c2 -15 0 -25 -7 -25 -7 0 -9 -4 -6 -10 3 -5 -2 -10 -12 -11 -11 0 -13 -3 -5 -6 20 -8 42 17 42 48 0 16 -4 29 -9 29 -4 0 -6 -11 -3 -25z" fill="#8C4A60" transform="translate(0.000000,350.000000) scale(0.100000,-0.100000)"/>
<path d="M2812 1143 c-79 -7 -33 -39 61 -42 44 -1 52 24 11 39 -14 6 -26 9 -27 8 -1 -1 -21 -3 -45 -5z" fill="#8C4A60" transform="translate(0.000000,350.000000) scale(0.100000,-0.100000)"/>
<path d="M1391 1041 c-13 -23 -5 -31 30 -31 27 0 56 30 42 44 -14 14 -63 5 -72 -13z" fill="#8C4A60" transform="translate(0.000000,350.000000) scale(0.100000,-0.100000)"/>
<path d="M3365 1031 c-7 -17 -4 -20 25 -23 17 -2 23 2 25 18 1 17 -4 21 -22 20 -12 0 -25 -7 -28 -15z" fill="#8C4A60" transform="translate(0.000000,350.000000) scale(0.100000,-0.100000)"/>
<path d="M1263 1003 c-7 -2 -13 -13 -13 -24 0 -16 7 -19 41 -19 47 0 79 14 79 35 0 11 -12 15 -47 14 -27 0 -54 -3 -60 -6z" fill="#8C4A60" transform="translate(0.000000,350.000000) scale(0.100000,-0.100000)"/>
<path d="M2331 994 c0 -12 6 -28 15 -35 9 -7 20 -22 24 -34 7 -18 9 -18 15 -3 7 18 -14 48 -34 48 -5 0 -12 10 -14 23 -4 21 -4 21 -6 1z" fill="#8C4A60" transform="translate(0.000000,350.000000) scale(0.100000,-0.100000)"/>
<path d="M974 989 c-3 -6 -1 -16 6 -22 10 -9 11 -9 5 2 -4 8 -2 17 6 22 9 6 10 9 2 9 -6 0 -15 -5 -19 -11z" fill="#8C4A60" transform="translate(0.000000,350.000000) scale(0.100000,-0.100000)"/>
<path d="M2299 926 c9 -11 9 -15 -1 -19 -10 -4 -10 -6 0 -6 6 -1 12 -8 12 -16 0 -8 4 -15 9 -15 6 0 6 12 0 32 -5 18 -9 34 -9 35 0 2 -5 3 -11 3 -8 0 -8 -4 0 -14z" fill="#8C4A60" transform="translate(0.000000,350.000000) scale(0.100000,-0.100000)"/>
<path d="M3366 905 c-3 -8 -1 -15 4 -15 6 0 10 7 10 15 0 8 -2 15 -4 15 -2 0 -6 -7 -10 -15z" fill="#8C4A60" transform="translate(0.000000,350.000000) scale(0.100000,-0.100000)"/>
<path d="M894 872 c-5 -4 -7 -20 -4 -37 l6 -30 7 34 c8 38 6 43 -9 33z" fill="#8C4A60" transform="translate(0.000000,350.000000) scale(0.100000,-0.100000)"/>
<path d="M3355 870 c-3 -5 -2 -10 4 -10 5 0 13 5 16 10 3 6 2 10 -4 10 -5 0 -13 -4 -16 -10z" fill="#8C4A60" transform="translate(0.000000,350.000000) scale(0.100000,-0.100000)"/>
<path d="M2031 837 c-6 -8 -13 -66 -15 -131 -4 -104 -3 -117 11 -114 24 4 41 94 35 183 -5 75 -10 86 -31 62z" fill="#8C4A60" transform="translate(0.000000,350.000000) scale(0.100000,-0.100000)"/>
<path d="M2675 829 c5 -6 55 0 55 7 0 3 -13 3 -29 2 -16 -1 -28 -5 -26 -9z" fill="#8C4A60" transform="translate(0.000000,350.000000) scale(0.100000,-0.100000)"/>
<path d="M1876 815 c-3 -9 -6 -32 -6 -51 0 -21 -8 -42 -20 -54 -21 -21 -27 -74 -11 -85 14 -8 31 28 31 62 0 20 7 31 23 38 18 8 22 18 22 55 0 33 -4 46 -16 48 -9 2 -19 -4 -23 -13z" fill="#8C4A60" transform="translate(0.000000,350.000000) scale(0.100000,-0.100000)"/>
<path d="M3211 820 c-18 -10 -23 -38 -9 -46 5 -4 17 0 25 9 19 19 5 51 -16 37z" fill="#8C4A60" transform="translate(0.000000,350.000000) scale(0.100000,-0.100000)"/>
<path d="M3330 820 c0 -5 4 -10 9 -10 6 0 13 5 16 10 3 6 -1 10 -9 10 -9 0 -16 -4 -16 -10z" fill="#8C4A60" transform="translate(0.000000,350.000000) scale(0.100000,-0.100000)"/>
<path d="M2858 793 c6 -2 18 -2 25 0 6 3 1 5 -13 5 -14 0 -19 -2 -12 -5z" fill="#8C4A60" transform="translate(0.000000,350.000000) scale(0.100000,-0.100000)"/>
<path d="M2182 700 c0 -19 2 -27 5 -17 2 9 2 25 0 35 -3 9 -5 1 -5 -18z" fill="#8C4A60" transform="translate(0.000000,350.000000) scale(0.100000,-0.100000)"/>
<path d="M1544 675 c-4 -28 -11 -45 -20 -45 -16 0 -34 -31 -34 -59 0 -11 -8 -25 -19 -30 -12 -7 -21 -26 -25 -55 -4 -24 -16 -52 -26 -61 -11 -10 -20 -29 -20 -42 0 -30 -27 -41 -48 -19 -13 12 -14 18 -4 28 7 7 12 28 12 48 0 24 6 39 20 48 15 9 20 23 20 55 0 34 4 44 23 52 23 11 36 60 19 77 -18 18 -42 -3 -42 -38 0 -23 -6 -37 -20 -44 -14 -8 -20 -21 -20 -48 0 -42 -7 -56 -32 -65 -11 -4 -20 -22 -24 -47 -4 -22 -10 -40 -14 -40 -17 0 -69 32 -74 45 -7 19 -52 20 -59 1 -6 -15 22 -46 41 -46 6 0 23 -11 39 -24 15 -13 45 -29 65 -35 21 -7 40 -17 43 -22 4 -5 23 -9 44 -9 21 0 58 -7 81 -15 23 -8 46 -12 51 -9 21 12 7 33 -28 41 -37 9 -38 10 -35 53 2 28 10 51 22 63 11 10 20 31 20 47 0 17 9 39 20 50 13 13 20 33 20 60 0 29 4 40 15 40 19 0 38 46 30 71 -12 35 -33 21 -41 -26z" fill="#8C4A60" transform="translate(0.000000,350.000000) scale(0.100000,-0.100000)"/>
<path d="M1696 698 c-15 -59 2 -122 25 -87 15 24 11 109 -5 109 -7 0 -16 -10 -20 -22z" fill="#8C4A60" transform="translate(0.000000,350.000000) scale(0.100000,-0.100000)"/>
<path d="M3227 653 c-11 -10 -8 -33 4 -33 6 0 8 7 5 16 -3 8 -2 12 3 9 5 -3 12 -1 16 5 7 11 -18 14 -28 3z" fill="#8C4A60" transform="translate(0.000000,350.000000) scale(0.100000,-0.100000)"/>
<path d="M3189 607 c-8 -8 -21 -16 -29 -20 -9 -3 -4 -6 11 -6 16 -1 29 6 33 15 9 23 1 28 -15 11z" fill="#8C4A60" transform="translate(0.000000,350.000000) scale(0.100000,-0.100000)"/>
<path d="M893 550 c-1 -31 2 -40 18 -45 11 -4 23 -4 26 -1 4 3 1 6 -5 6 -7 0 -15 18 -18 40 -8 51 -19 51 -21 0z" fill="#8C4A60" transform="translate(0.000000,350.000000) scale(0.100000,-0.100000)"/>
<path d="M3362 525 c0 -16 2 -22 5 -12 2 9 2 23 0 30 -3 6 -5 -1 -5 -18z" fill="#8C4A60" transform="translate(0.000000,350.000000) scale(0.100000,-0.100000)"/>
<path d="M3004 436 c-3 -8 -4 -23 -2 -33 3 -11 6 -6 9 15 6 34 2 42 -7 18z" fill="#8C4A60" transform="translate(0.000000,350.000000) scale(0.100000,-0.100000)"/>
<path d="M3362 420 c0 -14 2 -19 5 -12 2 6 2 18 0 25 -3 6 -5 1 -5 -13z" fill="#8C4A60" transform="translate(0.000000,350.000000) scale(0.100000,-0.100000)"/>
<path d="M1068 381 c8 -4 13 -12 13 -17 -1 -9 2 -9 32 -5 6 0 -1 8 -17 16 -30 16 -50 20 -28 6z" fill="#8C4A60" transform="translate(0.000000,350.000000) scale(0.100000,-0.100000)"/>
<path d="M2997 307 c-8 -20 1 -89 12 -100 8 -8 11 -5 11 10 0 12 -6 24 -12 27 -10 5 -10 7 0 12 6 3 12 19 12 35 0 29 -14 39 -23 16z" fill="#8C4A60" transform="translate(0.000000,350.000000) scale(0.100000,-0.100000)"/>
<path d="M1302 238 c2 -13 9 -22 16 -20 6 1 12 -5 12 -13 0 -18 26 -20 36 -3 4 7 3 8 -4 4 -7 -4 -12 -2 -12 3 0 6 5 11 10 11 11 0 14 30 3 31 -5 0 -21 3 -36 5 -25 4 -28 2 -25 -18z" fill="#8C4A60" transform="translate(0.000000,350.000000) scale(0.100000,-0.100000)"/>
<path d="M1180 238 c0 -4 7 -8 15 -8 8 0 15 4 15 8 0 5 -7 9 -15 9 -8 0 -15 -4 -15 -9z" fill="#8C4A60" transform="translate(0.000000,350.000000) scale(0.100000,-0.100000)"/>
<path d="M1803 213 c9 -2 23 -2 30 0 6 3 -1 5 -18 5 -16 0 -22 -2 -12 -5z" fill="#8C4A60" transform="translate(0.000000,350.000000) scale(0.100000,-0.100000)"/>
<path d="M1863 213 c9 -2 25 -2 35 0 9 3 1 5 -18 5 -19 0 -27 -2 -17 -5z" fill="#8C4A60" transform="translate(0.000000,350.000000) scale(0.100000,-0.100000)"/>
<path d="M1502 193 c4 -24 73 -32 81 -8 5 12 1 14 -17 9 -13 -3 -34 0 -46 6 -19 10 -21 9 -18 -7z" fill="#8C4A60" transform="translate(0.000000,350.000000) scale(0.100000,-0.100000)"/>
<path d="M1826 181 c-18 -7 -18 -8 5 -14 38 -10 49 -8 43 8 -7 16 -18 18 -48 6z" fill="#8C4A60" transform="translate(0.000000,350.000000) scale(0.100000,-0.100000)"/>
<path d="M3423 163 c9 -2 25 -2 35 0 9 3 1 5 -18 5 -19 0 -27 -2 -17 -5z" fill="#8C4A60" transform="translate(0.000000,350.000000) scale(0.100000,-0.100000)"/>
</g>
    </svg>
  </g>
  <g transform="translate(0,1023.8799999999999)">
    <svg viewBox="0 0 3496.000000 604.000000" width="3496.0" height="604.0">
      <path d="M25235 3829 c-66 -5 -140 -16 -165 -24 -25 -8 -70 -17 -100 -21 -30 -4 -66 -15 -80 -25 -14 -9 -44 -21 -65 -25 -22 -4 -50 -15 -62 -24 -13 -10 -40 -21 -60 -25 -21 -4 -45 -13 -53 -20 -8 -7 -34 -18 -56 -24 -23 -6 -45 -18 -48 -26 -3 -9 -17 -20 -31 -25 -14 -5 -25 -14 -25 -19 0 -5 -17 -15 -37 -22 -73 -24 -300 -222 -422 -369 -28 -33 -51 -64 -51 -68 0 -4 -18 -26 -40 -50 -22 -23 -43 -55 -46 -70 -4 -15 -16 -38 -26 -52 -37 -48 -68 -101 -68 -115 0 -7 -11 -26 -23 -42 -13 -15 -27 -45 -30 -67 -3 -21 -13 -46 -21 -55 -8 -9 -17 -38 -21 -66 -4 -27 -14 -61 -23 -75 -8 -13 -21 -64 -28 -112 -8 -48 -20 -98 -28 -110 -10 -17 -18 -88 -27 -256 -15 -282 -1 -563 32 -637 11 -24 22 -65 26 -92 3 -26 14 -59 24 -73 9 -14 20 -42 24 -63 3 -21 15 -53 26 -70 10 -18 19 -41 19 -52 0 -11 9 -26 19 -32 11 -7 22 -25 26 -41 3 -16 24 -49 46 -73 22 -24 54 -70 72 -102 17 -31 40 -60 49 -63 10 -3 18 -9 18 -14 0 -16 244 -252 280 -270 19 -10 51 -34 71 -53 19 -19 45 -37 56 -41 11 -4 28 -15 38 -26 10 -11 24 -20 30 -20 7 0 24 -9 38 -20 14 -11 40 -23 57 -26 17 -4 37 -15 43 -25 7 -11 23 -19 37 -19 14 0 42 -11 62 -25 20 -14 46 -25 58 -25 11 0 37 -7 58 -16 20 -9 79 -22 130 -30 51 -8 105 -22 119 -31 l25 -17 327 1 326 1 60 20 c33 11 94 24 135 27 41 4 85 14 97 21 13 8 44 17 70 20 27 4 57 15 68 24 11 10 39 23 62 29 23 6 43 15 45 19 4 9 107 72 118 72 6 0 33 25 62 57 77 82 81 86 113 113 17 14 43 51 59 83 16 32 36 63 46 70 9 7 20 30 23 51 3 21 15 48 25 60 11 12 23 44 27 71 4 28 13 64 21 80 24 52 36 278 23 433 -6 75 -15 141 -20 146 -5 6 -9 16 -9 23 0 23 75 63 141 74 35 6 73 19 84 29 11 10 34 21 50 24 17 4 39 16 50 26 11 10 31 21 43 25 26 8 48 25 89 70 16 17 51 53 79 80 28 28 65 78 82 111 17 34 38 64 47 67 16 7 20 32 6 41 -10 7 -71 -22 -71 -34 0 -12 -128 -70 -154 -70 -12 0 -31 -7 -42 -15 l-19 -14 -659 -1 c-676 0 -927 -9 -957 -36 -8 -8 -38 -18 -67 -24 -28 -5 -68 -18 -89 -30 -21 -11 -46 -20 -55 -20 -10 0 -18 -5 -18 -10 0 -6 -35 -36 -79 -68 -101 -76 -261 -238 -261 -266 0 -7 -7 -19 -15 -26 -8 -7 -15 -25 -15 -41 l0 -29 39 21 c22 11 42 26 45 34 3 8 22 17 43 21 21 4 44 15 51 25 6 9 27 21 44 25 18 3 44 14 57 23 l25 16 596 3 c327 2 604 0 616 -2 15 -4 28 -24 45 -68 l24 -63 0 -170 0 -170 -16 -30 c-9 -16 -19 -54 -22 -84 -4 -34 -14 -62 -27 -76 -11 -12 -20 -29 -20 -39 0 -22 -19 -59 -36 -69 -8 -4 -14 -16 -14 -26 0 -10 -9 -30 -20 -44 -11 -14 -20 -30 -20 -36 0 -6 -34 -43 -76 -83 -75 -72 -161 -128 -198 -128 -10 0 -33 -9 -51 -20 -19 -11 -62 -25 -97 -29 -34 -5 -90 -17 -123 -27 l-60 -19 -295 0 -296 0 -29 19 c-17 11 -54 23 -84 27 -32 5 -62 16 -75 28 -12 12 -28 21 -35 21 -27 0 -127 55 -170 94 -93 84 -171 163 -171 173 0 6 -7 13 -15 17 -17 6 -75 93 -75 111 0 7 -18 31 -39 54 -22 23 -44 57 -51 74 -6 18 -16 39 -21 47 -25 40 -69 144 -75 177 -3 21 -15 47 -26 59 -11 12 -21 43 -25 75 -3 30 -12 62 -21 71 -9 11 -19 54 -24 105 -5 49 -14 102 -19 119 -5 18 -14 104 -19 193 -10 167 0 454 19 515 5 17 14 70 19 119 6 53 15 94 25 105 8 9 18 43 22 74 5 36 14 63 26 74 10 9 19 29 19 44 0 15 8 38 18 51 11 13 22 42 25 63 3 21 15 49 27 61 11 12 20 25 20 31 0 5 11 22 25 38 14 16 25 35 25 42 0 6 11 22 25 35 13 13 25 28 25 33 0 11 71 100 139 174 18 20 40 47 48 59 9 13 42 37 74 55 32 18 59 36 59 40 0 11 90 68 149 94 30 13 72 27 95 30 23 4 51 15 62 26 15 13 42 21 95 25 41 3 81 12 90 20 11 9 56 15 145 19 101 5 144 2 199 -11 39 -9 103 -20 144 -25 46 -5 84 -16 100 -28 14 -10 43 -22 65 -25 21 -3 46 -13 55 -21 9 -8 29 -18 44 -21 16 -4 34 -16 40 -26 7 -11 20 -19 29 -19 10 0 31 -13 48 -30 17 -16 35 -30 40 -30 21 0 129 -120 154 -172 16 -31 34 -62 42 -69 8 -6 17 -29 20 -50 4 -21 15 -46 25 -55 11 -9 19 -21 19 -27 0 -16 52 -131 68 -149 8 -10 20 -18 27 -18 6 0 52 39 101 88 49 48 128 122 174 165 138 129 170 160 170 168 0 14 -74 83 -134 124 -31 22 -76 57 -99 78 -23 21 -59 43 -80 49 -21 6 -43 20 -48 30 -5 10 -15 18 -21 18 -6 0 -26 11 -44 25 -18 14 -39 25 -46 25 -7 0 -27 9 -44 19 -17 10 -46 22 -65 26 -19 4 -43 15 -54 25 -11 10 -42 21 -70 25 -27 4 -59 15 -70 25 -13 11 -44 20 -88 24 -38 4 -85 13 -105 21 -78 29 -540 43 -807 24z" fill="#1A1A1A" transform="translate(0.000000,604.000000) scale(0.100000,-0.100000)"/>
<path d="M1505 3736 c-55 -6 -113 -18 -130 -27 -16 -9 -48 -20 -70 -24 -21 -3 -51 -13 -65 -20 -14 -7 -43 -16 -63 -20 -21 -4 -42 -16 -47 -26 -6 -10 -27 -21 -48 -25 -20 -4 -43 -15 -50 -25 -7 -10 -28 -21 -47 -25 -19 -3 -35 -10 -35 -15 0 -5 -12 -15 -27 -21 -16 -7 -42 -23 -59 -35 -17 -13 -36 -23 -41 -23 -6 0 -13 -7 -17 -15 -3 -8 -29 -30 -58 -49 -71 -46 -333 -319 -366 -382 -7 -13 -17 -24 -21 -24 -5 0 -14 -13 -19 -30 -6 -16 -20 -37 -31 -47 -12 -9 -21 -24 -21 -31 0 -8 -10 -28 -22 -45 -30 -42 -64 -116 -73 -158 -4 -19 -15 -43 -24 -54 -10 -11 -23 -46 -30 -77 -7 -31 -18 -61 -25 -67 -8 -6 -17 -39 -20 -73 -4 -33 -13 -77 -21 -97 -14 -37 -35 -266 -35 -378 l0 -62 -20 -6 -20 -6 0 -45 0 -44 20 0 20 0 1 -72 c1 -105 25 -314 43 -378 9 -30 16 -63 16 -73 0 -10 9 -30 19 -44 11 -13 23 -44 27 -69 4 -28 13 -48 24 -54 11 -6 21 -27 25 -49 4 -22 13 -45 20 -51 8 -6 17 -25 21 -43 3 -17 17 -39 30 -50 13 -10 24 -25 24 -33 0 -8 6 -17 14 -20 8 -3 20 -18 26 -34 7 -16 23 -36 36 -45 13 -8 24 -21 24 -29 0 -7 21 -33 47 -57 75 -71 96 -93 124 -124 33 -38 66 -65 79 -65 5 0 17 -11 25 -24 9 -13 29 -29 45 -36 16 -6 31 -18 34 -26 3 -8 12 -14 20 -14 8 0 23 -11 33 -24 11 -13 33 -27 50 -30 18 -4 37 -14 43 -21 7 -8 27 -17 45 -21 19 -3 41 -14 50 -24 10 -11 30 -22 45 -25 15 -3 36 -15 46 -26 9 -10 29 -19 43 -19 14 -1 44 -8 66 -16 22 -9 67 -22 100 -29 33 -7 74 -19 90 -28 17 -8 77 -21 134 -27 58 -6 114 -18 125 -26 l20 -14 271 0 270 0 30 20 c16 10 54 22 85 26 30 4 65 15 78 25 13 10 37 21 55 25 29 6 93 34 127 55 8 5 31 17 50 27 19 9 41 25 48 34 7 9 37 31 67 48 33 19 109 85 186 163 158 160 160 162 189 212 13 22 34 51 47 65 33 35 73 98 73 115 0 8 -7 15 -15 15 -8 0 -15 -4 -15 -9 0 -5 -26 -30 -57 -55 -32 -26 -76 -61 -97 -79 -21 -18 -44 -35 -51 -39 -7 -4 -27 -21 -46 -39 -18 -17 -50 -39 -71 -50 -21 -11 -38 -24 -38 -30 0 -5 -15 -16 -34 -24 -18 -8 -36 -21 -39 -29 -3 -8 -20 -17 -37 -21 -17 -4 -61 -27 -97 -51 -39 -26 -77 -44 -94 -44 -15 0 -32 -6 -36 -14 -11 -18 -47 -36 -73 -36 -12 0 -33 -9 -46 -19 -15 -11 -49 -22 -82 -26 -31 -4 -77 -14 -102 -23 l-45 -17 -245 0 c-176 0 -251 4 -267 13 -12 7 -57 19 -99 27 -42 8 -84 21 -93 29 -9 7 -31 17 -49 21 -18 4 -38 15 -45 26 -6 10 -20 19 -30 19 -10 0 -28 10 -40 23 -12 12 -34 28 -49 35 -16 6 -28 16 -28 22 0 5 -7 10 -15 10 -8 0 -28 12 -45 27 -16 16 -55 51 -86 78 -31 28 -67 67 -80 88 -14 21 -43 55 -64 76 -22 21 -40 44 -40 50 0 6 -7 14 -15 18 -9 3 -23 20 -31 37 -25 51 -48 91 -72 121 -12 15 -22 37 -22 49 0 12 -9 27 -19 33 -11 7 -22 27 -26 45 -4 18 -16 49 -26 68 -11 19 -19 47 -19 61 0 14 -9 38 -20 52 -12 15 -23 48 -27 79 -3 29 -12 63 -19 75 -44 71 -45 715 -1 785 8 13 17 58 20 101 4 51 12 88 25 110 11 17 23 56 26 86 4 29 13 63 20 75 8 11 17 37 20 57 4 20 15 47 26 59 11 13 20 32 20 42 0 10 11 29 23 41 13 12 27 34 31 49 11 46 83 144 173 238 35 35 63 68 63 72 0 4 29 23 65 43 36 20 65 41 65 46 0 5 12 15 28 22 15 6 42 22 61 34 19 13 40 23 48 23 8 0 27 9 42 19 14 11 52 24 84 30 31 6 67 16 79 22 13 7 68 14 123 17 61 3 108 10 120 18 26 19 190 19 247 0 24 -8 90 -16 148 -19 58 -3 123 -12 145 -20 22 -9 63 -18 90 -22 28 -4 66 -15 85 -25 19 -10 54 -23 76 -29 23 -6 45 -18 48 -26 3 -9 18 -15 36 -15 20 0 39 -9 53 -24 12 -12 38 -26 58 -30 21 -3 42 -13 49 -21 7 -8 21 -15 32 -15 10 0 30 -11 44 -25 14 -14 30 -25 37 -25 7 0 38 -20 69 -45 32 -25 61 -45 65 -45 8 0 37 -26 96 -87 22 -24 46 -43 53 -43 8 0 18 -9 24 -21 7 -11 14 -18 17 -15 4 3 -1 14 -10 23 -8 10 -19 32 -23 48 -3 17 -12 37 -19 45 -7 8 -27 49 -46 90 -18 41 -43 88 -56 103 -13 16 -23 36 -23 46 0 10 -9 26 -20 36 -11 10 -20 25 -20 34 0 9 -11 37 -25 63 -14 26 -25 53 -25 61 0 8 -9 22 -19 31 -11 10 -23 31 -26 46 -3 15 -15 36 -25 45 -10 9 -22 31 -26 49 -4 17 -15 42 -25 55 -11 13 -19 34 -19 46 0 14 -9 26 -25 33 -34 16 -1137 14 -1280 -2z" fill="#1A1A1A" transform="translate(0.000000,604.000000) scale(0.100000,-0.100000)"/>
<path d="M21045 3731 c-33 -3 -71 -13 -85 -23 -14 -9 -49 -19 -79 -23 -30 -4 -72 -16 -95 -26 -23 -10 -49 -19 -60 -19 -10 0 -31 -11 -48 -25 -16 -14 -35 -25 -43 -25 -32 0 -197 -164 -229 -228 -13 -26 -27 -65 -30 -87 -4 -22 -16 -54 -27 -71 l-19 -31 0 -1282 c0 -859 3 -1281 10 -1281 6 0 84 75 175 166 l165 165 0 417 c0 229 3 427 6 438 3 12 15 27 27 33 67 35 149 91 160 108 4 7 29 24 55 37 26 13 78 49 115 80 38 31 75 56 82 56 8 0 18 6 22 14 15 27 85 67 112 64 l26 -3 6 -635 c3 -349 10 -650 14 -669 4 -19 18 -50 31 -69 13 -19 24 -38 24 -42 0 -5 28 -36 63 -70 l62 -62 112 7 112 6 76 76 c83 84 94 108 43 98 -18 -3 -43 -11 -55 -17 -28 -14 -78 7 -92 40 -6 12 -11 51 -11 86 0 39 -5 69 -15 82 l-14 19 -1 715 c-1 393 -5 734 -9 758 -5 24 -19 54 -31 68 l-23 24 -79 0 c-59 0 -87 -5 -115 -20 -21 -11 -43 -20 -50 -20 -6 0 -29 -18 -51 -39 -21 -21 -58 -51 -82 -66 -51 -32 -341 -323 -390 -391 -40 -56 -79 -93 -98 -94 -31 0 -34 56 -30 687 l3 631 23 31 c12 16 22 39 22 50 0 11 10 28 23 38 13 10 26 26 30 36 4 9 15 20 24 24 10 4 24 14 30 24 7 9 36 33 65 53 97 66 103 71 120 91 9 12 42 33 73 49 55 27 68 50 29 52 -10 0 -46 -2 -79 -5z" fill="#1A1A1A" transform="translate(0.000000,604.000000) scale(0.100000,-0.100000)"/>
<path d="M6910 3323 c0 -10 11 -40 25 -68 13 -27 25 -59 25 -69 0 -21 95 -116 116 -116 16 0 20 7 28 50 l6 35 -27 29 -26 29 -12 -17 c-7 -9 -22 -16 -34 -16 l-21 0 0 45 c0 34 -4 45 -15 45 -23 0 -31 31 -12 42 28 15 19 28 -18 28 -27 0 -35 -4 -35 -17z" fill="#1A1A1A" transform="translate(0.000000,604.000000) scale(0.100000,-0.100000)"/>
<path d="M7654 3326 c-3 -8 -23 -27 -45 -41 -21 -15 -46 -41 -54 -58 l-15 -30 15 -17 c8 -9 15 -31 15 -48 0 -36 14 -42 30 -12 7 13 21 20 40 20 41 0 54 29 54 123 l1 77 -18 0 c-10 0 -20 -6 -23 -14z" fill="#1A1A1A" transform="translate(0.000000,604.000000) scale(0.100000,-0.100000)"/>
<path d="M8447 3333 c-4 -3 -7 -17 -7 -30 0 -26 -21 -31 -40 -8 -21 25 -50 17 -91 -24 l-39 -39 0 -42 c0 -27 7 -51 20 -67 11 -14 20 -36 20 -48 0 -24 24 -40 42 -29 10 6 8 24 -8 111 -8 39 23 73 66 73 19 0 30 5 30 14 0 8 9 21 20 29 10 7 24 25 29 40 l11 27 -24 0 c-12 0 -26 -3 -29 -7z" fill="#1A1A1A" transform="translate(0.000000,604.000000) scale(0.100000,-0.100000)"/>
<path d="M7477 3163 c-12 -11 -8 -23 8 -23 8 0 15 7 15 15 0 16 -12 20 -23 8z" fill="#1A1A1A" transform="translate(0.000000,604.000000) scale(0.100000,-0.100000)"/>
<path d="M7380 3104 c0 -11 8 -14 32 -12 46 4 49 28 4 28 -26 0 -36 -4 -36 -16z" fill="#1A1A1A" transform="translate(0.000000,604.000000) scale(0.100000,-0.100000)"/>
<path d="M7260 3070 l-25 -20 40 2 c29 2 41 8 43 21 5 23 -26 22 -58 -3z" fill="#1A1A1A" transform="translate(0.000000,604.000000) scale(0.100000,-0.100000)"/>
<path d="M7110 3062 c0 -16 28 -34 47 -30 31 6 21 33 -14 36 -18 2 -33 -1 -33 -6z" fill="#1A1A1A" transform="translate(0.000000,604.000000) scale(0.100000,-0.100000)"/>
<path d="M7660 3011 c0 -17 5 -33 11 -36 15 -10 17 -4 12 33 -6 40 -23 42 -23 3z" fill="#1A1A1A" transform="translate(0.000000,604.000000) scale(0.100000,-0.100000)"/>
<path d="M8270 3015 c0 -8 7 -15 15 -15 8 0 15 7 15 15 0 8 -7 15 -15 15 -8 0 -15 -7 -15 -15z" fill="#1A1A1A" transform="translate(0.000000,604.000000) scale(0.100000,-0.100000)"/>
<path d="M8274 2925 l-19 -15 18 -14 c9 -7 17 -18 17 -23 0 -13 -45 -33 -76 -33 -14 0 -37 -9 -51 -20 -14 -11 -36 -20 -49 -20 -14 0 -30 -10 -40 -25 -9 -14 -23 -25 -30 -25 -8 0 -14 -6 -14 -14 0 -33 -45 -29 -55 4 -6 20 -36 31 -65 23 -23 -6 -42 -61 -27 -80 6 -8 35 -13 77 -13 l69 0 20 26 c12 15 21 33 21 40 0 19 36 18 44 -1 8 -22 37 -18 65 9 15 14 47 35 73 48 56 28 87 65 95 113 l6 35 -30 0 c-16 0 -38 -7 -49 -15z" fill="#1A1A1A" transform="translate(0.000000,604.000000) scale(0.100000,-0.100000)"/>
<path d="M7710 2876 c0 -17 14 -29 23 -20 8 8 -3 34 -14 34 -5 0 -9 -6 -9 -14z" fill="#1A1A1A" transform="translate(0.000000,604.000000) scale(0.100000,-0.100000)"/>
<path d="M20042 2823 c-10 -17 -78 -41 -144 -50 l-38 -5 0 -89 0 -89 -512 0 -513 0 -27 -34 c-16 -19 -28 -44 -28 -55 0 -16 6 -21 28 -21 16 0 37 9 47 20 l19 21 105 -3 105 -3 13 -25 c10 -20 13 -203 13 -837 0 -572 3 -814 11 -819 6 -3 19 -25 29 -48 10 -22 38 -62 63 -87 l45 -46 55 -7 c85 -11 172 2 202 30 15 13 31 24 37 24 14 0 25 9 129 111 47 46 98 103 112 127 15 23 32 42 37 42 6 0 10 6 10 14 0 8 10 27 23 43 31 40 62 102 53 110 -4 4 -9 -2 -12 -14 -4 -15 -17 -22 -46 -27 -22 -4 -52 -16 -66 -26 -13 -11 -35 -20 -47 -20 -12 0 -30 -9 -40 -20 -21 -23 -88 -35 -135 -23 -25 6 -40 18 -52 42 -9 18 -23 40 -32 50 l-16 18 2 686 c2 377 6 689 11 693 4 4 69 12 145 17 107 7 141 13 157 27 11 10 37 21 57 24 36 7 92 48 150 111 29 32 78 121 78 143 0 17 -17 15 -28 -5z" fill="#1A1A1A" transform="translate(0.000000,604.000000) scale(0.100000,-0.100000)"/>
<path d="M7750 2777 c0 -15 58 -77 71 -77 5 0 9 11 9 25 0 18 -5 25 -20 25 -10 0 -24 9 -30 20 -12 23 -30 27 -30 7z" fill="#1A1A1A" transform="translate(0.000000,604.000000) scale(0.100000,-0.100000)"/>
<path d="M28743 2660 c-34 -9 -70 -22 -80 -31 -10 -8 -38 -28 -63 -44 -61 -40 -133 -116 -186 -197 -24 -36 -47 -68 -51 -70 -5 -1 -20 -30 -35 -63 -31 -69 -49 -85 -72 -66 l-16 13 0 152 c0 112 -4 157 -14 171 -7 11 -17 31 -21 45 -4 14 -16 37 -27 53 l-19 27 -65 0 -64 0 -59 -45 c-62 -48 -79 -66 -120 -134 -14 -23 -33 -43 -43 -47 -10 -3 -18 -13 -18 -23 0 -10 -11 -35 -25 -55 -14 -20 -25 -40 -25 -44 0 -4 -8 -23 -19 -42 -10 -19 -22 -46 -26 -60 -4 -14 -14 -33 -23 -43 -19 -21 -42 -84 -34 -92 10 -10 20 -4 63 38 60 58 117 91 148 85 l16 -3 5 -765 5 -765 17 -3 c10 -2 33 8 51 22 19 14 38 26 44 26 5 0 18 9 27 19 10 11 32 23 50 27 17 4 42 15 55 25 13 11 28 19 34 19 5 0 26 14 46 32 l36 32 5 544 5 544 21 17 c12 9 25 28 29 42 4 13 25 53 46 88 22 34 39 67 39 71 0 5 10 17 23 27 12 10 31 36 42 58 21 43 149 177 179 188 25 10 93 -10 100 -28 3 -8 12 -15 20 -15 16 0 176 -151 176 -166 0 -6 18 -28 39 -51 22 -23 44 -56 49 -75 13 -51 36 -42 44 17 10 81 9 291 -3 367 l-11 72 -37 44 c-20 24 -47 48 -61 54 -50 20 -133 23 -197 8z" fill="#1A1A1A" transform="translate(0.000000,604.000000) scale(0.100000,-0.100000)"/>
<path d="M6809 2656 c-20 -6 -42 -16 -50 -22 -8 -7 -30 -19 -49 -27 -34 -14 -130 -100 -130 -115 0 -4 -20 -24 -44 -44 -31 -26 -46 -47 -50 -72 -4 -20 -14 -39 -22 -44 -17 -10 -57 -70 -75 -114 -12 -31 -43 -38 -53 -12 -3 9 -6 67 -6 130 l0 113 -25 76 c-16 49 -34 84 -52 100 l-28 24 -62 1 -62 0 -68 -67 c-85 -84 -141 -153 -165 -201 -49 -97 -68 -131 -77 -137 -6 -3 -11 -14 -11 -24 0 -10 -10 -31 -22 -47 -24 -29 -51 -95 -43 -103 9 -9 70 28 117 72 35 32 75 44 97 30 l16 -10 3 -757 2 -756 21 0 c12 0 34 11 51 25 16 14 37 25 46 25 10 0 22 8 29 19 6 10 24 21 38 25 15 4 39 15 54 24 35 24 59 38 104 62 l37 20 0 544 0 543 19 25 c11 13 23 37 27 52 3 15 15 33 25 39 11 7 19 17 19 23 0 6 21 42 46 79 25 38 52 80 59 94 22 41 149 169 179 181 34 12 69 4 92 -21 9 -10 23 -19 30 -19 7 0 19 -8 26 -17 7 -10 30 -30 50 -44 38 -25 83 -79 94 -111 4 -10 10 -18 15 -18 18 0 78 -76 84 -107 7 -40 22 -43 32 -5 10 37 10 344 0 413 l-8 56 -46 47 c-26 26 -62 50 -82 56 -46 13 -136 11 -182 -4z" fill="#1A1A1A" transform="translate(0.000000,604.000000) scale(0.100000,-0.100000)"/>
<path d="M15668 2609 c-27 -15 -218 -209 -218 -221 0 -6 19 -32 43 -59 75 -85 97 -113 97 -127 0 -7 10 -26 22 -43 l23 -30 -1 -75 -1 -74 -21 -23 c-12 -13 -22 -31 -22 -41 0 -22 -19 -59 -35 -68 -7 -4 -16 -23 -19 -42 -4 -19 -13 -39 -21 -46 -8 -7 -15 -21 -15 -32 0 -10 -11 -30 -24 -43 -13 -13 -27 -40 -30 -59 -4 -20 -16 -42 -26 -49 -11 -6 -20 -22 -20 -35 0 -13 -11 -34 -24 -47 -13 -13 -26 -38 -30 -57 -4 -18 -20 -49 -36 -68 l-29 -35 -18 11 c-10 6 -19 26 -21 45 -2 19 -10 39 -18 45 -16 13 -50 103 -68 182 -6 29 -17 56 -22 60 -17 11 -34 48 -34 72 0 12 -9 35 -20 50 -11 16 -23 43 -27 62 -3 18 -14 49 -25 68 -10 19 -18 44 -18 56 0 12 -9 33 -20 46 -10 14 -22 44 -26 66 -3 23 -15 49 -25 58 -11 9 -19 24 -19 32 0 25 -54 126 -77 145 -13 10 -23 24 -23 31 0 6 -8 19 -17 27 -10 9 -31 34 -48 55 -41 53 -106 113 -130 120 -11 4 -31 15 -44 25 -13 11 -33 19 -45 19 -34 0 -83 -36 -113 -82 -15 -24 -41 -54 -58 -68 -16 -14 -43 -40 -60 -59 -16 -19 -40 -45 -52 -58 -13 -13 -23 -28 -23 -32 0 -4 17 -15 38 -24 20 -9 44 -20 52 -26 8 -5 26 -14 40 -20 43 -20 176 -153 210 -211 18 -30 42 -64 52 -76 10 -12 21 -39 25 -60 3 -21 14 -48 24 -59 9 -11 21 -37 24 -58 4 -20 16 -54 26 -74 11 -21 19 -51 19 -69 0 -18 8 -38 20 -49 11 -10 23 -34 26 -54 4 -20 15 -46 25 -59 9 -12 20 -42 24 -65 4 -23 15 -51 25 -62 10 -11 21 -40 25 -65 4 -25 16 -61 26 -80 11 -19 19 -46 19 -61 0 -14 9 -34 20 -44 11 -10 22 -37 26 -64 3 -25 14 -55 24 -66 10 -11 21 -39 25 -62 3 -23 15 -59 26 -80 10 -20 19 -46 19 -58 1 -27 54 -90 68 -81 7 4 12 14 12 23 0 8 9 32 20 52 10 20 26 52 35 71 28 61 46 91 61 97 7 3 19 24 25 47 6 22 17 48 24 56 7 8 16 30 20 48 4 18 15 37 26 42 10 6 19 20 19 31 0 25 18 61 36 72 7 4 15 21 19 38 4 16 15 35 26 42 10 6 19 21 19 33 0 12 9 32 19 46 11 13 22 41 26 61 4 21 15 42 25 47 10 5 21 25 24 45 4 19 16 41 26 48 11 6 20 19 20 27 0 8 12 38 25 65 14 28 25 55 25 61 0 6 9 19 20 29 11 10 20 27 20 37 0 25 44 68 69 68 23 0 41 -27 41 -63 0 -13 9 -32 20 -42 11 -10 22 -37 26 -64 3 -25 14 -55 24 -66 10 -11 21 -36 25 -55 4 -19 13 -45 21 -57 8 -13 17 -44 20 -70 4 -27 12 -52 19 -58 16 -14 35 -50 35 -70 0 -9 9 -28 20 -43 11 -15 23 -46 27 -67 3 -22 14 -49 23 -60 10 -11 21 -36 25 -55 4 -19 13 -46 20 -60 7 -14 16 -44 20 -65 4 -22 16 -50 27 -62 11 -11 22 -41 25 -65 3 -23 14 -52 23 -63 10 -11 23 -39 29 -62 7 -24 16 -43 22 -43 22 0 49 22 49 40 0 10 10 31 23 47 31 39 44 61 67 111 11 23 26 45 34 48 7 3 16 17 19 32 3 15 15 38 26 51 12 13 21 29 21 36 0 7 9 20 19 29 11 10 23 31 26 48 4 16 15 34 26 41 10 6 19 19 19 29 0 9 11 30 25 46 14 17 25 34 25 39 0 5 11 19 25 31 14 12 25 28 25 36 0 7 8 24 18 37 11 13 22 36 26 52 3 15 27 54 51 86 25 33 45 63 45 69 0 5 9 20 19 34 11 13 23 36 26 51 4 14 15 33 26 43 10 9 19 22 19 27 0 6 11 25 25 43 14 18 25 37 25 42 0 5 9 17 19 26 11 10 23 37 26 59 4 23 16 56 26 73 l19 31 0 104 c0 74 -4 110 -14 125 -8 11 -20 49 -26 84 -14 75 -35 111 -117 198 l-59 62 -109 0 -110 0 -97 -99 c-54 -55 -98 -106 -98 -115 0 -8 16 -28 37 -43 64 -49 190 -177 197 -200 4 -13 11 -23 16 -23 5 0 16 -23 24 -51 9 -28 21 -58 28 -67 9 -10 14 -60 17 -145 l3 -129 -20 -27 c-11 -15 -23 -41 -26 -58 -4 -17 -16 -39 -27 -49 -10 -9 -19 -23 -19 -30 0 -7 -11 -26 -25 -42 -14 -17 -25 -37 -25 -46 0 -8 -11 -23 -25 -32 -15 -10 -25 -26 -25 -40 0 -13 -9 -31 -19 -41 -11 -10 -22 -35 -26 -56 -5 -27 -15 -42 -36 -52 -15 -8 -35 -15 -44 -15 -17 0 -35 38 -35 74 0 13 -7 29 -15 36 -8 7 -17 28 -21 49 -4 20 -14 45 -24 56 -10 11 -21 36 -25 55 -4 19 -16 47 -26 61 -10 14 -21 45 -25 67 -4 23 -13 47 -20 53 -7 6 -16 27 -20 48 -4 20 -15 47 -26 60 -10 13 -21 41 -24 62 -4 21 -15 46 -25 55 -11 9 -19 24 -19 33 0 9 -9 35 -20 56 -12 22 -23 59 -27 83 -3 23 -14 52 -25 64 -10 12 -21 33 -24 47 -3 14 -10 33 -15 41 -5 8 -19 34 -30 58 -11 23 -24 42 -28 42 -5 0 -21 25 -36 55 -15 31 -40 65 -56 77 -16 12 -29 25 -29 30 0 11 -80 87 -115 109 -34 21 -43 23 -67 8z" fill="#1A1A1A" transform="translate(0.000000,604.000000) scale(0.100000,-0.100000)"/>
<path d="M4490 2579 c-19 -10 -49 -19 -65 -19 -17 0 -46 -11 -65 -25 -19 -14 -44 -25 -55 -25 -12 0 -30 -9 -40 -20 -10 -11 -22 -20 -27 -20 -25 0 -145 -68 -176 -99 -20 -20 -53 -47 -73 -61 -38 -26 -114 -113 -143 -165 -35 -63 -57 -98 -71 -112 -8 -8 -15 -23 -15 -32 0 -10 -8 -29 -19 -42 -10 -13 -22 -43 -26 -66 -3 -23 -15 -53 -25 -65 -9 -13 -21 -42 -25 -65 -3 -23 -15 -53 -26 -67 -10 -13 -19 -38 -19 -56 0 -17 -9 -76 -21 -130 -16 -78 -19 -128 -17 -227 3 -124 29 -286 51 -328 6 -11 18 -34 27 -51 9 -17 26 -44 38 -59 12 -15 22 -33 22 -39 0 -7 14 -23 31 -36 17 -14 39 -33 50 -43 12 -10 44 -25 72 -34 29 -8 59 -21 68 -29 25 -22 166 -19 221 6 24 10 64 22 88 26 25 4 54 14 65 24 11 9 42 27 69 40 28 13 73 44 101 69 29 25 65 58 81 72 48 42 107 120 119 158 3 12 15 26 26 31 10 6 19 17 19 25 0 8 18 34 40 57 30 32 42 40 51 31 8 -8 14 -67 17 -160 l5 -148 17 -22 c10 -13 21 -40 25 -60 4 -21 18 -48 31 -62 13 -13 24 -27 24 -32 0 -4 20 -21 46 -38 l45 -31 58 0 c45 0 62 4 75 19 10 11 32 23 50 27 17 4 41 16 52 28 12 11 43 34 70 51 27 16 58 41 69 55 11 14 41 46 68 71 26 26 47 54 47 63 0 18 -15 22 -25 6 -3 -5 -13 -10 -21 -10 -8 0 -27 -9 -43 -21 -49 -36 -181 -36 -181 1 0 5 -11 20 -25 34 l-25 25 0 801 0 800 -337 -1 -338 0 -35 -20z m321 -249 l19 -11 0 -325 0 -325 -15 -36 c-8 -19 -15 -48 -15 -63 0 -38 -19 -87 -36 -94 -8 -3 -14 -15 -14 -26 0 -26 -18 -62 -36 -73 -7 -4 -15 -20 -19 -36 -3 -16 -13 -35 -21 -42 -8 -6 -14 -16 -14 -21 0 -15 -191 -207 -212 -214 -10 -3 -30 -16 -43 -30 -13 -13 -33 -24 -43 -24 -10 0 -27 -9 -37 -20 -25 -28 -103 -28 -138 0 -14 11 -31 20 -37 20 -21 0 -70 41 -120 102 -37 43 -50 67 -50 91 0 18 -8 52 -17 77 -12 33 -17 95 -21 236 l-5 192 21 43 c11 24 23 60 27 80 3 21 14 48 25 62 11 14 20 30 20 36 0 26 81 133 160 214 89 89 133 125 185 153 17 8 41 22 55 29 19 11 66 15 193 15 97 0 176 -4 188 -10z" fill="#1A1A1A" transform="translate(0.000000,604.000000) scale(0.100000,-0.100000)"/>
<path d="M7757 2576 c-69 -31 -142 -107 -156 -161 -6 -24 -11 -51 -11 -59 0 -22 27 -20 57 4 44 34 77 26 133 -31 28 -28 52 -61 55 -73 3 -11 6 -352 7 -756 l3 -735 25 -35 c33 -48 64 -71 130 -97 75 -31 207 -32 265 -3 22 11 45 20 51 20 6 0 19 11 28 25 9 14 21 25 26 25 20 0 110 106 116 137 3 17 15 39 25 49 24 21 27 104 5 104 -8 0 -19 -12 -24 -28 -6 -15 -21 -40 -35 -56 l-24 -29 -56 -5 c-67 -5 -96 1 -126 27 -13 11 -28 22 -34 24 -9 3 -13 195 -15 745 l-2 742 -20 33 c-11 17 -20 37 -20 44 0 13 -43 58 -88 91 l-31 22 -118 -1 -118 -1 -48 -22z" fill="#1A1A1A" transform="translate(0.000000,604.000000) scale(0.100000,-0.100000)"/>
<path d="M9170 2575 c-46 -25 -100 -73 -100 -89 0 -9 -44 -65 -80 -102 -11 -12 -20 -27 -20 -34 0 -6 -8 -24 -19 -38 -10 -15 -24 -44 -30 -64 -7 -20 -19 -42 -27 -48 -7 -7 -14 -18 -14 -25 0 -7 -11 -29 -25 -49 -27 -39 -32 -66 -14 -66 6 0 20 11 31 25 11 14 26 25 33 25 8 0 19 8 24 19 6 10 22 22 37 25 15 4 33 14 41 21 20 21 40 19 53 -4 7 -13 10 -272 10 -770 l0 -751 25 0 c14 0 34 11 47 25 12 14 28 25 36 25 8 0 27 11 44 25 16 14 35 25 43 25 7 0 18 7 25 15 7 8 28 17 48 21 19 4 46 19 58 33 l23 26 2 455 c0 250 4 466 8 480 4 16 28 37 69 60 34 20 68 43 75 51 13 17 109 84 159 111 17 9 34 21 37 26 3 5 20 17 38 26 18 9 37 25 43 36 6 11 17 20 24 20 8 0 20 7 27 17 23 26 111 64 125 52 9 -7 13 -166 16 -652 l3 -642 21 -30 c12 -16 25 -45 29 -63 4 -18 17 -43 28 -55 12 -12 33 -36 47 -54 l25 -32 78 -10 c93 -13 156 -2 199 34 16 14 33 25 38 25 15 0 100 89 100 105 l0 17 -42 -6 c-78 -11 -112 9 -148 92 -6 15 -10 308 -10 836 l0 812 -30 22 -29 22 -92 0 -91 0 -25 -20 c-14 -11 -31 -20 -37 -20 -6 0 -19 -8 -28 -17 -25 -27 -142 -123 -150 -123 -8 0 -208 -202 -208 -210 0 -4 -19 -25 -42 -48 -24 -23 -59 -62 -78 -89 -45 -61 -135 -153 -149 -153 -25 0 -31 62 -31 344 l0 293 -23 21 -23 22 -80 -1 -79 0 -45 -24z" fill="#1A1A1A" transform="translate(0.000000,604.000000) scale(0.100000,-0.100000)"/>
<path d="M11630 2586 c-14 -8 -44 -17 -68 -21 -24 -4 -46 -13 -48 -20 -3 -7 -22 -21 -42 -29 -43 -19 -124 -76 -179 -127 -52 -47 -163 -169 -163 -178 0 -4 -11 -18 -24 -31 -14 -12 -28 -35 -31 -51 -4 -15 -12 -33 -20 -39 -7 -6 -16 -27 -20 -48 -4 -20 -15 -46 -24 -57 -10 -11 -21 -42 -25 -70 -3 -27 -14 -61 -24 -75 -30 -40 -48 -326 -32 -490 7 -75 17 -131 25 -140 7 -8 19 -37 26 -65 6 -27 17 -55 24 -60 7 -6 22 -29 34 -53 12 -23 32 -54 43 -68 26 -29 94 -68 134 -78 16 -3 55 -16 87 -29 68 -26 82 -50 44 -82 -13 -12 -49 -57 -78 -99 -29 -43 -60 -81 -70 -86 -9 -5 -19 -21 -23 -34 -3 -14 -26 -45 -50 -70 l-43 -45 -6 -58 c-3 -32 -13 -78 -22 -102 -10 -30 -15 -81 -15 -162 l0 -119 94 0 94 0 5 48 c15 157 30 239 48 264 10 15 19 40 19 56 0 39 18 89 34 95 8 3 16 21 20 40 4 19 24 54 49 81 23 26 62 72 87 102 68 83 339 349 420 412 44 34 100 92 100 104 0 5 19 8 43 6 l42 -3 3 -603 2 -602 183 2 182 3 0 1295 0 1295 -405 2 -405 2 -25 -13z m448 -212 l22 -15 0 -325 c0 -255 -3 -331 -14 -352 -7 -15 -16 -55 -19 -90 -3 -35 -13 -75 -23 -90 -10 -15 -29 -47 -42 -72 -25 -48 -116 -140 -139 -140 -7 0 -16 -7 -19 -15 -12 -30 -145 -50 -237 -35 -33 5 -71 19 -88 32 -62 48 -117 104 -124 128 -4 14 -16 36 -26 49 -11 13 -19 32 -19 43 0 10 -10 32 -22 49 l-23 31 0 181 0 182 23 36 c12 20 22 45 22 55 0 22 46 114 64 129 7 6 36 37 66 70 55 61 72 74 180 143 l35 22 180 0 181 0 22 -16z" fill="#1A1A1A" transform="translate(0.000000,604.000000) scale(0.100000,-0.100000)"/>
<path d="M30305 2587 c-11 -8 -42 -18 -70 -22 -27 -4 -60 -15 -73 -25 -13 -11 -43 -22 -68 -26 -28 -4 -48 -13 -54 -24 -5 -10 -24 -22 -42 -25 -18 -4 -44 -16 -57 -26 -13 -11 -30 -19 -38 -19 -7 0 -16 -7 -20 -15 -3 -9 -18 -22 -34 -30 -15 -8 -39 -25 -52 -38 -13 -12 -43 -39 -65 -59 -23 -21 -51 -56 -62 -78 -11 -22 -25 -40 -31 -40 -5 0 -15 -14 -21 -30 -5 -17 -18 -35 -28 -40 -10 -5 -21 -25 -24 -44 -4 -19 -13 -39 -20 -45 -8 -7 -17 -27 -20 -45 -4 -18 -15 -43 -25 -55 -10 -12 -22 -40 -25 -63 -4 -24 -15 -52 -25 -63 -10 -11 -21 -41 -25 -68 -3 -26 -12 -60 -20 -75 -36 -71 -38 -550 -2 -619 8 -16 17 -50 21 -76 4 -26 11 -47 16 -47 4 0 24 -25 44 -55 20 -30 49 -65 65 -77 59 -48 74 -58 87 -58 7 0 38 -11 69 -25 73 -32 180 -35 238 -5 21 10 58 22 82 26 23 3 51 15 60 25 9 10 22 19 28 19 28 0 146 68 167 98 13 17 43 47 67 66 45 36 72 70 121 153 17 29 40 57 51 63 11 6 20 20 20 31 0 29 18 59 36 59 18 0 34 -40 34 -83 0 -17 4 -56 10 -86 5 -31 15 -96 22 -145 7 -54 18 -95 28 -105 9 -9 27 -33 40 -53 14 -21 28 -38 31 -38 4 0 17 -11 30 -25 l24 -25 63 0 c47 0 71 5 90 19 15 10 38 22 52 26 14 4 38 18 53 31 16 13 32 24 36 24 4 0 51 43 105 96 99 98 116 132 59 118 -16 -4 -36 -15 -45 -24 -21 -22 -84 -34 -132 -25 -36 7 -66 36 -66 64 0 8 -8 23 -17 34 l-18 19 -5 782 -5 781 -320 3 -320 2 -20 -13z m295 -261 c9 -11 11 -106 8 -378 -4 -357 -5 -377 -37 -428 -6 -8 -12 -28 -16 -43 -3 -15 -14 -35 -25 -45 -11 -9 -20 -23 -20 -32 0 -9 -8 -27 -17 -40 -10 -14 -25 -40 -33 -57 -35 -75 -267 -293 -312 -293 -6 0 -20 -7 -30 -16 -10 -10 -40 -19 -67 -22 -40 -3 -56 0 -79 17 -17 11 -36 21 -44 21 -7 0 -50 38 -94 85 l-81 85 -7 46 c-3 26 -6 112 -6 191 l0 144 -16 25 -17 24 16 43 c8 23 17 71 20 106 4 41 12 73 25 90 10 14 22 39 26 55 4 16 26 53 49 82 23 29 53 69 67 90 31 46 53 67 125 124 31 25 68 55 81 68 14 12 46 33 72 47 l47 24 176 1 177 0 12 -14z" fill="#1A1A1A" transform="translate(0.000000,604.000000) scale(0.100000,-0.100000)"/>
<path d="M32170 2585 c-14 -8 -44 -17 -67 -21 -23 -3 -49 -14 -58 -24 -10 -11 -30 -22 -47 -25 -16 -4 -32 -13 -35 -20 -2 -8 -23 -24 -46 -35 -59 -31 -227 -216 -227 -250 0 -5 -11 -21 -24 -37 -13 -15 -28 -45 -35 -65 -7 -20 -18 -41 -25 -48 -8 -6 -17 -26 -20 -44 -4 -18 -15 -41 -25 -50 -12 -11 -20 -38 -25 -83 -4 -36 -13 -81 -21 -101 -21 -50 -22 -508 -1 -538 8 -11 17 -42 21 -69 5 -29 18 -62 31 -78 13 -16 24 -36 24 -45 0 -10 9 -23 20 -30 11 -7 20 -19 20 -27 0 -15 83 -119 135 -170 38 -37 87 -71 114 -80 12 -4 29 -14 39 -24 10 -10 47 -23 89 -30 40 -7 77 -19 84 -27 9 -11 43 -14 156 -14 l144 0 38 19 c21 11 61 23 89 27 30 4 58 14 68 25 9 11 22 19 28 19 60 0 266 190 278 256 l3 19 -35 -3 c-19 -1 -42 -11 -52 -21 -9 -11 -32 -22 -50 -26 -18 -4 -59 -16 -90 -26 -70 -23 -170 -25 -229 -3 -24 8 -69 20 -99 25 -30 5 -67 18 -82 29 -15 11 -34 20 -42 20 -8 0 -21 8 -28 19 -7 10 -27 25 -43 34 -38 19 -128 105 -150 143 -9 16 -27 47 -41 69 -36 60 -54 102 -54 126 0 13 -7 30 -15 40 -27 29 -38 143 -33 341 l4 188 21 22 c11 13 24 40 27 61 4 21 16 43 26 50 11 6 20 18 20 25 0 19 88 110 114 118 11 3 31 16 44 28 l24 21 143 0 143 0 31 -22 c16 -13 35 -23 41 -23 16 0 126 -78 172 -122 44 -42 98 -144 98 -184 0 -31 12 -30 47 4 16 15 42 39 58 54 17 15 68 68 115 119 47 51 95 103 108 116 12 13 22 28 22 32 0 16 -170 181 -207 201 -38 20 -48 26 -115 67 -21 13 -45 23 -53 23 -9 0 -41 9 -72 20 l-57 20 -206 0 c-158 -1 -211 -4 -230 -15z" fill="#1A1A1A" transform="translate(0.000000,604.000000) scale(0.100000,-0.100000)"/>
<path d="M34000 2585 c-14 -8 -44 -17 -67 -21 -23 -3 -49 -14 -58 -24 -10 -11 -30 -22 -46 -25 -16 -4 -29 -11 -29 -16 0 -4 -26 -25 -59 -46 -62 -40 -203 -195 -225 -248 -7 -16 -20 -36 -29 -44 -10 -7 -17 -21 -17 -31 0 -9 -11 -33 -23 -52 -13 -19 -27 -49 -31 -68 -3 -19 -15 -43 -25 -55 -11 -12 -21 -42 -24 -80 -4 -33 -13 -80 -22 -104 -21 -60 -22 -488 -1 -529 7 -15 17 -47 21 -72 4 -25 16 -55 26 -68 10 -13 23 -39 29 -58 6 -19 15 -34 20 -34 4 0 15 -17 23 -38 20 -51 183 -216 223 -226 16 -4 38 -16 49 -26 11 -9 36 -20 55 -24 20 -3 52 -15 73 -26 l37 -20 148 0 c107 0 153 4 167 13 24 17 103 37 143 37 16 0 37 9 47 20 10 11 23 20 29 20 17 0 108 50 135 74 78 70 153 154 158 178 3 16 10 31 14 34 5 3 9 11 9 17 -1 7 -6 5 -13 -4 -7 -9 -28 -20 -47 -24 -19 -4 -43 -16 -52 -26 -10 -10 -35 -21 -55 -25 -21 -4 -46 -13 -55 -21 -41 -36 -315 -36 -356 0 -9 8 -34 17 -55 20 -20 3 -50 15 -66 26 -16 12 -36 21 -44 21 -9 0 -24 10 -34 23 -10 12 -31 28 -48 35 -54 23 -108 82 -75 82 6 0 13 8 17 18 3 9 56 65 117 124 61 60 122 120 136 135 14 16 45 46 69 68 24 22 55 53 70 70 14 16 91 96 171 177 80 82 163 167 185 191 23 23 56 56 74 72 18 17 79 78 136 138 57 59 111 107 120 107 8 0 15 9 15 20 0 13 -7 20 -19 20 -11 0 -32 17 -48 39 -30 41 -118 117 -168 145 -63 35 -98 57 -112 71 -8 8 -25 15 -39 15 -13 0 -50 9 -81 20 l-57 20 -206 0 c-158 -1 -211 -4 -230 -15z m275 -274 c21 -12 45 -21 52 -21 7 0 18 -9 25 -20 7 -11 18 -20 24 -20 7 0 26 -25 43 -55 l31 -55 0 -73 0 -73 -23 -31 c-12 -17 -167 -175 -345 -353 l-323 -322 -27 7 c-34 8 -39 17 -47 79 -4 27 -15 65 -23 85 l-16 36 -1 190 0 190 17 30 c9 17 19 51 23 77 4 26 16 54 26 64 10 9 19 22 19 28 0 11 87 130 113 155 40 38 60 52 99 72 72 35 89 39 193 35 77 -3 109 -9 140 -25z" fill="#1A1A1A" transform="translate(0.000000,604.000000) scale(0.100000,-0.100000)"/>
<path d="M17693 2571 c-24 -9 -55 -33 -73 -56 -17 -22 -37 -45 -44 -50 -7 -6 -18 -32 -23 -57 -8 -37 -8 -50 3 -59 10 -8 22 -6 47 10 43 26 72 27 94 1 10 -11 22 -20 28 -20 5 0 24 -17 40 -38 l30 -37 5 -758 5 -757 43 -50 c24 -28 51 -50 60 -50 10 0 34 -9 55 -20 l37 -20 96 0 96 0 25 20 c14 11 34 20 43 20 10 0 25 11 34 25 9 14 20 25 25 25 20 0 109 98 120 132 7 20 19 42 27 48 19 17 19 90 0 90 -8 0 -17 -9 -21 -19 -3 -11 -22 -34 -41 -50 l-35 -31 -63 0 -63 0 -39 31 c-22 17 -42 38 -46 47 -4 9 -7 342 -7 739 l-1 722 -25 37 c-14 20 -25 42 -25 49 0 7 -19 31 -41 54 l-41 41 -142 -1 c-106 -1 -151 -5 -183 -18z" fill="#1A1A1A" transform="translate(0.000000,604.000000) scale(0.100000,-0.100000)"/>
<path d="M18740 2450 c0 -5 5 -10 10 -10 6 0 10 5 10 10 0 6 -4 10 -10 10 -5 0 -10 -4 -10 -10z" fill="#1A1A1A" transform="translate(0.000000,604.000000) scale(0.100000,-0.100000)"/>
<path d="M32905 1040 c-3 -5 -1 -10 4 -10 6 0 11 5 11 10 0 6 -2 10 -4 10 -3 0 -8 -4 -11 -10z" fill="#1A1A1A" transform="translate(0.000000,604.000000) scale(0.100000,-0.100000)"/>
<path d="M21876 861 c-4 -7 -5 -15 -2 -18 9 -9 19 4 14 18 l-4 13 -8 -13z" fill="#1A1A1A" transform="translate(0.000000,604.000000) scale(0.100000,-0.100000)"/>
    </svg>
  </g>
</svg>