<?xml version="1.0" encoding="UTF-8"?>
<svg xmlns="http://www.w3.org/2000/svg" viewBox="0 0 415.0 415.0" width="415.0" height="415.0">
  <title>Caring With Grace - Butterfly Icon</title>
  <g transform="translate(20.0,32.5)">
    <svg viewBox="0 0 375.000000 350.000000" width="375.0" height="350.0">
      <defs><clipPath id="bf-clip-dustyrose"><path d="M2640 3284 c-14 -9 -40 -36 -59 -60 -18 -24 -40 -44 -47 -44 -8 0 -14 -4 -14 -9 0 -5 -11 -22 -24 -38 -13 -15 -27 -48 -30 -73 -11 -70 -15 -79 -39 -82 -16 -2 -32 -23 -59 -77 -20 -40 -46 -83 -57 -95 -22 -24 -27 -51 -11 -61 6 -3 10 -13 10 -21 0 -11 -4 -12 -19 -2 -32 20 -51 -5 -51 -66 0 -44 -4 -57 -26 -77 -22 -20 -25 -30 -21 -62 6 -44 -5 -90 -26 -112 -19 -18 -37 -100 -37 -166 0 -27 -6 -60 -14 -72 -8 -12 -17 -62 -21 -112 -31 -366 -23 -572 25 -604 14 -9 20 -24 20 -50 0 -37 22 -76 71 -125 13 -13 29 -30 36 -38 7 -7 24 -22 39 -33 14 -11 31 -26 37 -33 7 -7 20 -21 30 -30 9 -9 17 -23 17 -30 0 -17 91 -112 107 -112 7 0 26 -14 43 -30 17 -17 39 -30 49 -30 10 0 28 -9 41 -20 12 -11 38 -22 56 -26 19 -3 38 -12 42 -19 4 -6 24 -15 46 -18 21 -3 47 -14 57 -23 11 -10 31 -18 47 -19 36 -2 134 -26 147 -35 25 -19 68 -20 94 -4 49 32 111 103 111 129 0 18 11 32 39 49 32 20 40 33 46 66 5 29 14 44 28 50 50 21 66 45 64 94 -2 39 2 51 20 66 17 13 24 33 29 75 5 36 14 65 26 77 10 10 18 26 18 36 0 29 26 93 34 85 5 -5 -7 14 -25 41 -49 69 -47 66 -54 119 -5 37 -12 50 -29 58 -33 15 -62 67 -46 82 10 9 14 9 17 0 8 -22 32 -15 28 8 -5 26 -4 25 -37 33 -17 4 -28 2 -28 -4 0 -16 -46 -12 -60 5 -7 8 -22 15 -34 15 -13 0 -33 11 -46 24 -14 16 -36 26 -59 28 -31 3 -36 7 -39 31 -2 15 -8 25 -13 21 -6 -3 -20 5 -33 19 -12 13 -28 26 -34 28 -17 6 -24 130 -12 204 6 33 12 70 13 82 4 33 17 41 24 15 9 -36 33 -27 33 13 0 35 -20 49 -36 23 -9 -14 -34 18 -34 44 0 10 -11 24 -25 30 -20 9 -25 19 -25 46 0 20 -7 43 -16 53 -9 10 -18 37 -21 61 -4 23 -12 49 -20 56 -7 8 -11 18 -8 23 4 5 2 9 -3 9 -5 0 -13 8 -16 18 -4 9 -18 37 -31 62 -14 25 -25 59 -25 77 0 17 -7 38 -15 47 -8 8 -15 26 -15 40 0 25 15 32 55 27 6 -1 -2 9 -17 22 -21 17 -28 32 -28 59 0 20 5 40 10 43 6 3 10 44 10 90 0 75 -2 85 -22 99 -12 9 -32 16 -45 16 -12 0 -28 7 -37 15 -19 19 -44 19 -76 -1z m-400 -1655 c0 -24 -23 -21 -28 4 -2 10 3 17 12 17 10 0 16 -9 16 -21z m510 -15 c0 -8 -9 -14 -20 -14 -22 0 -26 10 -8 28 13 13 28 7 28 -14z m-560 -159 c0 -8 -9 -15 -20 -15 -20 0 -26 11 -13 23 12 13 33 7 33 -8z m244 -91 c4 -9 4 -19 2 -21 -8 -8 -60 13 -64 25 -6 19 55 15 62 -4z m265 3 c6 -8 8 -17 5 -20 -10 -9 -45 13 -39 24 9 13 21 11 34 -4z" transform="translate(0.000000,350.000000) scale(0.100000,-0.100000)"/><path d="M2862 2913 c5 -26 38 -29 38 -4 0 15 -6 21 -21 21 -14 0 -19 -5 -17 -17z" transform="translate(0.000000,350.000000) scale(0.100000,-0.100000)"/><path d="M365 2225 c-75 -26 -93 -42 -99 -87 -3 -24 -8 -60 -12 -80 -6 -36 -5 -38 20 -38 14 0 26 -5 26 -10 0 -6 12 -16 28 -22 15 -7 34 -21 43 -30 9 -10 24 -18 33 -18 22 0 165 -145 199 -202 15 -26 27 -60 27 -77 0 -20 7 -34 19 -41 11 -5 22 -23 26 -39 3 -16 17 -41 30 -55 13 -14 27 -42 31 -61 3 -19 10 -35 15 -35 5 0 21 -27 36 -60 14 -33 30 -60 34 -60 5 0 9 -5 9 -11 0 -18 27 -39 51 -39 12 0 27 -7 33 -15 6 -8 31 -19 56 -23 40 -7 45 -10 48 -37 2 -17 11 -38 20 -49 27 -29 29 -163 4 -234 -11 -31 -23 -82 -26 -113 -5 -48 -3 -59 14 -74 18 -16 19 -20 5 -35 -13 -15 -12 -25 11 -93 14 -42 31 -78 37 -78 7 -1 21 -1 32 0 11 0 14 -2 8 -5 -33 -14 12 -94 53 -94 7 0 14 -4 14 -10 0 -5 6 -10 14 -10 8 0 28 -11 44 -25 17 -14 38 -25 49 -25 10 0 30 -8 43 -17 13 -9 51 -20 84 -24 43 -5 65 -13 77 -28 29 -35 99 -32 99 4 0 21 13 19 27 -4 9 -14 30 -20 100 -25 111 -9 124 -9 190 -1 50 6 56 9 69 41 8 19 18 34 24 34 5 0 12 21 15 47 3 27 9 53 13 59 4 7 24 36 44 66 22 32 42 77 49 109 6 30 15 59 19 64 16 19 32 172 26 246 -3 41 -8 130 -12 199 -4 81 -11 132 -20 145 -8 11 -14 32 -14 48 0 18 -12 39 -35 62 -29 30 -34 40 -28 66 5 25 1 35 -21 55 -14 14 -26 29 -26 34 0 12 -45 56 -70 70 -11 6 -20 15 -20 20 0 19 -64 70 -125 99 -38 18 -65 37 -65 46 0 8 -5 15 -12 15 -6 0 -26 11 -43 24 -18 14 -44 28 -59 32 -14 3 -26 10 -26 15 0 4 -16 16 -36 25 -20 9 -38 23 -41 31 -3 7 -13 13 -23 13 -10 0 -32 11 -48 25 -17 14 -39 25 -50 25 -12 0 -27 9 -35 20 -8 11 -29 23 -48 26 -19 4 -45 15 -58 26 -26 20 -51 24 -51 8 0 -22 -18 -8 -23 19 -6 29 -33 41 -96 41 -17 0 -36 10 -49 25 -26 30 -43 32 -60 5 -18 -29 -30 -25 -50 18 -18 39 -19 39 -117 33 -49 -3 -106 12 -116 30 -12 23 -32 24 -49 4 -14 -16 -33 -14 -84 11 -34 16 -154 16 -201 -1z m1205 -1150 c0 -26 -14 -33 -25 -15 -9 14 1 40 15 40 5 0 10 -11 10 -25z m230 -125 c0 -15 -7 -20 -25 -20 -29 0 -33 15 -7 29 25 15 32 13 32 -9z m-174 -141 c9 -16 -12 -33 -31 -25 -14 5 -15 9 -5 21 15 18 26 19 36 4z" transform="translate(0.000000,350.000000) scale(0.100000,-0.100000)"/><path d="M570 1590 c0 -5 7 -10 15 -10 8 0 15 5 15 10 0 6 -7 10 -15 10 -8 0 -15 -4 -15 -10z" transform="translate(0.000000,350.000000) scale(0.100000,-0.100000)"/><path d="M944 746 c-8 -21 -1 -59 12 -63 13 -4 25 43 17 64 -7 17 -22 17 -29 -1z" transform="translate(0.000000,350.000000) scale(0.100000,-0.100000)"/></clipPath></defs>
<path d="M2640 3284 c-14 -9 -40 -36 -59 -60 -18 -24 -40 -44 -47 -44 -8 0 -14 -4 -14 -9 0 -5 -11 -22 -24 -38 -13 -15 -27 -48 -30 -73 -11 -70 -15 -79 -39 -82 -16 -2 -32 -23 -59 -77 -20 -40 -46 -83 -57 -95 -22 -24 -27 -51 -11 -61 6 -3 10 -13 10 -21 0 -11 -4 -12 -19 -2 -32 20 -51 -5 -51 -66 0 -44 -4 -57 -26 -77 -22 -20 -25 -30 -21 -62 6 -44 -5 -90 -26 -112 -19 -18 -37 -100 -37 -166 0 -27 -6 -60 -14 -72 -8 -12 -17 -62 -21 -112 -31 -366 -23 -572 25 -604 14 -9 20 -24 20 -50 0 -37 22 -76 71 -125 13 -13 29 -30 36 -38 7 -7 24 -22 39 -33 14 -11 31 -26 37 -33 7 -7 20 -21 30 -30 9 -9 17 -23 17 -30 0 -17 91 -112 107 -112 7 0 26 -14 43 -30 17 -17 39 -30 49 -30 10 0 28 -9 41 -20 12 -11 38 -22 56 -26 19 -3 38 -12 42 -19 4 -6 24 -15 46 -18 21 -3 47 -14 57 -23 11 -10 31 -18 47 -19 36 -2 134 -26 147 -35 25 -19 68 -20 94 -4 49 32 111 103 111 129 0 18 11 32 39 49 32 20 40 33 46 66 5 29 14 44 28 50 50 21 66 45 64 94 -2 39 2 51 20 66 17 13 24 33 29 75 5 36 14 65 26 77 10 10 18 26 18 36 0 29 26 93 34 85 5 -5 -7 14 -25 41 -49 69 -47 66 -54 119 -5 37 -12 50 -29 58 -33 15 -62 67 -46 82 10 9 14 9 17 0 8 -22 32 -15 28 8 -5 26 -4 25 -37 33 -17 4 -28 2 -28 -4 0 -16 -46 -12 -60 5 -7 8 -22 15 -34 15 -13 0 -33 11 -46 24 -14 16 -36 26 -59 28 -31 3 -36 7 -39 31 -2 15 -8 25 -13 21 -6 -3 -20 5 -33 19 -12 13 -28 26 -34 28 -17 6 -24 130 -12 204 6 33 12 70 13 82 4 33 17 41 24 15 9 -36 33 -27 33 13 0 35 -20 49 -36 23 -9 -14 -34 18 -34 44 0 10 -11 24 -25 30 -20 9 -25 19 -25 46 0 20 -7 43 -16 53 -9 10 -18 37 -21 61 -4 23 -12 49 -20 56 -7 8 -11 18 -8 23 4 5 2 9 -3 9 -5 0 -13 8 -16 18 -4 9 -18 37 -31 62 -14 25 -25 59 -25 77 0 17 -7 38 -15 47 -8 8 -15 26 -15 40 0 25 15 32 55 27 6 -1 -2 9 -17 22 -21 17 -28 32 -28 59 0 20 5 40 10 43 6 3 10 44 10 90 0 75 -2 85 -22 99 -12 9 -32 16 -45 16 -12 0 -28 7 -37 15 -19 19 -44 19 -76 -1z m-400 -1655 c0 -24 -23 -21 -28 4 -2 10 3 17 12 17 10 0 16 -9 16 -21z m510 -15 c0 -8 -9 -14 -20 -14 -22 0 -26 10 -8 28 13 13 28 7 28 -14z m-560 -159 c0 -8 -9 -15 -20 -15 -20 0 -26 11 -13 23 12 13 33 7 33 -8z m244 -91 c4 -9 4 -19 2 -21 -8 -8 -60 13 -64 25 -6 19 55 15 62 -4z m265 3 c6 -8 8 -17 5 -20 -10 -9 -45 13 -39 24 9 13 21 11 34 -4z" fill="#D4899E" transform="translate(0.000000,350.000000) scale(0.100000,-0.100000)"/>
<path d="M2862 2913 c5 -26 38 -29 38 -4 0 15 -6 21 -21 21 -14 0 -19 -5 -17 -17z" fill="#D4899E" transform="translate(0.000000,350.000000) scale(0.100000,-0.100000)"/>
<path d="M365 2225 c-75 -26 -93 -42 -99 -87 -3 -24 -8 -60 -12 -80 -6 -36 -5 -38 20 -38 14 0 26 -5 26 -10 0 -6 12 -16 28 -22 15 -7 34 -21 43 -30 9 -10 24 -18 33 -18 22 0 165 -145 199 -202 15 -26 27 -60 27 -77 0 -20 7 -34 19 -41 11 -5 22 -23 26 -39 3 -16 17 -41 30 -55 13 -14 27 -42 31 -61 3 -19 10 -35 15 -35 5 0 21 -27 36 -60 14 -33 30 -60 34 -60 5 0 9 -5 9 -11 0 -18 27 -39 51 -39 12 0 27 -7 33 -15 6 -8 31 -19 56 -23 40 -7 45 -10 48 -37 2 -17 11 -38 20 -49 27 -29 29 -163 4 -234 -11 -31 -23 -82 -26 -113 -5 -48 -3 -59 14 -74 18 -16 19 -20 5 -35 -13 -15 -12 -25 11 -93 14 -42 31 -78 37 -78 7 -1 21 -1 32 0 11 0 14 -2 8 -5 -33 -14 12 -94 53 -94 7 0 14 -4 14 -10 0 -5 6 -10 14 -10 8 0 28 -11 44 -25 17 -14 38 -25 49 -25 10 0 30 -8 43 -17 13 -9 51 -20 84 -24 43 -5 65 -13 77 -28 29 -35 99 -32 99 4 0 21 13 19 27 -4 9 -14 30 -20 100 -25 111 -9 124 -9 190 -1 50 6 56 9 69 41 8 19 18 34 24 34 5 0 12 21 15 47 3 27 9 53 13 59 4 7 24 36 44 66 22 32 42 77 49 109 6 30 15 59 19 64 16 19 32 172 26 246 -3 41 -8 130 -12 199 -4 81 -11 132 -20 145 -8 11 -14 32 -14 48 0 18 -12 39 -35 62 -29 30 -34 40 -28 66 5 25 1 35 -21 55 -14 14 -26 29 -26 34 0 12 -45 56 -70 70 -11 6 -20 15 -20 20 0 19 -64 70 -125 99 -38 18 -65 37 -65 46 0 8 -5 15 -12 15 -6 0 -26 11 -43 24 -18 14 -44 28 -59 32 -14 3 -26 10 -26 15 0 4 -16 16 -36 25 -20 9 -38 23 -41 31 -3 7 -13 13 -23 13 -10 0 -32 11 -48 25 -17 14 -39 25 -50 25 -12 0 -27 9 -35 20 -8 11 -29 23 -48 26 -19 4 -45 15 -58 26 -26 20 -51 24 -51 8 0 -22 -18 -8 -23 19 -6 29 -33 41 -96 41 -17 0 -36 10 -49 25 -26 30 -43 32 -60 5 -18 -29 -30 -25 -50 18 -18 39 -19 39 -117 33 -49 -3 -106 12 -116 30 -12 23 -32 24 -49 4 -14 -16 -33 -14 -84 11 -34 16 -154 16 -201 -1z m1205 -1150 c0 -26 -14 -33 -25 -15 -9 14 1 40 15 40 5 0 10 -11 10 -25z m230 -125 c0 -15 -7 -20 -25 -20 -29 0 -33 15 -7 29 25 15 32 13 32 -9z m-174 -141 c9 -16 -12 -33 -31 -25 -14 5 -15 9 -5 21 15 18 26 19 36 4z" fill="#D4899E" transform="translate(0.000000,350.000000) scale(0.100000,-0.100000)"/>
<path d="M570 1590 c0 -5 7 -10 15 -10 8 0 15 5 15 10 0 6 -7 10 -15 10 -8 0 -15 -4 -15 -10z" fill="#D4899E" transform="translate(0.000000,350.000000) scale(0.100000,-0.100000)"/>
<path d="M944 746 c-8 -21 -1 -59 12 -63 13 -4 25 43 17 64 -7 17 -22 17 -29 -1z" fill="#D4899E" transform="translate(0.000000,350.000000) scale(0.100000,-0.100000)"/>
<g clip-path="url(#bf-clip-dustyrose)">
<path d="M2670 3305 c-7 -8 -19 -15 -26 -15 -8 0 -11 -6 -8 -15 4 -10 0 -15 -10 -15 -14 0 -44 -27 -140 -130 -8 -8 -17 -33 -21 -55 -13 -83 -13 -83 -40 -77 -21 4 -27 -1 -40 -31 -8 -20 -19 -38 -25 -42 -5 -3 -10 -15 -10 -25 0 -25 -39 -90 -54 -90 -7 0 -13 -7 -13 -15 0 -11 11 -15 39 -15 37 0 40 3 59 48 22 50 75 110 87 98 4 -4 -1 -13 -11 -20 -12 -10 -17 -27 -17 -64 0 -79 35 -84 47 -6 3 21 14 47 24 57 24 23 24 43 -1 64 -24 21 -26 69 -6 116 17 41 104 133 134 142 27 8 29 -6 2 -30 -11 -10 -20 -23 -20 -30 0 -7 -9 -20 -20 -30 -24 -22 -27 -75 -5 -75 9 0 20 11 25 24 5 13 20 35 34 49 14 15 26 32 26 39 1 7 11 26 24 42 29 34 48 30 72 -15 15 -30 15 -36 0 -83 -9 -28 -18 -86 -22 -129 -5 -62 -9 -79 -25 -87 -10 -6 -19 -17 -19 -25 0 -8 -5 -15 -11 -15 -14 0 -179 -165 -179 -179 0 -6 -15 -11 -34 -11 -30 0 -36 -4 -45 -33 -12 -34 -6 -67 10 -67 5 0 27 18 50 40 22 21 49 42 60 45 10 4 19 12 19 19 0 7 9 21 20 31 11 10 20 24 20 32 0 7 11 18 25 23 14 5 25 14 25 19 0 5 11 12 24 15 14 3 28 15 31 27 5 15 14 19 33 17 24 -3 29 -10 43 -67 17 -64 31 -83 59 -78 24 4 22 31 -4 62 -17 19 -27 47 -32 82 -3 29 -12 57 -19 63 -20 17 -6 50 21 50 30 0 30 11 0 39 -22 21 -26 46 -13 69 3 4 8 36 12 72 4 36 9 68 11 72 3 4 -4 15 -16 25 -11 10 -20 25 -20 34 0 18 -19 29 -50 29 -11 0 -24 9 -30 20 -13 24 -33 26 -50 5z" fill="#8C4A60" transform="translate(0.000000,350.000000) scale(0.100000,-0.100000)"/>
<path d="M2941 3053 c-16 -17 -11 -25 8 -14 7 5 12 13 10 19 -2 6 -10 4 -18 -5z" fill="#8C4A60" transform="translate(0.000000,350.000000) scale(0.100000,-0.100000)"/>
<path d="M2537 3033 c-4 -3 -7 -19 -7 -35 0 -25 4 -29 23 -26 17 2 23 11 25 36 3 26 0 32 -16 32 -10 0 -22 -3 -25 -7z" fill="#8C4A60" transform="translate(0.000000,350.000000) scale(0.100000,-0.100000)"/>
<path d="M2840 2923 c0 -15 34 -43 53 -43 9 0 17 4 17 9 0 5 3 18 6 28 5 17 5 17 -9 1 -18 -22 -26 -22 -49 -1 -10 9 -18 12 -18 6z" fill="#8C4A60" transform="translate(0.000000,350.000000) scale(0.100000,-0.100000)"/>
<path d="M2202 2731 c-9 -26 -9 -37 -1 -45 9 -8 10 -8 5 2 -4 6 -2 12 4 12 7 0 10 7 7 14 -4 10 -1 13 9 9 9 -3 14 -20 14 -53 0 -38 -6 -55 -27 -81 -24 -28 -28 -43 -29 -98 -1 -48 -6 -68 -18 -77 -9 -6 -20 -29 -24 -50 l-6 -39 -7 35 c-4 19 -5 -10 -2 -65 5 -85 3 -103 -11 -114 -11 -9 -16 -31 -17 -65 -1 -28 -4 -76 -9 -106 -7 -51 -7 -46 -10 50 l-4 105 -6 -120 c-3 -66 -2 -142 3 -168 6 -31 5 -58 -2 -75 -5 -15 -13 -67 -17 -115 -5 -72 -4 -91 9 -105 8 -9 21 -45 27 -79 7 -35 21 -69 31 -79 11 -9 19 -27 19 -40 0 -25 55 -114 71 -114 5 0 15 -11 21 -25 6 -14 17 -25 25 -25 7 0 16 -7 19 -15 4 -8 12 -15 19 -15 17 0 61 -58 81 -109 9 -22 20 -41 26 -41 5 0 6 -4 3 -10 -3 -5 3 -10 15 -10 12 0 19 -4 16 -9 -7 -10 16 -21 43 -21 23 0 67 -46 50 -52 -6 -2 5 -4 26 -5 21 -1 40 -5 44 -11 3 -5 16 -12 29 -16 12 -4 22 -12 22 -17 0 -5 11 -9 25 -9 14 0 25 -4 25 -9 0 -5 19 -12 43 -16 23 -4 50 -16 60 -26 11 -12 31 -19 54 -19 37 0 114 -19 123 -30 3 -4 27 -10 54 -14 42 -5 55 -3 83 16 18 13 33 28 33 33 0 6 14 19 30 30 20 13 30 28 30 45 0 31 8 41 45 60 22 12 33 27 43 63 9 31 19 47 29 47 30 0 -16 39 -54 46 -19 4 -45 17 -58 30 -15 15 -36 24 -55 24 -17 0 -33 6 -36 14 -9 24 -59 39 -83 26 -12 -6 -21 -15 -21 -20 0 -13 42 -40 62 -40 9 0 21 -6 25 -14 11 -18 47 -36 72 -36 25 0 90 -41 91 -57 0 -6 -13 -21 -30 -33 l-29 -21 -21 21 c-11 11 -29 20 -40 20 -10 0 -23 6 -27 14 -11 19 -47 36 -76 36 -14 0 -30 7 -37 15 -14 16 -75 21 -85 6 -8 -14 23 -41 48 -41 12 0 28 -9 34 -19 7 -11 27 -22 45 -26 18 -4 39 -16 46 -26 7 -11 22 -19 32 -19 56 0 67 -39 23 -82 -16 -15 -39 -38 -53 -52 -29 -31 -35 -31 -120 -3 -56 19 -65 26 -68 48 -3 28 -69 89 -96 89 -25 0 -46 11 -46 25 0 7 -13 18 -29 25 -16 6 -32 18 -35 25 -3 8 -21 17 -41 21 -19 3 -40 15 -46 25 -7 13 -21 19 -45 19 -24 0 -37 5 -41 18 -8 21 -23 32 -46 32 -28 0 -18 -44 10 -48 13 -2 29 -12 36 -23 8 -10 28 -22 46 -25 17 -4 36 -15 41 -25 6 -9 24 -20 40 -24 17 -4 42 -17 57 -30 51 -46 62 -53 79 -57 11 -2 20 -11 22 -21 5 -26 -29 -22 -106 14 -37 17 -91 42 -119 55 -29 14 -53 29 -53 33 0 5 -11 13 -24 18 -32 11 -116 90 -116 109 0 18 -51 69 -103 104 -20 14 -37 31 -37 37 0 7 -11 20 -25 29 -14 9 -25 24 -25 33 0 9 -7 25 -15 35 -25 33 -19 48 14 41 16 -3 38 -1 48 4 10 6 30 15 46 21 58 21 20 54 -50 43 -32 -5 -40 -2 -60 23 -23 28 -24 29 -39 9 -12 -16 -16 -17 -23 -6 -18 28 -21 140 -11 330 9 172 13 198 32 230 20 32 22 47 19 134 -3 109 9 145 37 106 10 -15 17 -18 25 -10 8 8 8 14 -1 23 -14 14 -16 72 -2 97 6 13 5 24 -5 37 -19 25 -19 78 1 95 13 11 19 8 40 -17 l25 -29 -5 48 c-6 49 13 107 34 107 21 0 9 31 -16 40 -14 6 -28 20 -31 31 -4 16 -11 19 -29 15 -16 -4 -24 -1 -26 11 -3 13 -8 7 -16 -16z" fill="#8C4A60" transform="translate(0.000000,350.000000) scale(0.100000,-0.100000)"/>
<path d="M2911 2619 c-39 -35 -42 -41 -30 -57 24 -28 45 -85 41 -109 -2 -15 -13 -24 -33 -28 -16 -4 -35 -14 -41 -24 -7 -10 -26 -21 -42 -25 -29 -7 -77 -51 -97 -88 -6 -11 -21 -18 -39 -18 -20 0 -30 -5 -30 -15 0 -10 10 -15 30 -15 18 0 33 6 36 15 4 8 13 15 21 15 8 0 28 11 45 25 16 14 38 25 49 25 10 0 24 9 31 20 7 11 18 20 25 20 7 0 23 10 35 22 20 20 22 20 35 3 7 -11 13 -34 13 -53 l0 -33 26 20 c35 27 69 27 88 -1 16 -22 16 -22 16 15 0 36 -20 52 -35 27 -12 -19 -23 -10 -39 30 -9 22 -22 40 -30 40 -9 0 -16 16 -20 45 -4 25 -12 45 -18 45 -5 0 -7 7 -4 16 3 8 2 12 -4 9 -16 -10 -12 39 6 74 9 18 14 34 13 36 -2 1 -24 -15 -48 -36z" fill="#8C4A60" transform="translate(0.000000,350.000000) scale(0.100000,-0.100000)"/>
<path d="M2750 2593 c-17 -16 -47 -43 -66 -60 -19 -18 -39 -33 -44 -33 -6 0 -10 -9 -10 -20 0 -13 -7 -20 -20 -20 -11 0 -23 -7 -27 -16 -3 -8 -17 -20 -30 -25 -14 -5 -27 -18 -30 -28 -3 -11 -13 -21 -24 -24 -25 -7 -25 -37 1 -37 11 0 20 6 20 14 0 8 14 19 30 25 17 5 30 15 30 21 0 20 54 67 93 79 20 7 37 17 37 22 0 5 6 9 14 9 8 0 22 10 30 21 8 12 25 27 38 33 14 7 24 22 26 39 4 37 -27 36 -68 0z" fill="#8C4A60" transform="translate(0.000000,350.000000) scale(0.100000,-0.100000)"/>
<path d="M2150 2590 c0 -11 4 -20 9 -20 5 0 7 9 4 20 -3 11 -7 20 -9 20 -2 0 -4 -9 -4 -20z" fill="#8C4A60" transform="translate(0.000000,350.000000) scale(0.100000,-0.100000)"/>
<path d="M3140 2416 c0 -10 28 -13 41 -5 10 6 7 9 -13 9 -16 0 -28 -2 -28 -4z" fill="#8C4A60" transform="translate(0.000000,350.000000) scale(0.100000,-0.100000)"/>
<path d="M560 2309 c0 -5 9 -9 20 -9 11 0 20 2 20 4 0 2 -9 6 -20 9 -11 3 -20 1 -20 -4z" fill="#8C4A60" transform="translate(0.000000,350.000000) scale(0.100000,-0.100000)"/>
<path d="M668 2283 c6 -2 18 -2 25 0 6 3 1 5 -13 5 -14 0 -19 -2 -12 -5z" fill="#8C4A60" transform="translate(0.000000,350.000000) scale(0.100000,-0.100000)"/>
<path d="M2966 2264 c-3 -9 -6 -33 -6 -54 0 -23 -6 -44 -16 -52 -8 -7 -29 -25 -45 -40 -16 -16 -39 -28 -50 -28 -12 0 -23 -8 -26 -20 -3 -11 -16 -23 -29 -26 -13 -3 -24 -10 -24 -15 0 -5 -11 -19 -25 -31 -30 -26 -32 -38 -5 -38 13 0 20 7 20 20 0 14 7 20 21 20 11 0 32 9 46 20 14 11 39 20 54 20 22 0 29 5 29 20 0 15 7 20 26 20 19 0 25 -5 22 -17 -2 -10 -12 -19 -23 -22 -11 -2 -26 -12 -33 -22 -7 -11 -20 -19 -28 -19 -8 0 -19 -11 -24 -25 -5 -14 -14 -25 -19 -25 -15 0 -71 -60 -71 -76 0 -21 38 -17 45 5 3 10 17 22 30 25 14 4 25 11 25 16 0 5 14 16 30 25 17 9 30 22 30 29 0 14 21 26 46 26 17 0 82 -66 94 -95 10 -26 -14 -73 -45 -87 -14 -6 -27 -19 -30 -29 -3 -10 -18 -19 -33 -21 -17 -2 -31 -12 -39 -29 -10 -20 -23 -28 -53 -33 -43 -7 -55 -25 -17 -27 37 -2 51 2 62 16 6 7 27 16 47 20 20 4 39 13 42 21 3 8 12 14 19 14 8 0 34 25 57 55 30 39 49 55 66 55 26 0 118 -39 149 -64 17 -13 18 -17 5 -26 -8 -5 -30 -10 -47 -10 -20 0 -41 -8 -53 -20 -13 -13 -33 -20 -60 -20 -27 0 -47 -7 -60 -20 -11 -11 -39 -24 -61 -29 -42 -10 -63 -27 -52 -44 8 -13 97 3 106 19 4 8 21 14 38 14 16 0 51 11 77 25 37 20 61 25 118 25 66 0 71 -2 92 -30 25 -33 27 -41 11 -57 -8 -8 -22 -8 -47 -1 -50 14 -140 1 -160 -23 -9 -10 -29 -19 -43 -19 -36 0 -59 -9 -59 -24 -1 -18 -47 -65 -75 -76 -16 -6 -25 -17 -25 -31 0 -21 3 -21 57 -15 59 7 83 18 64 30 -15 10 -14 56 2 56 7 0 31 9 52 21 31 16 62 22 135 24 93 3 96 3 116 -23 l22 -27 31 34 c17 19 30 35 29 36 -2 1 -12 7 -23 13 -12 6 -23 29 -31 62 -11 48 -10 53 6 57 20 5 33 29 25 43 -3 4 -15 6 -28 3 -18 -4 -19 -3 -7 6 12 8 12 11 1 11 -7 0 -11 6 -7 15 3 8 1 15 -5 15 -6 0 -8 4 -4 9 3 5 1 12 -5 16 -6 4 -8 11 -5 16 4 5 -5 9 -19 9 -18 0 -24 4 -20 14 4 11 0 13 -16 9 -11 -3 -19 -8 -16 -10 2 -3 -5 -14 -16 -25 -17 -17 -22 -18 -36 -5 -9 8 -32 18 -50 22 -21 4 -37 16 -44 31 -6 13 -15 25 -20 25 -4 1 -12 3 -18 4 -5 1 -15 3 -21 4 -5 0 -7 6 -4 11 3 6 0 10 -7 10 -10 0 -10 2 1 9 8 5 11 16 8 24 -7 19 -44 18 -52 -1 -3 -10 -14 -6 -40 15 l-35 28 0 92 c0 50 5 95 10 98 20 12 11 52 -12 59 -33 8 -35 8 -42 -10z m444 -453 c0 -9 6 -23 13 -30 10 -11 9 -12 -3 -6 -13 8 -13 6 -2 -8 8 -9 11 -21 7 -27 -10 -16 -45 7 -45 31 0 11 -4 17 -10 14 -12 -8 -13 -3 0 29 10 28 40 26 40 -3z" fill="#8C4A60" transform="translate(0.000000,350.000000) scale(0.100000,-0.100000)"/>
<path d="M668 2263 c6 -2 18 -2 25 0 6 3 1 5 -13 5 -14 0 -19 -2 -12 -5z" fill="#8C4A60" transform="translate(0.000000,350.000000) scale(0.100000,-0.100000)"/>
<path d="M391 2233 c-20 -6 -55 -16 -78 -23 -36 -9 -43 -15 -43 -35 0 -14 -6 -46 -12 -72 -10 -37 -10 -47 0 -50 20 -7 14 -26 -7 -20 -10 2 -25 1 -32 -4 -10 -6 -10 -9 -2 -9 7 0 10 -7 7 -15 -9 -21 25 -19 42 3 13 15 15 16 27 1 6 -9 22 -19 35 -23 12 -4 26 -16 32 -26 5 -10 21 -21 36 -24 30 -8 127 -99 117 -110 -4 -4 -1 -5 7 -2 13 5 63 -58 79 -98 2 -6 11 -17 19 -25 8 -8 12 -26 9 -44 l-4 -29 18 23 c24 31 24 53 -1 89 -11 17 -29 43 -40 60 -11 16 -20 34 -20 40 0 6 43 10 119 10 133 0 181 7 181 25 0 18 -48 25 -179 25 -84 -1 -121 -5 -135 -15 -16 -12 -26 -7 -104 56 -47 38 -93 69 -101 69 -9 0 -29 13 -44 30 -23 24 -26 33 -18 49 6 11 11 28 11 39 0 52 240 81 307 36 35 -22 18 -36 -41 -33 -116 5 -196 -1 -196 -15 0 -17 40 -24 154 -25 78 -2 92 1 112 20 30 28 54 19 54 -21 0 -35 26 -50 90 -50 29 0 42 -5 50 -20 6 -11 18 -20 28 -20 9 0 22 -10 27 -22 11 -26 40 -31 40 -8 0 8 -10 19 -23 25 -12 5 -25 18 -28 27 -3 10 -14 18 -24 18 -12 0 -20 8 -22 22 -2 15 -14 26 -33 33 -42 14 -49 29 -18 37 27 7 63 -5 63 -22 0 -6 14 -10 30 -10 25 0 30 4 30 24 0 13 7 29 15 36 9 7 14 19 11 27 -3 8 2 13 12 13 13 0 14 2 3 9 -11 7 -11 10 0 15 8 3 -1 5 -18 3 -18 -2 -33 0 -33 5 0 4 -5 8 -11 8 -5 0 -8 -4 -5 -9 4 -5 0 -12 -6 -14 -7 -3 -3 -6 10 -6 12 -1 22 -5 22 -11 0 -6 -37 -10 -90 -10 -84 0 -92 2 -112 25 -25 29 -35 31 -60 8 -16 -14 -22 -14 -46 -3 -39 20 -168 28 -211 13z" fill="#8C4A60" transform="translate(0.000000,350.000000) scale(0.100000,-0.100000)"/>
<path d="M2583 2200 c-3 -11 -14 -20 -24 -20 -22 0 -35 -18 -22 -31 6 -6 20 0 37 16 15 14 31 25 37 25 5 0 9 7 9 15 0 22 -31 18 -37 -5z" fill="#8C4A60" transform="translate(0.000000,350.000000) scale(0.100000,-0.100000)"/>
<path d="M3160 2160 c-12 -8 -10 -10 8 -10 13 0 20 4 17 10 -7 12 -6 12 -25 0z" fill="#8C4A60" transform="translate(0.000000,350.000000) scale(0.100000,-0.100000)"/>
<path d="M990 2146 c0 -8 5 -18 11 -21 5 -4 9 -21 7 -38 -3 -31 -1 -32 36 -35 22 -2 50 -12 63 -22 23 -18 53 -17 53 1 0 13 44 11 58 -3 7 -7 12 -22 12 -34 0 -19 6 -23 38 -26 32 -3 37 -7 40 -30 4 -33 29 -44 53 -22 23 21 42 9 34 -23 -5 -23 -4 -24 41 -21 31 2 48 -1 51 -9 3 -7 -2 -13 -11 -13 -9 0 -16 -4 -16 -9 0 -17 19 -22 37 -11 20 13 73 -2 73 -20 0 -5 13 -10 30 -10 19 0 33 -7 40 -20 6 -11 22 -23 36 -26 13 -3 29 -15 35 -25 5 -11 24 -26 42 -34 63 -31 88 -47 100 -66 6 -10 15 -19 20 -19 18 0 101 -78 127 -119 l28 -45 -23 -30 c-12 -17 -26 -41 -30 -53 -4 -14 -14 -23 -26 -23 -11 0 -24 -11 -31 -25 -6 -14 -19 -25 -29 -25 -10 0 -26 -11 -35 -24 -10 -16 -27 -26 -47 -28 -21 -2 -33 -9 -35 -20 -5 -27 54 -25 70 2 7 11 22 20 34 20 11 0 30 11 42 25 12 14 29 25 37 25 8 0 17 11 21 25 7 27 22 33 30 11 7 -19 -43 -116 -60 -116 -12 0 -31 -24 -72 -92 -6 -10 -18 -26 -27 -36 -10 -10 -17 -24 -17 -30 0 -6 -9 -16 -20 -22 -12 -6 -55 -47 -98 -91 -42 -45 -96 -92 -119 -106 -24 -14 -47 -32 -52 -41 -6 -11 -30 -16 -90 -20 -51 -3 -85 -10 -92 -18 -6 -8 -26 -14 -45 -14 -18 0 -39 -7 -46 -16 -7 -8 -23 -25 -35 -36 -13 -12 -23 -28 -23 -35 0 -7 -5 -13 -12 -13 -7 0 -31 -21 -54 -47 -23 -27 -45 -45 -49 -41 -4 4 -11 28 -16 54 -8 41 -6 52 13 80 13 18 34 35 49 38 15 3 30 14 34 25 3 10 18 22 33 26 15 4 34 12 42 19 8 8 27 16 41 20 15 3 29 15 32 26 5 20 11 24 59 34 15 3 30 15 33 26 4 14 15 20 36 20 33 0 89 47 89 74 0 26 -39 19 -50 -9 -5 -14 -16 -25 -23 -25 -8 0 -22 -8 -31 -19 -10 -11 -37 -21 -65 -25 -29 -4 -51 -12 -55 -21 -3 -8 -17 -15 -30 -15 -16 0 -32 -9 -42 -25 -9 -14 -23 -25 -32 -25 -14 0 -44 -17 -124 -71 -43 -30 -46 -8 -16 111 6 25 20 57 30 71 19 25 18 57 -8 163 -8 33 6 46 52 46 34 0 73 24 61 37 -5 4 -40 8 -78 8 -60 0 -70 3 -75 20 -9 26 -23 35 -60 35 -19 0 -39 9 -54 25 -29 31 -46 32 -71 3 -25 -31 -24 -41 3 -27 17 9 24 9 33 -4 6 -9 23 -18 38 -21 15 -3 37 -8 50 -11 17 -3 22 -12 23 -35 1 -17 9 -36 18 -43 13 -9 17 -29 18 -77 2 -71 -10 -169 -22 -185 -4 -5 -11 -36 -14 -67 -6 -48 -10 -56 -27 -55 -10 1 -22 9 -25 19 -3 10 -12 18 -20 18 -8 0 -13 -4 -10 -9 4 -5 1 -11 -6 -13 -16 -6 -15 -82 1 -102 17 -20 41 -21 41 -2 0 8 8 17 17 21 26 9 51 -27 47 -69 -1 -20 1 -36 6 -36 4 0 12 -17 17 -37 6 -28 15 -39 30 -41 14 -2 20 -8 17 -17 -4 -9 4 -17 21 -21 31 -8 40 2 50 55 4 22 21 49 49 75 24 23 45 47 47 55 3 7 20 19 39 25 20 6 39 21 45 33 13 31 69 42 94 19 16 -15 20 -15 51 0 18 9 35 25 37 35 7 25 29 24 50 -1 24 -28 30 -26 53 20 11 22 25 40 30 40 6 0 15 12 20 26 7 16 16 24 28 22 13 -2 18 -16 22 -62 4 -50 7 -57 18 -44 7 9 16 32 19 51 4 27 1 39 -15 55 -23 23 -14 38 28 44 20 2 28 12 39 48 18 57 43 113 55 122 6 4 19 2 29 -4 18 -9 19 -18 14 -82 -7 -74 -1 -116 14 -116 22 0 29 54 20 142 -8 87 -8 91 17 129 23 35 26 37 38 21 12 -15 15 -15 24 -2 5 8 10 31 10 50 1 112 31 144 56 60 16 -51 19 -180 5 -180 -23 0 -39 -34 -46 -94 -8 -75 0 -126 20 -126 18 0 25 33 25 115 0 86 16 77 32 -19 18 -110 -24 -364 -71 -421 -16 -20 -32 -47 -58 -95 -7 -14 -13 -41 -13 -61 0 -20 -8 -47 -17 -60 -10 -13 -23 -33 -29 -44 -10 -17 -22 -20 -90 -20 l-79 0 3 68 c2 51 7 72 22 87 16 16 20 34 20 89 0 69 -6 86 -27 73 -14 -9 -33 -77 -33 -117 0 -18 -8 -38 -20 -48 -15 -13 -20 -29 -20 -70 0 -58 -12 -77 -46 -77 -27 0 -30 4 -39 56 -5 36 -3 45 20 70 23 25 26 34 23 98 -2 45 -7 71 -16 74 -18 6 -42 -60 -42 -118 0 -37 -4 -50 -15 -50 -8 0 -17 -12 -21 -27 -3 -16 -10 -41 -15 -57 -5 -16 -6 -44 -3 -63 5 -26 9 -31 23 -24 9 5 52 6 96 4 209 -13 295 -1 295 42 0 8 7 18 16 23 8 5 18 27 21 50 3 23 10 39 14 36 5 -3 7 -9 5 -13 -3 -4 -1 -13 5 -21 6 -11 9 -4 9 23 0 23 -4 36 -10 32 -5 -3 -10 -1 -10 5 0 6 7 13 15 16 8 4 15 11 15 18 0 18 48 58 55 46 12 -19 27 -10 23 15 -3 13 -1 22 3 19 5 -3 9 0 9 5 0 6 -4 11 -9 11 -17 0 -22 51 -7 78 36 65 57 306 32 367 -12 27 -16 71 -16 156 0 66 -4 119 -9 119 -5 0 -14 20 -20 45 -6 25 -23 55 -36 67 -18 15 -25 32 -25 56 0 22 -8 43 -22 58 -41 42 -58 64 -58 73 0 5 -9 13 -21 16 -21 7 -43 50 -33 66 3 5 -2 9 -10 9 -9 0 -16 5 -16 10 0 6 -9 10 -20 10 -11 0 -20 5 -20 10 0 6 -10 10 -22 11 -38 1 -102 42 -108 69 -3 15 -15 27 -30 31 -16 5 -19 7 -7 8 9 1 17 6 17 11 0 6 -23 10 -51 10 -40 0 -57 6 -85 28 -18 15 -34 33 -34 40 0 7 -13 12 -29 12 -17 0 -42 11 -59 25 -17 14 -39 25 -49 25 -11 0 -30 11 -43 25 -14 15 -35 25 -51 25 -17 0 -42 12 -62 30 -19 17 -38 30 -42 30 -3 0 -13 7 -21 15 -9 9 -34 15 -59 15 -35 0 -52 6 -78 30 -37 32 -67 39 -67 16z m620 -1352 c0 -8 -5 -12 -10 -9 -6 4 -8 11 -5 16 9 14 15 11 15 -7z m-640 -85 c0 -10 -7 -19 -15 -19 -15 0 -21 31 -9 43 11 10 24 -3 24 -24z" fill="#8C4A60" transform="translate(0.000000,350.000000) scale(0.100000,-0.100000)"/>
<path d="M150 2128 c0 -16 5 -28 11 -28 5 0 7 5 3 12 -5 7 -3 8 5 4 7 -5 10 -14 7 -22 -3 -8 -1 -14 4 -14 6 0 10 9 10 20 0 11 7 20 16 20 8 0 13 4 10 8 -3 5 -15 8 -28 7 -13 -1 -26 3 -30 9 -4 6 -8 -1 -8 -16z" fill="#8C4A60" transform="translate(0.000000,350.000000) scale(0.100000,-0.100000)"/>
<path d="M3129 2135 c0 0 -2 -11 -5 -23 -3 -16 0 -22 8 -20 7 3 13 10 13 17 0 6 7 16 15 21 11 7 10 9 -8 7 -12 0 -22 -1 -23 -2z" fill="#8C4A60" transform="translate(0.000000,350.000000) scale(0.100000,-0.100000)"/>
<path d="M2420 2103 c-11 -15 -19 -33 -18 -42 4 -20 28 -26 28 -6 0 9 15 29 32 46 l32 29 -26 0 c-17 0 -34 -10 -48 -27z" fill="#8C4A60" transform="translate(0.000000,350.000000) scale(0.100000,-0.100000)"/>
<path d="M1260 2089 c0 -5 9 -9 20 -9 11 0 20 2 20 4 0 2 -9 6 -20 9 -11 3 -20 1 -20 -4z" fill="#8C4A60" transform="translate(0.000000,350.000000) scale(0.100000,-0.100000)"/>
<path d="M2356 1943 c-12 -12 -6 -33 9 -33 8 0 15 6 15 14 0 17 -14 28 -24 19z" fill="#8C4A60" transform="translate(0.000000,350.000000) scale(0.100000,-0.100000)"/>
<path d="M2686 1934 c-9 -8 -14 -20 -11 -24 9 -15 35 1 35 21 0 23 -4 24 -24 3z" fill="#8C4A60" transform="translate(0.000000,350.000000) scale(0.100000,-0.100000)"/>
<path d="M960 1906 c0 -16 32 -46 48 -46 26 0 11 38 -18 49 -23 8 -30 7 -30 -3z" fill="#8C4A60" transform="translate(0.000000,350.000000) scale(0.100000,-0.100000)"/>
<path d="M2636 1885 c-17 -18 -13 -35 9 -35 16 0 29 30 17 42 -6 6 -16 3 -26 -7z" fill="#8C4A60" transform="translate(0.000000,350.000000) scale(0.100000,-0.100000)"/>
<path d="M460 1860 c0 -5 5 -10 10 -10 6 0 10 5 10 10 0 6 -4 10 -10 10 -5 0 -10 -4 -10 -10z" fill="#8C4A60" transform="translate(0.000000,350.000000) scale(0.100000,-0.100000)"/>
<path d="M370 1835 c0 -8 -6 -15 -12 -15 -9 0 -8 -3 2 -9 8 -6 18 -7 22 -5 7 5 12 -10 9 -28 0 -5 5 -8 13 -8 8 0 16 -7 20 -15 8 -21 32 -19 56 7 24 26 25 34 4 42 -11 4 -18 -1 -21 -14 -8 -28 -40 -26 -45 4 -3 13 -1 30 3 38 6 10 0 14 -22 16 -20 2 -29 -2 -29 -13z" fill="#8C4A60" transform="translate(0.000000,350.000000) scale(0.100000,-0.100000)"/>
<path d="M2737 1843 c-4 -3 -7 -11 -7 -17 0 -6 5 -5 12 2 6 6 9 14 7 17 -3 3 -9 2 -12 -2z" fill="#8C4A60" transform="translate(0.000000,350.000000) scale(0.100000,-0.100000)"/>
<path d="M2160 1830 c0 -5 5 -10 10 -10 6 0 10 5 10 10 0 6 -4 10 -10 10 -5 0 -10 -4 -10 -10z" fill="#8C4A60" transform="translate(0.000000,350.000000) scale(0.100000,-0.100000)"/>
<path d="M2310 1815 c0 -8 5 -15 10 -15 6 0 10 7 10 15 0 8 -4 15 -10 15 -5 0 -10 -7 -10 -15z" fill="#8C4A60" transform="translate(0.000000,350.000000) scale(0.100000,-0.100000)"/>
<path d="M2687 1803 c-4 -3 -7 -15 -7 -25 0 -22 26 -24 34 -2 10 25 -10 45 -27 27z" fill="#8C4A60" transform="translate(0.000000,350.000000) scale(0.100000,-0.100000)"/>
<path d="M1089 1795 c-4 -3 3 -24 14 -46 16 -33 24 -40 46 -37 35 4 33 29 -4 47 -16 8 -35 21 -40 28 -6 8 -13 11 -16 8z" fill="#8C4A60" transform="translate(0.000000,350.000000) scale(0.100000,-0.100000)"/>
<path d="M1605 1740 c-3 -5 1 -10 9 -10 9 0 16 5 16 10 0 6 -4 10 -9 10 -6 0 -13 -4 -16 -10z" fill="#8C4A60" transform="translate(0.000000,350.000000) scale(0.100000,-0.100000)"/>
<path d="M2540 1731 c0 -12 -9 -23 -22 -27 -13 -4 -27 -13 -33 -20 -5 -7 -19 -14 -30 -16 -12 -2 -21 -13 -23 -26 -3 -20 0 -23 20 -20 13 2 27 12 32 23 5 12 26 34 47 50 40 30 51 55 24 55 -8 0 -15 -9 -15 -19z" fill="#8C4A60" transform="translate(0.000000,350.000000) scale(0.100000,-0.100000)"/>
<path d="M2261 1706 c-6 -14 -19 -26 -33 -28 -21 -3 -23 -9 -26 -66 -2 -49 0 -64 13 -68 29 -12 45 15 45 78 0 43 4 60 15 64 17 7 20 30 5 39 -6 3 -14 -5 -19 -19z" fill="#8C4A60" transform="translate(0.000000,350.000000) scale(0.100000,-0.100000)"/>
<path d="M864 1700 c-12 -5 -25 -13 -29 -19 -3 -6 -33 -11 -65 -11 -62 0 -75 -10 -58 -43 8 -15 17 -17 51 -12 23 4 55 16 71 27 18 13 59 25 107 32 94 13 112 26 38 26 -30 0 -63 2 -74 5 -11 2 -30 0 -41 -5z" fill="#8C4A60" transform="translate(0.000000,350.000000) scale(0.100000,-0.100000)"/>
<path d="M2621 1677 c-29 -47 -27 -57 13 -57 26 0 36 -5 41 -20 3 -11 14 -20 23 -21 62 -4 201 -5 220 -1 25 5 30 27 6 36 -8 3 -39 3 -68 0 -49 -6 -54 -4 -74 21 -19 23 -27 27 -57 22 -30 -5 -38 -2 -58 25 l-24 30 -22 -35z" fill="#8C4A60" transform="translate(0.000000,350.000000) scale(0.100000,-0.100000)"/>
<path d="M1650 1696 c0 -2 7 -6 15 -10 8 -3 15 -1 15 4 0 6 -7 10 -15 10 -8 0 -15 -2 -15 -4z" fill="#8C4A60" transform="translate(0.000000,350.000000) scale(0.100000,-0.100000)"/>
<path d="M1309 1649 c-12 -7 -11 -13 3 -36 19 -32 59 -46 95 -32 30 11 23 24 -22 39 -19 6 -35 15 -35 20 0 13 -26 19 -41 9z" fill="#8C4A60" transform="translate(0.000000,350.000000) scale(0.100000,-0.100000)"/>
<path d="M552 1596 c-2 -25 21 -41 40 -29 7 3 8 1 4 -5 -4 -7 -1 -12 7 -12 7 0 14 7 14 15 0 8 -7 15 -15 15 -9 0 -13 7 -9 20 4 16 0 20 -17 20 -16 0 -22 -7 -24 -24z" fill="#8C4A60" transform="translate(0.000000,350.000000) scale(0.100000,-0.100000)"/>
<path d="M2328 1613 c-25 -6 -23 -30 3 -38 32 -10 71 3 67 23 -3 17 -37 25 -70 15z" fill="#8C4A60" transform="translate(0.000000,350.000000) scale(0.100000,-0.100000)"/>
<path d="M670 1565 c0 -8 5 -15 10 -15 6 0 10 -6 10 -14 0 -8 7 -16 14 -19 8 -3 20 -25 26 -49 7 -23 18 -47 25 -53 7 -5 18 -27 25 -47 14 -44 26 -54 45 -38 20 17 19 33 -5 60 -25 29 -18 40 26 40 42 0 74 15 74 35 0 19 -110 21 -128 3 -10 -10 -15 -10 -22 2 -5 8 -10 23 -10 32 0 24 -49 78 -71 78 -10 0 -19 -7 -19 -15z" fill="#8C4A60" transform="translate(0.000000,350.000000) scale(0.100000,-0.100000)"/>
<path d="M2482 1558 c-17 -17 -15 -28 7 -28 30 0 51 11 51 26 0 17 -41 19 -58 2z" fill="#8C4A60" transform="translate(0.000000,350.000000) scale(0.100000,-0.100000)"/>
<path d="M1130 1550 c0 -5 25 -10 55 -10 30 0 55 5 55 10 0 6 -25 10 -55 10 -30 0 -55 -4 -55 -10z" fill="#8C4A60" transform="translate(0.000000,350.000000) scale(0.100000,-0.100000)"/>
<path d="M2057 1533 c-4 -3 -7 -11 -7 -17 0 -6 5 -5 12 2 6 6 9 14 7 17 -3 3 -9 2 -12 -2z" fill="#8C4A60" transform="translate(0.000000,350.000000) scale(0.100000,-0.100000)"/>
<path d="M3526 1521 c-18 -20 -12 -31 16 -31 11 0 18 7 18 19 0 28 -15 33 -34 12z" fill="#8C4A60" transform="translate(0.000000,350.000000) scale(0.100000,-0.100000)"/>
<path d="M553 1515 c0 -8 7 -15 15 -15 12 0 12 3 2 15 -7 8 -13 15 -15 15 -1 0 -2 -7 -2 -15z" fill="#8C4A60" transform="translate(0.000000,350.000000) scale(0.100000,-0.100000)"/>
<path d="M930 1510 c-17 -32 -4 -39 60 -35 66 4 80 10 80 29 0 17 -31 26 -87 26 -32 0 -45 -5 -53 -20z" fill="#8C4A60" transform="translate(0.000000,350.000000) scale(0.100000,-0.100000)"/>
<path d="M2384 1515 c-16 -13 -17 -16 -4 -25 8 -5 25 -10 37 -10 24 0 56 27 48 41 -9 14 -59 11 -81 -6z" fill="#8C4A60" transform="translate(0.000000,350.000000) scale(0.100000,-0.100000)"/>
<path d="M1837 1514 c-13 -13 -7 -61 8 -74 26 -21 18 -47 -16 -54 -19 -4 -33 -13 -36 -26 -4 -14 -14 -20 -32 -20 -15 0 -36 -7 -47 -15 -16 -13 -17 -16 -4 -25 8 -5 23 -10 32 -10 18 0 48 25 48 41 0 5 13 9 30 9 20 0 35 8 46 25 9 14 22 25 30 25 7 0 18 9 24 20 8 15 6 23 -9 37 -39 35 -42 38 -54 56 -7 10 -16 15 -20 11z" fill="#8C4A60" transform="translate(0.000000,350.000000) scale(0.100000,-0.100000)"/>
<path d="M3473 1499 c-15 -5 -23 -17 -23 -32 0 -14 -10 -37 -22 -52 -19 -25 -26 -27 -70 -23 -26 3 -56 12 -66 22 -21 19 -117 23 -128 5 -11 -18 17 -29 75 -29 44 0 56 -4 72 -24 13 -17 32 -26 57 -28 26 -2 38 -8 40 -21 6 -28 -16 -49 -38 -37 -10 6 -37 10 -59 10 -29 0 -47 7 -67 25 -23 21 -37 25 -90 25 -106 0 -97 -44 12 -53 47 -3 69 -10 78 -23 9 -11 32 -20 62 -23 l49 -6 -3 -56 c-4 -61 5 -75 39 -64 14 5 18 12 13 23 -17 42 -16 64 5 85 11 13 23 38 27 57 8 48 25 90 35 90 5 0 9 12 9 26 0 14 7 42 16 61 19 39 10 55 -23 42z" fill="#8C4A60" transform="translate(0.000000,350.000000) scale(0.100000,-0.100000)"/>
<path d="M2837 1418 l-39 -10 68 -29 c74 -31 180 -41 172 -16 -3 6 -14 13 -25 15 -11 2 -31 14 -44 28 -25 26 -64 30 -132 12z" fill="#8C4A60" transform="translate(0.000000,350.000000) scale(0.100000,-0.100000)"/>
<path d="M2250 1380 c0 -12 10 -24 24 -30 14 -5 26 -19 28 -32 4 -29 38 -38 38 -9 0 11 5 23 11 27 16 10 124 -47 135 -71 6 -14 21 -21 45 -23 27 -2 38 -9 42 -23 7 -26 60 -28 55 -1 -2 10 -14 18 -30 20 -16 2 -30 11 -33 23 -4 13 -19 21 -46 25 -36 6 -40 9 -37 33 2 19 10 27 33 31 38 8 171 -23 195 -45 10 -9 29 -15 42 -13 32 4 35 35 6 49 -13 5 -28 20 -33 32 -9 19 -17 22 -65 20 -30 -1 -86 -6 -123 -10 -52 -7 -71 -5 -79 4 -17 21 -95 16 -119 -8 l-21 -21 -19 21 c-25 27 -49 27 -49 1z m170 -14 c0 -11 -19 -15 -25 -6 -3 5 1 10 9 10 9 0 16 -2 16 -4z" fill="#8C4A60" transform="translate(0.000000,350.000000) scale(0.100000,-0.100000)"/>
<path d="M620 1323 c0 -14 15 -28 30 -31 12 -2 11 1 -2 11 -10 8 -15 17 -11 20 3 4 1 7 -5 7 -7 0 -12 -3 -12 -7z" fill="#8C4A60" transform="translate(0.000000,350.000000) scale(0.100000,-0.100000)"/>
<path d="M1327 1324 c-11 -12 3 -24 28 -24 32 0 56 10 49 21 -6 10 -67 12 -77 3z" fill="#8C4A60" transform="translate(0.000000,350.000000) scale(0.100000,-0.100000)"/>
<path d="M757 1293 c-4 -3 -7 -17 -7 -30 0 -20 5 -23 38 -22 33 0 34 1 14 10 -18 7 -22 14 -17 29 6 20 -13 29 -28 13z" fill="#8C4A60" transform="translate(0.000000,350.000000) scale(0.100000,-0.100000)"/>
<path d="M1070 1275 c-21 -25 -1 -35 76 -35 66 0 74 2 74 19 0 13 -10 20 -31 25 -53 10 -106 7 -119 -9z" fill="#8C4A60" transform="translate(0.000000,350.000000) scale(0.100000,-0.100000)"/>
<path d="M2807 1284 c-3 -4 -2 -15 4 -25 13 -25 99 -28 99 -4 0 25 -84 48 -103 29z" fill="#8C4A60" transform="translate(0.000000,350.000000) scale(0.100000,-0.100000)"/>
<path d="M1535 1270 c-3 -5 0 -13 8 -16 23 -8 92 0 92 11 0 14 -92 19 -100 5z" fill="#8C4A60" transform="translate(0.000000,350.000000) scale(0.100000,-0.100000)"/>
<path d="M2340 1266 c0 -7 7 -19 15 -26 20 -16 38 -1 29 23 -7 20 -44 23 -44 3z" fill="#8C4A60" transform="translate(0.000000,350.000000) scale(0.100000,-0.100000)"/>
<path d="M3473 1233 c-3 -10 -8 -21 -10 -25 -2 -5 1 -8 6 -8 6 0 11 7 11 15 0 8 7 15 15 15 8 0 15 -7 15 -15 0 -8 -4 -15 -10 -15 -5 0 -10 -4 -10 -9 0 -6 9 -9 19 -8 11 0 18 4 15 8 -2 4 1 9 7 11 19 6 -9 48 -32 48 -11 0 -22 -8 -26 -17z" fill="#8C4A60" transform="translate(0.000000,350.000000) scale(0.100000,-0.100000)"/>
<path d="M1274 1229 c-8 -14 23 -22 42 -11 14 8 13 10 -10 14 -15 3 -29 1 -32 -3z" fill="#8C4A60" transform="translate(0.000000,350.000000) scale(0.100000,-0.100000)"/>
<path d="M2920 1226 c0 -17 22 -26 61 -26 31 0 36 9 17 28 -17 17 -78 16 -78 -2z" fill="#8C4A60" transform="translate(0.000000,350.000000) scale(0.100000,-0.100000)"/>
<path d="M1380 1220 c-24 -8 -23 -8 8 -9 20 -1 31 3 27 9 -3 6 -7 10 -8 9 -1 -1 -13 -5 -27 -9z" fill="#8C4A60" transform="translate(0.000000,350.000000) scale(0.100000,-0.100000)"/>
<path d="M2655 1190 c-11 -19 16 -40 51 -40 40 0 54 18 29 37 -22 16 -71 17 -80 3z" fill="#8C4A60" transform="translate(0.000000,350.000000) scale(0.100000,-0.100000)"/>
<path d="M1540 1150 c0 -33 -4 -42 -25 -52 -14 -6 -25 -17 -25 -24 0 -6 11 -15 25 -18 14 -4 25 -13 25 -21 0 -20 36 -19 44 1 3 9 6 34 6 57 0 23 4 47 8 54 4 6 32 13 61 15 32 2 56 8 59 16 3 9 -19 12 -87 12 l-91 0 0 -40z" fill="#8C4A60" transform="translate(0.000000,350.000000) scale(0.100000,-0.100000)"/>
<path d="M3548 1145 c2 -15 0 -25 -7 -25 -7 0 -9 -4 -6 -10 3 -5 -2 -10 -12 -11 -11 0 -13 -3 -5 -6 20 -8 42 17 42 48 0 16 -4 29 -9 29 -4 0 -6 -11 -3 -25z" fill="#8C4A60" transform="translate(0.000000,350.000000) scale(0.100000,-0.100000)"/>
<path d="M2812 1143 c-79 -7 -33 -39 61 -42 44 -1 52 24 11 39 -14 6 -26 9 -27 8 -1 -1 -21 -3 -45 -5z" fill="#8C4A60" transform="translate(0.000000,350.000000) scale(0.100000,-0.100000)"/>
<path d="M1391 1041 c-13 -23 -5 -31 30 -31 27 0 56 30 42 44 -14 14 -63 5 -72 -13z" fill="#8C4A60" transform="translate(0.000000,350.000000) scale(0.100000,-0.100000)"/>
<path d="M3365 1031 c-7 -17 -4 -20 25 -23 17 -2 23 2 25 18 1 17 -4 21 -22 20 -12 0 -25 -7 -28 -15z" fill="#8C4A60" transform="translate(0.000000,350.000000) scale(0.100000,-0.100000)"/>
<path d="M1263 1003 c-7 -2 -13 -13 -13 -24 0 -16 7 -19 41 -19 47 0 79 14 79 35 0 11 -12 15 -47 14 -27 0 -54 -3 -60 -6z" fill="#8C4A60" transform="translate(0.000000,350.000000) scale(0.100000,-0.100000)"/>
<path d="M2331 994 c0 -12 6 -28 15 -35 9 -7 20 -22 24 -34 7 -18 9 -18 15 -3 7 18 -14 48 -34 48 -5 0 -12 10 -14 23 -4 21 -4 21 -6 1z" fill="#8C4A60" transform="translate(0.000000,350.000000) scale(0.100000,-0.100000)"/>
<path d="M974 989 c-3 -6 -1 -16 6 -22 10 -9 11 -9 5 2 -4 8 -2 17 6 22 9 6 10 9 2 9 -6 0 -15 -5 -19 -11z" fill="#8C4A60" transform="translate(0.000000,350.000000) scale(0.100000,-0.100000)"/>
<path d="M2299 926 c9 -11 9 -15 -1 -19 -10 -4 -10 -6 0 -6 6 -1 12 -8 12 -16 0 -8 4 -15 9 -15 6 0 6 12 0 32 -5 18 -9 34 -9 35 0 2 -5 3 -11 3 -8 0 -8 -4 0 -14z" fill="#8C4A60" transform="translate(0.000000,350.000000) scale(0.100000,-0.100000)"/>
<path d="M3366 905 c-3 -8 -1 -15 4 -15 6 0 10 7 10 15 0 8 -2 15 -4 15 -2 0 -6 -7 -10 -15z" fill="#8C4A60" transform="translate(0.000000,350.000000) scale(0.100000,-0.100000)"/>
<path d="M894 872 c-5 -4 -7 -20 -4 -37 l6 -30 7 34 c8 38 6 43 -9 33z" fill="#8C4A60" transform="translate(0.000000,350.000000) scale(0.100000,-0.100000)"/>
<path d="M3355 870 c-3 -5 -2 -10 4 -10 5 0 13 5 16 10 3 6 2 10 -4 10 -5 0 -13 -4 -16 -10z" fill="#8C4A60" transform="translate(0.000000,350.000000) scale(0.100000,-0.100000)"/>
<path d="M2031 837 c-6 -8 -13 -66 -15 -131 -4 -104 -3 -117 11 -114 24 4 41 94 35 183 -5 75 -10 86 -31 62z" fill="#8C4A60" transform="translate(0.000000,350.000000) scale(0.100000,-0.100000)"/>
<path d="M2675 829 c5 -6 55 0 55 7 0 3 -13 3 -29 2 -16 -1 -28 -5 -26 -9z" fill="#8C4A60" transform="translate(0.000000,350.000000) scale(0.100000,-0.100000)"/>
<path d="M1876 815 c-3 -9 -6 -32 -6 -51 0 -21 -8 -42 -20 -54 -21 -21 -27 -74 -11 -85 14 -8 31 28 31 62 0 20 7 31 23 38 18 8 22 18 22 55 0 33 -4 46 -16 48 -9 2 -19 -4 -23 -13z" fill="#8C4A60" transform="translate(0.000000,350.000000) scale(0.100000,-0.100000)"/>
<path d="M3211 820 c-18 -10 -23 -38 -9 -46 5 -4 17 0 25 9 19 19 5 51 -16 37z" fill="#8C4A60" transform="translate(0.000000,350.000000) scale(0.100000,-0.100000)"/>
<path d="M3330 820 c0 -5 4 -10 9 -10 6 0 13 5 16 10 3 6 -1 10 -9 10 -9 0 -16 -4 -16 -10z" fill="#8C4A60" transform="translate(0.000000,350.000000) scale(0.100000,-0.100000)"/>
<path d="M2858 793 c6 -2 18 -2 25 0 6 3 1 5 -13 5 -14 0 -19 -2 -12 -5z" fill="#8C4A60" transform="translate(0.000000,350.000000) scale(0.100000,-0.100000)"/>
<path d="M2182 700 c0 -19 2 -27 5 -17 2 9 2 25 0 35 -3 9 -5 1 -5 -18z" fill="#8C4A60" transform="translate(0.000000,350.000000) scale(0.100000,-0.100000)"/>
<path d="M1544 675 c-4 -28 -11 -45 -20 -45 -16 0 -34 -31 -34 -59 0 -11 -8 -25 -19 -30 -12 -7 -21 -26 -25 -55 -4 -24 -16 -52 -26 -61 -11 -10 -20 -29 -20 -42 0 -30 -27 -41 -48 -19 -13 12 -14 18 -4 28 7 7 12 28 12 48 0 24 6 39 20 48 15 9 20 23 20 55 0 34 4 44 23 52 23 11 36 60 19 77 -18 18 -42 -3 -42 -38 0 -23 -6 -37 -20 -44 -14 -8 -20 -21 -20 -48 0 -42 -7 -56 -32 -65 -11 -4 -20 -22 -24 -47 -4 -22 -10 -40 -14 -40 -17 0 -69 32 -74 45 -7 19 -52 20 -59 1 -6 -15 22 -46 41 -46 6 0 23 -11 39 -24 15 -13 45 -29 65 -35 21 -7 40 -17 43 -22 4 -5 23 -9 44 -9 21 0 58 -7 81 -15 23 -8 46 -12 51 -9 21 12 7 33 -28 41 -37 9 -38 10 -35 53 2 28 10 51 22 63 11 10 20 31 20 47 0 17 9 39 20 50 13 13 20 33 20 60 0 29 4 40 15 40 19 0 38 46 30 71 -12 35 -33 21 -41 -26z" fill="#8C4A60" transform="translate(0.000000,350.000000) scale(0.100000,-0.100000)"/>
<path d="M1696 698 c-15 -59 2 -122 25 -87 15 24 11 109 -5 109 -7 0 -16 -10 -20 -22z" fill="#8C4A60" transform="translate(0.000000,350.000000) scale(0.100000,-0.100000)"/>
<path d="M3227 653 c-11 -10 -8 -33 4 -33 6 0 8 7 5 16 -3 8 -2 12 3 9 5 -3 12 -1 16 5 7 11 -18 14 -28 3z" fill="#8C4A60" transform="translate(0.000000,350.000000) scale(0.100000,-0.100000)"/>
<path d="M3189 607 c-8 -8 -21 -16 -29 -20 -9 -3 -4 -6 11 -6 16 -1 29 6 33 15 9 23 1 28 -15 11z" fill="#8C4A60" transform="translate(0.000000,350.000000) scale(0.100000,-0.100000)"/>
<path d="M893 550 c-1 -31 2 -40 18 -45 11 -4 23 -4 26 -1 4 3 1 6 -5 6 -7 0 -15 18 -18 40 -8 51 -19 51 -21 0z" fill="#8C4A60" transform="translate(0.000000,350.000000) scale(0.100000,-0.100000)"/>
<path d="M3362 525 c0 -16 2 -22 5 -12 2 9 2 23 0 30 -3 6 -5 -1 -5 -18z" fill="#8C4A60" transform="translate(0.000000,350.000000) scale(0.100000,-0.100000)"/>
<path d="M3004 436 c-3 -8 -4 -23 -2 -33 3 -11 6 -6 9 15 6 34 2 42 -7 18z" fill="#8C4A60" transform="translate(0.000000,350.000000) scale(0.100000,-0.100000)"/>
<path d="M3362 420 c0 -14 2 -19 5 -12 2 6 2 18 0 25 -3 6 -5 1 -5 -13z" fill="#8C4A60" transform="translate(0.000000,350.000000) scale(0.100000,-0.100000)"/>
<path d="M1068 381 c8 -4 13 -12 13 -17 -1 -9 2 -9 32 -5 6 0 -1 8 -17 16 -30 16 -50 20 -28 6z" fill="#8C4A60" transform="translate(0.000000,350.000000) scale(0.100000,-0.100000)"/>
<path d="M2997 307 c-8 -20 1 -89 12 -100 8 -8 11 -5 11 10 0 12 -6 24 -12 27 -10 5 -10 7 0 12 6 3 12 19 12 35 0 29 -14 39 -23 16z" fill="#8C4A60" transform="translate(0.000000,350.000000) scale(0.100000,-0.100000)"/>
<path d="M1302 238 c2 -13 9 -22 16 -20 6 1 12 -5 12 -13 0 -18 26 -20 36 -3 4 7 3 8 -4 4 -7 -4 -12 -2 -12 3 0 6 5 11 10 11 11 0 14 30 3 31 -5 0 -21 3 -36 5 -25 4 -28 2 -25 -18z" fill="#8C4A60" transform="translate(0.000000,350.000000) scale(0.100000,-0.100000)"/>
<path d="M1180 238 c0 -4 7 -8 15 -8 8 0 15 4 15 8 0 5 -7 9 -15 9 -8 0 -15 -4 -15 -9z" fill="#8C4A60" transform="translate(0.000000,350.000000) scale(0.100000,-0.100000)"/>
<path d="M1803 213 c9 -2 23 -2 30 0 6 3 -1 5 -18 5 -16 0 -22 -2 -12 -5z" fill="#8C4A60" transform="translate(0.000000,350.000000) scale(0.100000,-0.100000)"/>
<path d="M1863 213 c9 -2 25 -2 35 0 9 3 1 5 -18 5 -19 0 -27 -2 -17 -5z" fill="#8C4A60" transform="translate(0.000000,350.000000) scale(0.100000,-0.100000)"/>
<path d="M1502 193 c4 -24 73 -32 81 -8 5 12 1 14 -17 9 -13 -3 -34 0 -46 6 -19 10 -21 9 -18 -7z" fill="#8C4A60" transform="translate(0.000000,350.000000) scale(0.100000,-0.100000)"/>
<path d="M1826 181 c-18 -7 -18 -8 5 -14 38 -10 49 -8 43 8 -7 16 -18 18 -48 6z" fill="#8C4A60" transform="translate(0.000000,350.000000) scale(0.100000,-0.100000)"/>
<path d="M3423 163 c9 -2 25 -2 35 0 9 3 1 5 -18 5 -19 0 -27 -2 -17 -5z" fill="#8C4A60" transform="translate(0.000000,350.000000) scale(0.100000,-0.100000)"/>
</g>
    </svg>
  </g>
</svg>